/* XPM */
static char * bg11a_xpm[] = {
"10 10 2 1",
" 	c None",
".	c #FFFF00",
"    ..    ",
"    ..    ",
"  ......  ",
"  ......  ",
"..........",
"..........",
"  ......  ",
"  ......  ",
"    ..    ",
"    ..    "};
