/* XPM */
static char*bg11c[]={
"15 15 4 1",
"# c #c0c000",
". c None",
"a c #c00000",
"b c #ff0000",
".####a######...",
".###bbb######..",
"##bbbbbbbbb####",
"#bbbbbaaaabb###",
"#bbbbbaaaabb###",
"##bbbaaaaaabb#.",
"##bbaaaaaaabb#.",
"##bbaaaaaaabb#.",
"##bbaaaaaaaab##",
"##baaaaaaaaab##",
"##bbbaaaaabbb##",
"##bbbbaaabbb##.",
"###bbbbbbbbb##.",
".##bbb#######..",
"..##########..."};
