/* XPM */
static char * bg11b_xpm[] = {
"18 18 41 1",
" 	c None",
".	c #FFFF00",
"+	c #FFD000",
"@	c #FFCA00",
"#	c #FFCB00",
"$	c #FFC600",
"%	c #FFE200",
"&	c #FF5E00",
"*	c #FF2800",
"=	c #FF3100",
"-	c #FF3000",
";	c #FF2400",
">	c #FFA500",
",	c #FF2100",
"'	c #FF0000",
")	c #FF2000",
"!	c #FF0400",
"~	c #FF2C00",
"{	c #FFBA00",
"]	c #FF3300",
"^	c #FFC000",
"/	c #FFBE00",
"(	c #FF2D00",
"_	c #FF2700",
":	c #FF0F00",
"<	c #FF3400",
"[	c #FF2E00",
"}	c #FF0E00",
"|	c #FF3200",
"1	c #FF0D00",
"2	c #FF0200",
"3	c #FF2F00",
"4	c #FF0100",
"5	c #FFC700",
"6	c #FF1900",
"7	c #FF6200",
"8	c #FFD800",
"9	c #FF9A00",
"0	c #FFE600",
"a	c #FFFA00",
"b	c #FFFD00",
"    ..........    ",
"    +@#@$$@#@+    ",
"  .%&*=-;;-=*&%.  ",
"  %>,'''))''',>%  ",
".+&,!''~{{~''!,&+.",
".@*'''']^/(''''_@.",
".#='''':<['''''-#.",
".@-'~]}'''[]}''<#.",
".$;){^]''(/^|''<#.",
".$;){^|''|^^|''<#.",
".@-'~|1''1||1''<#.",
".#=''''22''''''3@.",
".@*''''44'''''';5.",
".+&,!''''''''4678.",
"  %>,''''''''690a.",
"  .%&_-<<<<3;70..b",
"    +@#####@58a.  ",
"    ...........b  "};
