/* XPM */
static char*bg11e[]={
"33 33 4 1",
"# c #c0c000",
"a c #800000",
". c None",
"b c #ffffff",
"....###.###############....#.....",
"...##..##.....aaa...a.###..##....",
"...#..##....aaa..aaaaa..##..##...",
"..##.##....aa.........aa.###.###.",
".##.##...aa............aaa.##..##",
"##..#...aa...............aaa.##.#",
"#..##..aa..................a..#..",
"#.##.aaa...................aa.##.",
".##.aa........#.............a..#.",
"##.aa...........##.#........a..#.",
"#..a.......##...............aa.##",
"..aa.................#.......a..#",
"..a......##..................a..#",
".aa...........................a.#",
".a.......#.............#......a.#",
".a.............bb.............a.#",
"a.......#......bb............aa##",
"aa....................#......a.#.",
".a......#............##.....aa.#.",
".aa.........................a..#.",
"..aa.......................aa.##.",
"#..aa.....#...............aa..#..",
"#...a.........#......#....a..##..",
"##..aa....##.....##......aa.##...",
".##..aa..................a..#...#",
"..##..aa.................a.##.###",
"...#...a................a.##.###.",
"##.##..aa..............aa.#.####.",
".##.#...aa...........aaa.##.#.#..",
"..#####..aaa.....aaaaa..##.####..",
"....#####...aaaaaa...####..###...",
".....##.###........###.....##....",
"......##..##########......##....."};
