/* XPM */
static char * bg11d_xpm[] = {
"50 50 115 2",
"  	c None",
". 	c #C0C000",
"+ 	c #C0BF00",
"@ 	c #C0C300",
"# 	c #C0CB00",
"$ 	c #C0CE00",
"% 	c #C0C100",
"& 	c #C0C400",
"* 	c #C0C500",
"= 	c #C0C600",
"- 	c #C0C800",
"; 	c #C0BC00",
"> 	c #C0A200",
", 	c #C09600",
"' 	c #C09800",
") 	c #C09900",
"! 	c #C0D100",
"~ 	c #C0D900",
"{ 	c #C0AC00",
"] 	c #C04900",
"^ 	c #C01B00",
"/ 	c #C02300",
"( 	c #C02700",
"_ 	c #C0DA00",
": 	c #C0D200",
"< 	c #C0C200",
"[ 	c #C0C700",
"} 	c #C09D00",
"| 	c #C0A500",
"1 	c #C07700",
"2 	c #C01400",
"3 	c #C00000",
"4 	c #C0A400",
"5 	c #C09A00",
"6 	c #C0D600",
"7 	c #C0AD00",
"8 	c #C02800",
"9 	c #C02A00",
"0 	c #C01E00",
"a 	c #C00400",
"b 	c #C02600",
"c 	c #C01C00",
"d 	c #C0AE00",
"e 	c #C07400",
"f 	c #C01300",
"g 	c #C00100",
"h 	c #C04C00",
"i 	c #C01200",
"j 	c #C10000",
"k 	c #C20000",
"l 	c #C0A100",
"m 	c #C0B800",
"n 	c #C40000",
"o 	c #C50000",
"p 	c #C04600",
"q 	c #C30000",
"r 	c #BF0000",
"s 	c #B60000",
"t 	c #B20000",
"u 	c #C20100",
"v 	c #C60000",
"w 	c #C80000",
"x 	c #B90000",
"y 	c #980000",
"z 	c #880000",
"A 	c #B30000",
"B 	c #B40000",
"C 	c #B70000",
"D 	c #A80000",
"E 	c #870000",
"F 	c #760000",
"G 	c #C90000",
"H 	c #890000",
"I 	c #8C0000",
"J 	c #8D0000",
"K 	c #8E0000",
"L 	c #8A0000",
"M 	c #810000",
"N 	c #7D0000",
"O 	c #BA0000",
"P 	c #C70000",
"Q 	c #BD0000",
"R 	c #780000",
"S 	c #7A0000",
"T 	c #7C0000",
"U 	c #7B0000",
"V 	c #7F0000",
"W 	c #800000",
"X 	c #860000",
"Y 	c #A70000",
"Z 	c #C11E00",
"` 	c #970000",
" .	c #7E0000",
"..	c #C40400",
"+.	c #C11400",
"@.	c #770000",
"#.	c #B20100",
"$.	c #810100",
"%.	c #790000",
"&.	c #830500",
"*.	c #942800",
"=.	c #9C3900",
"-.	c #710000",
";.	c #8D1A00",
">.	c #CF9E00",
",.	c #F0E000",
"'.	c #B26400",
").	c #F2E500",
"!.	c #FFFF00",
"~.	c #FFFE00",
"{.	c #FEFD00",
"].	c #BF0100",
"^.	c #990000",
"/.	c #C10100",
"(.	c #C01D00",
"            . . . . . . . . + @ # $ $ $ $ $ $ $ $ # @ + . . . . . . . . . .                         ",
"            . . . % & * * = - ; > , ' ) ) ) ) ' , > ; - = & % . . . . . . .                         ",
"        . . . . + @ # $ $ ! ~ { ] ^ / ( ( ( ( / ^ ] { _ : # @ + . . . . . . . .                     ",
"        . . . < [ ; > , ' } | 1 2 3 3 3 3 3 3 3 3 2 1 4 5 > ; [ < . . . . . . .                     ",
". . . . . . + [ 6 7 ] ^ / 8 9 0 a 3 3 3 3 3 3 3 3 a 0 b c ] 7 6 [ + . . . . . . . . . .             ",
". . . . . < [ . d e f 3 3 3 3 3 3 g 3 3 3 3 3 3 g 3 3 3 3 f e d . - = * * & % . . . . .             ",
". . . . + [ 6 d h i 3 3 3 3 3 3 3 3 3 3 3 3 3 3 3 3 3 3 3 3 i h 7 ~ ! $ $ # @ + . . . . . .         ",
". . . < [ . d e i 3 3 g 3 3 3 3 3 3 3 3 3 3 3 3 j k k j g 3 3 f 1 | } ' , l m @ % . . . . .         ",
". . + [ 6 d h i 3 3 3 3 3 3 3 3 3 3 3 3 3 3 3 j n o o n j 3 3 a 0 9 8 / c p l # & . . . . .         ",
". % @ ; 7 e i 3 3 g 3 3 j k k k k k k k k k q r s t t s r q u k k j 3 3 3 c , $ * . . . . .         ",
". & # > ] f 3 3 3 3 3 j n o o n n n n n n v w x y z z y x w v o o n j 3 3 / ' $ * . . . . . . .     ",
". * $ , ^ 3 3 g j k q r s t A A A A A A A B C D E F F E D C B A t s r k j 8 } ! = . . . . . . .     ",
". * $ ' / 3 3 j n v G x y H I J J J J J J J K L M N N M L K J I H y O P k 9 | ~ - + . . . . . . . . ",
". = ! } 8 3 j Q s A C D E R S T T T T T T U U T V W W V T U U S R X Y O r Z 1 { ; @ % . . . . . . . ",
"+ - ~ | 9 j n s ` L J L M N  . . . . . . . . .V W W W W V  . . .N W X y s ..+.] > # & . . . . . . . ",
"@ ; { 1 0 k o t H @.S T V W W W W W W V  .N N  .V W W W W W W W W N R H #.o k c 5 : = . . . . . . . ",
"# > ] 2 a k o A I S N V W W W W W W $. .%.F F %. .$.W W W W W W W  .S I A o k b 4 _ - + . . . . . . ",
"$ , ^ 3 3 u o A I S  .W W W W W W V T &.*.=.=.*.&.T V W W W W W W  .T J A n k 0 1 { ; @ % . . . . . ",
"$ ' / 3 3 k o t H R N W W W W W $.T -.;.>.,.,.>.;.-.T $.W W W W W  .T J A n k a 2 ] > # & . . . . . ",
"$ ) ( 3 3 j n s y E M V W W W V  .&.;.'.).!.!.).'.;.&. .V W W W W  .T J A n u 3 3 ^ , $ * . . . . . ",
"$ ) ( 3 3 3 j r x D L T V W W  .%.*.>.).~.!.!.~.).>.*.%. .W W W W  .T J A n k 3 3 / ' $ * . . . . . ",
"$ ) ( 3 3 3 3 q w C K U  .W W N F =.,.!.!.{.{.!.!.,.=.F N W W W W  .T J A n k 3 3 ( ) $ & . . . . . ",
"$ ) ( 3 3 3 3 k v B J U  .W W N F =.,.!.!.{.{.!.!.,.=.F N W W W W  .T J A n k 3 3 ( ) $ & . . . . . ",
"$ ' / 3 3 3 3 k n A J T  .W W  .%.*.>.).~.!.!.~.).>.*.%. .W W W W  .T J A n k 3 3 / ' $ * . . . . . ",
"$ , ^ 3 3 g 3 k n A J T  .W W V  .&.;.'.).!.!.).'.;.&. .V W W W W  .T J A n u 3 3 ^ , $ * . . . . . ",
"# > ] 2 a 3 3 k o A I S  .W W W $.T -.;.>.,.,.>.;.-.T $.W W W W W  .S I A o k a 2 ] > # & . . . . . ",
"@ ; { 1 0 3 3 k o t H R N W W W W V T &.*.=.=.*.&.T V W W W W W W N R H t o k 0 1 { ; @ % . . . . . ",
"+ - _ 4 b 3 3 j n s y E M V W W W W $. .%.F F %. .$.W W W W W V  .W X y s n j b 4 _ - + . . . . . . ",
". = : 5 c 3 3 g j r x D L T V W W W W V  .N N  .V W W W W W W  .%.X Y O ].j 3 c 5 : = . . . . . . . ",
". & # > ] 2 a 3 3 q w C K U  .W W W W W W W W W W W W W V  .N W X ^.O P k a 2 ] > # & . . . . . . . ",
". % @ ; { 1 0 3 3 k v B J U  .W W W W W W W W W W W W V T S @.X Y O 3 k j 0 1 { ; @ % . . . . .     ",
". . + - _ 4 b 3 3 k o A I S  .W W W W W W W W W V  .N M L J H y O P k 3 3 b 4 _ - + . . . . . .     ",
". . . = : 5 c 3 3 u o t H R N W W W W W W W W V T S @.E D C A s r k /.3 3 c 5 : = . . . . . . .     ",
". . . & # > ] f 3 j n s y X W N  . . . . . .N M L J H y x G v n j 3 3 a 2 ] > # & . . . . . . .     ",
". . . % @ ; 7 e i 3 j ].O Y X R S T T T T S R E D C A s r q k j 3 3 3 0 1 { ; @ % . . . . . . .     ",
". . . . + [ 6 d h i 3 k P O y H I J J J J I H y x G v n j 3 3 3 3 3 3 b 4 _ - + . . . . . . . .     ",
". . . . . < [ . d e i j k ].s t A A A A A A t s r q k j 3 3 g 3 3 3 3 (.5 : = . . . . . . . . .     ",
". . . . . . + [ 6 d h f a j n o o n n n n o o n j 3 3 3 3 3 3 a 0 b (.p l # & . . . . . . . . .     ",
". . . . . . . < [ . 7 1 0 3 j k k k k k k k u j 3 3 3 3 3 3 3 2 1 4 5 l m @ % . . . . . . .         ",
". . . . . . . . + - _ 4 b 3 3 3 3 3 3 3 3 3 3 a 0 9 8 ( ( / ^ ] { _ : # @ + . . . . . . . .         ",
". . . . . . . . . = : 5 (.3 3 3 3 3 3 3 3 3 3 2 1 | } ) ) ' , > ; - = & % . . . . . . . . .         ",
". . . . . . . . . & # l p c / ( ( ( ( ( ( / ^ ] { ~ ! $ $ $ $ # @ + . . . . . . . . . . . .         ",
". . . . . . . . . % @ m l , ' ) ) ) ) ) ) ' , > ; - = & & * * & % . . . . . . . . . . .             ",
". . . . . . . . . . + @ # $ $ $ $ $ $ $ $ $ $ # @ + . . . . . . . . . . . . . . . . . .             ",
"        . . . . . . . % & * * & & & & & & * * & % . . . . . . . . . . . . . . . . . . .             ",
"        . . . . . . . . . . . . . . . . . . . . . . . . . . . . . . . . . . . . . . . .             ",
"                . . . . . . . . . . . . . . . . . . . . . . . . . . . . . . . . . .                 ",
"                . . . . . . . . . . . . . . . . . . . . . . . . . . . . . . . . . .                 ",
"                        . . . . . . . . . . . . . . . . . . . . . . . . . . . . . .                 ",
"                        . . . . . . . . . . . . . . . . . . . . . . . . . . . . . .                 "};
