/* XPM */
static char * bg11e_xpm[] = {
"66 66 57 1",
" 	c None",
".	c #C0C000",
"+	c #C0BF00",
"@	c #C1C300",
"#	c #C4CB00",
"$	c #C5CF00",
"%	c #C5CE00",
"&	c #C4CC00",
"*	c #C0C100",
"=	c #C2C500",
"-	c #C3C800",
";	c #C3CA00",
">	c #BEBB00",
",	c #B6A100",
"'	c #B29600",
")	c #B29500",
"!	c #B19400",
"~	c #B19300",
"{	c #B49D00",
"]	c #BEBA00",
"^	c #C2C700",
"/	c #B59E00",
"(	c #C1C200",
"_	c #903000",
":	c #8C2400",
"<	c #8B2200",
"[	c #8F2C00",
"}	c #8E2900",
"|	c #7B0000",
"1	c #7C0000",
"2	c #7A0000",
"3	c #790000",
"4	c #BFBE00",
"5	c #C1C400",
"6	c #7D0000",
"7	c #7E0000",
"8	c #7F0000",
"9	c #820600",
"0	c #800000",
"a	c #800100",
"b	c #BEB900",
"c	c #C3C900",
"d	c #C7D600",
"e	c #B09000",
"f	c #B6A300",
"g	c #810400",
"h	c #8A1D00",
"i	c #B09100",
"j	c #BDB800",
"k	c #820500",
"l	c #780000",
"m	c #C2C600",
"n	c #FFFFFF",
"o	c #AF8D00",
"p	c #C6D100",
"q	c #913300",
"r	c #820700",
"        ......  ..........+@#$%%$#@+..+@&&@+..        ..          ",
"        ......  .......*=-;>,')!~{];^^;]//]-(.        ..          ",
"      ....    ....          _:::<[      [}  -+....    ....        ",
"      ....    ....          |1|2|3      |2  4;^5*.    ....        ",
"      ..    ....        677787    7777778769    @+..    ....      ",
"      ..    ....        000000    00000000a8    bc=5    ....      ",
"    ....  ....        0000                  776a  d;@+..  ......  ",
"    ....  ....        0000                  00a7  ef>c=5  ......  ",
"  ....  ....      0000                        087gh_  d;@+    ....",
"  ....  ....      0000                        00a863  ifj5    ....",
"....    ..      0000                              876kh_  =...  ..",
"....    .*      0000                              00a86l  c...  ..",
"..    ..+@    0000                                    87    ..    ",
"..    .(^]    0000                                    00    *.    ",
"..  ..+^  980000                                      0006  5...  ",
"..  .(^.  7a0000                                      0008  -...  ",
"  ..+^  0780                ..                          00    ..  ",
"  .*@]  7a00                ..                          00    ..  ",
"...5  0780                      ....  ..                00    ..  ",
"...;  6a00                      ....  ..                00    *.  ",
"..    80              ....                              0006  5...",
".*    00              ....                              0008  -...",
"    8000                                  ..              00    ..",
"    0000                                  ..              00    ..",
"    00            ....                                    00    ..",
"    00            ....                                    00    *.",
"  0000                                                      07  =.",
"  0000                                                      07  m.",
"  00              ..                          ..            07  m.",
"  00              ..                          ..            07  m.",
"  00                          nnnn                          a6  m.",
"  00                          nnnn                          8k  =.",
"00              ..            nnnn                        086hop=.",
"00              ..            nnnn                        082qf;5.",
"0000                                        ..            07  >@  ",
"0000                                        ..            07  c+  ",
"  00            ..                        ....          0007  ^.  ",
"  00            ..                        ....          0006  5.  ",
"  0000                                                  00    *.  ",
"  0000                                                  00    ..  ",
"    0000                                              0008  ;...  ",
"    8000                                              0006  5...  ",
".@    0000          ..                              0000    *.    ",
"..    0000          ..                              0008    ..    ",
"..      00                  ..            ..        00    @...    ",
"..      00                  ..            ..        00    ....    ",
"....    0000        ....          ....            0008  ;...      ",
"....    8000        ....          ....            0006  5...      ",
"  ...(    0000                                    00    *.      ..",
"  ....    8000                                    08    ..      ..",
"    ...@    0000                                  a7  ;...  ......",
"    ....    0000                                  89  5...  ......",
"      ..      00                                07  j@*.  ......  ",
"      ..      00                                07  ;+..  ......  ",
"....  ....    0000                            00a6  ^.  ........  ",
"....  ....    0000                            087a  5.  ........  ",
"  ....  ..      0000                      0000a7  ]@*.  ..  ..    ",
"  ....  ..      6800                      88776a  ^+..  ..  ..    ",
"    .........@    8a0000          000000a862    ]^(.  ........    ",
"    ..........    r67800          0000876khq    @+..  ........    ",
"        .......(-]      000000000000      of>c^5*.    ......      ",
"        ........+@      677777777776      p;@+....    ......      ",
"          ....  .*5m=;                c===55          ....        ",
"          ....  ......                ......          ....        ",
"            ....    ...*=mmmmmmmmmm=*...            ....          ",
"            ....    ....................            ....          "};
