/* XPM */
static char*bg11d[]={
"25 25 5 1",
"# c #c0c000",
"c c #ffff00",
"b c #800000",
". c None",
"a c #c00000",
"...################......",
"..######aaaaa#######.....",
"#####aaaaaaaaaa#######...",
"####aaaaaaaaaaaa#######..",
"###aaaaaaaaaaaaaaaa####..",
"##aaaaaaaaaabbaaaaa#####.",
"##aaaabbbbbbbbbbbaa######",
"##aabbbbbbbbbbbbbbaa#####",
"#aaabbbbbbbbbbbbbbaa#####",
"#aaabbbbbbccbbbbbbaaa####",
"#aaaabbbbccccbbbbbaaa####",
"#aaaabbbbccccbbbbbaaa####",
"#aaaabbbbbccbbbbbbaaa####",
"##aaabbbbbbbbbbbbbaa#####",
"##aaaabbbbbbbbbbbaaa#####",
"###aaabbbbbbbbbbaaa#####.",
"###aaabbbbbbbbaaaaa#####.",
"####aaabbbbbaaaaaa######.",
"#####aaaaaaaaaaaaa######.",
"######aaaaaaaaaa#######..",
"######aaaaaa###########..",
"######################...",
"..####################...",
"....#################....",
"......###############...."};
