/* XPM */
static char*bg11f[]={
"50 50 8 1",
"# c #c0c000",
"b c #808000",
"a c #ffc0c0",
"f c #ffff00",
"c c #800000",
". c None",
"d c #c00000",
"e c #ff0000",
".....................#####........................",
".................#####....##......................",
"...............###aaaaa.aa.####...................",
"..............##..a..b........###.................",
"............###.bbbbbbbbbbbbbb..####..............",
"..........###.bbb......cccc...bb...###............",
"........###bbb.....cccc...dcc..bb..aa###..........",
"......###bbb....ccc..d.dddd..c..b.b..aa###........",
"...####aab...cccc...ddddd..dddc...bbb.aa.##.......",
"..#...aa...ccc..d.dddddddeeded..c...bbbaa.##......",
".##.aaa.a.cc...ddddddded.eedeed..c....bb...##.....",
"..#.a.a.a.c....ddd....ee..e.e.d..cc....bb..c#.....",
"..#aa.b.a.c..ddd..d.eee.e.e...dd..c.....bb.cc#....",
"..##a.aa..c..ddd..ee.eee.eeee.dd..dc.....b..c#....",
"...#a.aa.cc.ddd.ee.e.ee.eeeee.dd..dc......b.c#....",
"...aa.b.cc.ddddee.e...e..a..e.d.d.d.c....cb.c##...",
"..aa.bb.cc.dd.deeeeeeeeeea.ee.d..d.d.cc...cbc.#...",
"..##.b.ccc...dd..eeee..a.aa.eedd..dd..c...cbc..#..",
"..#..b.c.c..d.d..ee..aaaaaaaaea.dddd..c....bc..#..",
"..#..bcc.c.dd.dd.e...a.a...aaaa.d.ddd..c...cc..#..",
"..#..bc..c.ddddd.ee.aaaafff.aaa.addddd.c...cb.a#..",
"..#.bbc..cd.dd.d.ee..a.aff..aaaae...dd..c...b.a##.",
"..#.bcc.c...d.dde..aaaafff.aaa.a.e..ddd.c..cb.a.#.",
"..#bbc..c..ddd.ee.aa.a.fffa.aaaa.ae..ed.c..cb.a.#.",
"..#.bc..c.d.dd..ee.aaa.fffa.aaaaaa....d.eeecb.a.#.",
"..#.bc..c.dd.d.d...eaa...aaaaaa.aee..ed.ce.cb.a.#.",
"..#..c..c.d.dd.d..eeaaaaaa.aa.a.aae..d..ccc.b.a#..",
"..#..cc.c.ddd.d..e.aaaa.aaaaa.aa.....d.ccc..b.a#..",
"..#a.bc.c..dd...e.aaaaaaaaaaa.a.e......cc...b.a#..",
"..#.abc.c.ddd.de.aaaaaa.aa.aaaae...dddcc...bb..#..",
"..#.abcc.cdd....eaaaa.aa.aaa......dd.ccc...b...#..",
".##.ab.c.c...d.ee...ee.aaaaae...ddd.cc....bb..##..",
".#..ab..ccc..d.eeeeeeeeeeee....ddddcc....bb..##...",
".#..ab..ccc..ddd.d.dddee.e...dddddcc....b....#....",
".#..abb..cc.ddd.dddddd..d...ddd...c....bb..###....",
"..#.a.bb..cc......ddd.dd.dddd....c....bb..##......",
"..##a..bb..cc.....dd..ddd.......c....bb.###.......",
"...#a...b....cc...dd....dddd...c....bb..#.........",
"...#aaaabb.....ccc..d..d.ddd.cc....bb..##.........",
"....##.aabb......cccc....d..cc....bb.###..........",
".....##.aa.b........ccc...ccc..bbba..#............",
"......##.aaabb........ccccc...bb.aa.#.............",
".......#...a.bb..............bb.aa.##.............",
"........#......bbb...........b.aa..#..............",
"........######...bbbb......bbbaa.##...............",
".........#...#...a...bbbbbbb..a.##................",
"..............##..aa.aa.b....aa##.................",
"................##..aa......aa#...................",
".................############.....................",
".................................................."};
