/* XPM */
static char * bg11c_xpm[] = {
"30 30 152 2",
"  	c None",
". 	c #C0C000",
"+ 	c #C0BF00",
"@ 	c #BFC800",
"# 	c #BCD900",
"$ 	c #BBA000",
"% 	c #BB1C00",
"& 	c #C0C100",
"* 	c #BFC400",
"= 	c #BEC600",
"- 	c #BDC800",
"; 	c #C1BF00",
"> 	c #CAAD00",
", 	c #CE7300",
"' 	c #CD1300",
") 	c #BEC800",
"! 	c #BEC500",
"~ 	c #BFC300",
"{ 	c #BDCA00",
"] 	c #BAD200",
"^ 	c #B8DA00",
"/ 	c #C7AD00",
"( 	c #E74C00",
"_ 	c #F61200",
": 	c #F30100",
"< 	c #B8D900",
"[ 	c #BAD100",
"} 	c #BCCE00",
"| 	c #BBCE00",
"1 	c #BCCB00",
"2 	c #C1BC00",
"3 	c #CAA200",
"4 	c #CD9A00",
"5 	c #C9A400",
"6 	c #D87700",
"7 	c #F81300",
"8 	c #FF0000",
"9 	c #FA1300",
"0 	c #D97700",
"a 	c #CAA500",
"b 	c #CD9D00",
"c 	c #CE9900",
"d 	c #CE9800",
"e 	c #CE9600",
"f 	c #BFC200",
"g 	c #B8D700",
"h 	c #C6AD00",
"i 	c #E74A00",
"j 	c #F61C00",
"k 	c #F22600",
"l 	c #F51E00",
"m 	c #FE0400",
"n 	c #FF0400",
"o 	c #FA1E00",
"p 	c #F62A00",
"q 	c #F62800",
"r 	c #F72700",
"s 	c #F72300",
"t 	c #F71B00",
"u 	c #E74900",
"v 	c #B9D600",
"w 	c #D97400",
"x 	c #F91300",
"y 	c #FF0100",
"z 	c #FC0000",
"A 	c #F40100",
"B 	c #F20000",
"C 	c #F50000",
"D 	c #F70000",
"E 	c #F60000",
"F 	c #FB0000",
"G 	c #D70000",
"H 	c #CA0000",
"I 	c #CD0000",
"J 	c #CE0000",
"K 	c #CB0000",
"L 	c #D90000",
"M 	c #BBCF00",
"N 	c #CE9500",
"O 	c #F71700",
"P 	c #F30000",
"Q 	c #B70000",
"R 	c #BA0000",
"S 	c #BC0000",
"T 	c #C90000",
"U 	c #F20100",
"V 	c #CC9A00",
"W 	c #BD0000",
"X 	c #BF0000",
"Y 	c #F81400",
"Z 	c #F90000",
"` 	c #E70000",
" .	c #C00000",
"..	c #FA0000",
"+.	c #F61E00",
"@.	c #C7AC00",
"#.	c #C60000",
"$.	c #C10000",
"%.	c #C70000",
"&.	c #D80000",
"*.	c #FA1400",
"=.	c #E64B00",
"-.	c #C9A300",
";.	c #BCCD00",
">.	c #C9A500",
",.	c #F12A00",
"'.	c #FE0000",
").	c #E60000",
"!.	c #B90000",
"~.	c #BE0000",
"{.	c #B80000",
"].	c #F10100",
"^.	c #F51F00",
"/.	c #CD9900",
"(.	c #CC9D00",
"_.	c #F22800",
":.	c #F22700",
"<.	c #CC9B00",
"[.	c #F10000",
"}.	c #BB0000",
"|.	c #F12B00",
"1.	c #CC9C00",
"2.	c #CC0000",
"3.	c #F22A00",
"4.	c #BBD000",
"5.	c #F52800",
"6.	c #CE9A00",
"7.	c #F32700",
"8.	c #E50000",
"9.	c #C80000",
"0.	c #B60000",
"a.	c #F62700",
"b.	c #D60000",
"c.	c #C20000",
"d.	c #B50000",
"e.	c #F80000",
"f.	c #D50000",
"g.	c #BFC500",
"h.	c #CD9800",
"i.	c #F32300",
"j.	c #F91400",
"k.	c #F61B00",
"l.	c #C6AC00",
"m.	c #BEC700",
"n.	c #F51D00",
"o.	c #F91E00",
"p.	c #E84700",
"q.	c #CBA500",
"r.	c #C2B900",
"s.	c #CAA100",
"t.	c #C1BE00",
"u.	c #C2B800",
"    . . . . + @ # $ % % $ # @ + . . . . . . . .             ",
"    . & * = - ; > , ' ' , > ; ) = * * ! ! * & .             ",
"    + ~ { ] ^ / ( _ : : _ ( / < [ } } | | 1 ~ + . .         ",
"    - 2 3 4 5 6 7 8 8 8 8 9 0 a b c c d e 3 2 = f .         ",
"+ - g h i j k l m 8 8 8 8 n o p q r r s t u h v = + . . . . ",
"~ 2 h w x 8 8 8 8 y 8 z A B C D D E E F 8 9 w h 2 ~ & . . . ",
"{ 3 i x y 8 8 8 8 8 8 C G H I J J I K L D y 9 u 3 1 * . . . ",
"M N O 8 8 y 8 8 8 8 8 P H Q R S S R Q T U 8 8 j V ] = . . . ",
"M N O 8 8 y 8 8 8 8 8 E I R W X X W R I E 8 8 k 5 ^ - + . . ",
"1 3 u Y m 8 8 8 8 8 Z ` H S X  . .X S H ` ..8 +.6 @.2 ~ & . ",
"~ 2 @.6 l 8 8 8 8 Z L #.$.X  . . . .X $.%.&.E n *.=.-.;.    ",
"+ ) < >.,.8 8 '.Z ).#.!.~. . . . . . .~.{.T ].8 8 ^./.]     ",
". = [ (._.8 8 C &.#. .~.X  . . . . . .~.R K B 8 8 :.<.[     ",
". * } /.:.8 8 [.T {.~. . . . . . . . .~.}.I P 8 8 |.1.[     ",
". * } /.:.8 8 B 2.R ~. . . . . . . . .~.}.J E 8 8 |.1.[     ",
". * } /.:.8 8 P I }.~. . . . . . . . .X S H ` ..8 3.<.4.    ",
". * } /.:.8 8 E J }.~. . . . . . . . . .X $.%.L ..5.6.| ! . ",
". * } /.7.8 Z 8.9.}.X  . . . . . . . . .X S 0.T C r c ;.* . ",
". * } c a.Z b.c.W S X  . . . . . . . .X W !.d.T C r c ;.* . ",
". * } c a.e.f.#.2.H $.~.X  . . . .X ~.$.H I T L F s d | g.. ",
". * } /.7.8 C [.C ` #.!.~. . . . .~.!.#.` E U D 8 t e | g.. ",
". ! | h.i.8 8 8 8 Z L #. .~.~.~.~. .#.L Z 8 8 n j.u 3 1 * . ",
". ! | e k.8 8 y 8 8 Z ).#.{.R R {.#.).Z 8 8 8 +.6 l.2 ~     ",
". * 1 3 u Y m 8 8 8 8 Z L K I I H L ..8 8 8 8 k 5 < m.+     ",
". & ~ 2 @.6 l 8 8 8 y 8 Z E E E E ..8 8 8 8 8 n.V ] ! .     ",
". . + m.< 5 k 8 8 8 8 m o.p q r r a.7.:.:.i.j p.3 1 * .     ",
"    . ! ] V n.8 8 8 8 j.0 q.b c c c /././.h.e 3 r.~         ",
"    . * 1 s.p.j i.i.k.u @.< [ } } } } } } | | 1 ~ t.        ",
"        ~ u.s.e h.h.e 3 2 ) = * * * * * * g.g.*             ",
"        + ~ { | | | | 1 ~ + . . . . . . . . . .             "};
