/* XPM */
static char * bg12r_xpm[] = {
"22 22 43 1",
" 	c None",
".	c #C0FFC0",
"+	c #C1FFC0",
"@	c #BFFFC0",
"#	c #C3FFBF",
"$	c #CDFFBC",
"%	c #D3FFBA",
"&	c #C9FFBD",
"*	c #BBFFC2",
"=	c #A3FFCA",
"-	c #9BFFCC",
";	c #CEFFBC",
">	c #D2FFBA",
",	c #D1FFBA",
"'	c #D5FFB9",
")	c #DAFFB7",
"!	c #A8FFC8",
"~	c #42FFE9",
"{	c #3DFFEB",
"]	c #A6FFC8",
"^	c #E5FFB4",
"/	c #B8FFC3",
"(	c #A0FFCB",
"_	c #94FFCE",
":	c #96FFCE",
"<	c #97FFCD",
"[	c #98FFCD",
"}	c #9AFFCC",
"|	c #A0FFCA",
"1	c #6FFFDA",
"2	c #07FFFD",
"3	c #0DFFFB",
"4	c #75FFD8",
"5	c #CBFFBC",
"6	c #9FFFCB",
"7	c #3EFFEB",
"8	c #12FFF9",
"9	c #1AFFF7",
"0	c #1DFFF5",
"a	c #1EFFF5",
"b	c #1CFFF6",
"c	c #00FFFF",
"d	c #0CFFFB",
"                      ",
"                      ",
"                      ",
"                      ",
"              ..      ",
"              .+      ",
"              @#$%    ",
"              &*=-    ",
"@#;>,,,,,,,,,')!~{]^  ",
"#/(_:<<<<<<<[}|1234]  ",
"567890000000a0b8ccd{-;",
"567890000000a0b8ccd{-;",
"#/(_:<<<<<<<[}|1234]  ",
"@#;>,,,,,,,,,')!~{]^  ",
"              &*=-    ",
"              @#$%    ",
"              .+      ",
"              ..      ",
"                      ",
"                      ",
"                      ",
"                      "};
