/* XPM */
static char*bg12r[]={
"11 11 3 1",
"a c #00ffff",
"# c #c0ffc0",
". c None",
"...........",
"...........",
".......#...",
".......##..",
"########a#.",
"#aaaaaaaaa#",
"########a#.",
".......##..",
".......#...",
"...........",
"..........."};
