/* XPM */
static char * bg12l_xpm[] = {
"22 22 43 1",
" 	c None",
".	c #C0FFC0",
"+	c #C1FFC0",
"@	c #D3FFBA",
"#	c #CDFFBC",
"$	c #C3FFBF",
"%	c #BFFFC0",
"&	c #9BFFCC",
"*	c #A3FFCA",
"=	c #BBFFC2",
"-	c #C9FFBD",
";	c #E5FFB4",
">	c #A6FFC8",
",	c #3DFFEB",
"'	c #42FFE9",
")	c #A8FFC8",
"!	c #DAFFB7",
"~	c #D5FFB9",
"{	c #D1FFBA",
"]	c #D2FFBA",
"^	c #CEFFBC",
"/	c #75FFD8",
"(	c #0DFFFB",
"_	c #07FFFD",
":	c #6FFFDA",
"<	c #A0FFCA",
"[	c #9AFFCC",
"}	c #98FFCD",
"|	c #97FFCD",
"1	c #96FFCE",
"2	c #94FFCE",
"3	c #A0FFCB",
"4	c #B8FFC3",
"5	c #0CFFFB",
"6	c #00FFFF",
"7	c #12FFF9",
"8	c #1CFFF6",
"9	c #1DFFF5",
"0	c #1EFFF5",
"a	c #1AFFF7",
"b	c #3EFFEB",
"c	c #9FFFCB",
"d	c #CBFFBC",
"                      ",
"                      ",
"                      ",
"                      ",
"      ..              ",
"      +.              ",
"    @#$%              ",
"    &*=-              ",
"  ;>,')!~{{{{{{{{{]^$%",
"  >/(_:<[}|||||||1234$",
"^&,56678909999999a7bcd",
"^&,56678909999999a7bcd",
"  >/(_:<[}|||||||1234$",
"  ;>,')!~{{{{{{{{{]^$%",
"    &*=-              ",
"    @#$%              ",
"      +.              ",
"      ..              ",
"                      ",
"                      ",
"                      ",
"                      "};
