/* XPM */
static char*bg13d[]={
"11 11 3 1",
"a c #00ffff",
"# c #c0ffc0",
". c None",
"....###....",
"....#a#....",
"....#a#....",
"....#a#....",
"....#a#....",
"....#a#....",
"....#a#....",
"..###a###..",
"...#aaa#...",
"....#a#....",
".....#....."};
