/* XPM */
static char*bg13u[]={
"11 11 3 1",
"a c #00ffff",
"# c #c0ffc0",
". c None",
".....#.....",
"....#a#....",
"...#aaa#...",
"..###a###..",
"....#a#....",
"....#a#....",
"....#a#....",
"....#a#....",
"....#a#....",
"....#a#....",
"....###...."};
