/* XPM */
static char * bg13d_xpm[] = {
"22 22 43 1",
" 	c None",
".	c #BFFFC0",
"+	c #C3FFBF",
"@	c #CBFFBC",
"#	c #B8FFC3",
"$	c #9FFFCB",
"%	c #CEFFBC",
"&	c #A0FFCB",
"*	c #3EFFEB",
"=	c #D2FFBA",
"-	c #94FFCE",
";	c #12FFF9",
">	c #D1FFBA",
",	c #96FFCE",
"'	c #1AFFF7",
")	c #97FFCD",
"!	c #1DFFF5",
"~	c #98FFCD",
"{	c #1EFFF5",
"]	c #D5FFB9",
"^	c #9AFFCC",
"/	c #C0FFC0",
"(	c #C9FFBD",
"_	c #DAFFB7",
":	c #A0FFCA",
"<	c #1CFFF6",
"[	c #C1FFC0",
"}	c #BBFFC2",
"|	c #A8FFC8",
"1	c #6FFFDA",
"2	c #CDFFBC",
"3	c #A3FFCA",
"4	c #42FFE9",
"5	c #07FFFD",
"6	c #00FFFF",
"7	c #D3FFBA",
"8	c #9BFFCC",
"9	c #3DFFEB",
"0	c #0DFFFB",
"a	c #A6FFC8",
"b	c #75FFD8",
"c	c #0CFFFB",
"d	c #E5FFB4",
"        .+@@+.        ",
"        +#$$#+        ",
"        %&**&%        ",
"        =-;;-=        ",
"        >,'',>        ",
"        >)!!)>        ",
"        >)!!)>        ",
"        >)!!)>        ",
"        >)!!)>        ",
"        >)!!)>        ",
"        >)!!)>        ",
"        >)!!)>        ",
"        >~{{~>        ",
"        ]^!!^]        ",
"    //.(_:<<:_(.//    ",
"    /[+}|1;;1|}+[/    ",
"      2345665432      ",
"      7890660987      ",
"        abccba        ",
"        da99ad        ",
"          88          ",
"          %%          "};
