/* XPM */
static char * bg13u_xpm[] = {
"22 22 43 1",
" 	c None",
".	c #CEFFBC",
"+	c #9BFFCC",
"@	c #E5FFB4",
"#	c #A6FFC8",
"$	c #3DFFEB",
"%	c #75FFD8",
"&	c #0CFFFB",
"*	c #D3FFBA",
"=	c #0DFFFB",
"-	c #00FFFF",
";	c #CDFFBC",
">	c #A3FFCA",
",	c #42FFE9",
"'	c #07FFFD",
")	c #C0FFC0",
"!	c #C1FFC0",
"~	c #C3FFBF",
"{	c #BBFFC2",
"]	c #A8FFC8",
"^	c #6FFFDA",
"/	c #12FFF9",
"(	c #BFFFC0",
"_	c #C9FFBD",
":	c #DAFFB7",
"<	c #A0FFCA",
"[	c #1CFFF6",
"}	c #D5FFB9",
"|	c #9AFFCC",
"1	c #1DFFF5",
"2	c #D1FFBA",
"3	c #98FFCD",
"4	c #1EFFF5",
"5	c #97FFCD",
"6	c #96FFCE",
"7	c #1AFFF7",
"8	c #D2FFBA",
"9	c #94FFCE",
"0	c #A0FFCB",
"a	c #3EFFEB",
"b	c #B8FFC3",
"c	c #9FFFCB",
"d	c #CBFFBC",
"          ..          ",
"          ++          ",
"        @#$$#@        ",
"        #%&&%#        ",
"      *+$=--=$+*      ",
"      ;>,'--',>;      ",
"    )!~{]^//^]{~!)    ",
"    ))(_:<[[<:_())    ",
"        }|11|}        ",
"        234432        ",
"        251152        ",
"        251152        ",
"        251152        ",
"        251152        ",
"        251152        ",
"        251152        ",
"        251152        ",
"        267762        ",
"        89//98        ",
"        .0aa0.        ",
"        ~bccb~        ",
"        (~dd~(        "};
