/* XPM */
static char * bg15s2_xpm[] = {
"10 10 2 1",
" 	c None",
".	c #0000FF",
"  ......  ",
"  ......  ",
"..........",
"..........",
"..........",
"..........",
"..........",
"..........",
"  ......  ",
"  ......  "};
