/* XPM */
static char*bg15s1[]={
"16 16 3 1",
"# c #0000ff",
". c None",
"a c #ffffff",
"................",
".....#######....",
"....#########...",
"...###aaaaa###..",
"..###a.....a###.",
".a##a........##.",
".a#############.",
".a#############.",
".a############..",
"..###a..........",
"..a###a.........",
"...####a....#a..",
"...aa########a..",
".....a######a...",
"................",
"................"};
