/* XPM */
static char * bg15s1_xpm[] = {
"32 32 65 1",
" 	c None",
".	c #0000FF",
"+	c #0101FF",
"@	c #0707FF",
"#	c #2C2CFF",
"$	c #3D3DFF",
"%	c #3A3AFF",
"&	c #3838FF",
"*	c #1D1DFF",
"=	c #A3A3FF",
"-	c #DDDDFF",
";	c #D4D4FF",
">	c #CFCFFF",
",	c #0303FF",
"'	c #2020FF",
")	c #6161FF",
"!	c #E1E1FF",
"~	c #FFFFFF",
"{	c #2121FF",
"]	c #0808FF",
"^	c #0202FF",
"/	c #A4A4FF",
"(	c #E4E4FF",
"_	c #A6A6FF",
":	c #2D2DFF",
"<	c #0D0DFF",
"[	c #2222FF",
"}	c #6767FF",
"|	c #EAEAFF",
"1	c #E9E9FF",
"2	c #4141FF",
"3	c #C4C4FF",
"4	c #2E2EFF",
"5	c #3030FF",
"6	c #B1B1FF",
"7	c #F7F7FF",
"8	c #D1D1FF",
"9	c #3B3BFF",
"0	c #3232FF",
"a	c #B6B6FF",
"b	c #D0D0FF",
"c	c #3939FF",
"d	c #3333FF",
"e	c #0A0AFF",
"f	c #2A2AFF",
"g	c #2F2FFF",
"h	c #DFDFFF",
"i	c #AAAAFF",
"j	c #D5D5FF",
"k	c #A5A5FF",
"l	c #0404FF",
"m	c #6565FF",
"n	c #E3E3FF",
"o	c #3535FF",
"p	c #CACAFF",
"q	c #3434FF",
"r	c #A8A8FF",
"s	c #D7D7FF",
"t	c #CBCBFF",
"u	c #CECEFF",
"v	c #D3D3FF",
"w	c #0909FF",
"x	c #1010FF",
"y	c #CDCDFF",
"z	c #3E3EFF",
"                                ",
"                                ",
"          ..............        ",
"          ..............        ",
"        ..+............+..      ",
"        ...@#$%&&&&%$#@...      ",
"      ..+..*=-;>>>>;-=*..+..    ",
"      +..,')!~~~~~~~~!){]...    ",
"    .^^..'/(          (_:.....  ",
"    <..][}|~          ~12.....  ",
"  ~34..567                ....  ",
"  ~89..0a(                +...  ",
"  ~bc..<0de..+......+....+....  ",
"  ~>&......+..................  ",
"  ~>&.........................  ",
"  ~bc.........................  ",
"  ~89...+....+..............    ",
"  ~3f....<0de..+............    ",
"    .....0a(                    ",
"    cg<..567                    ",
"    hi5..][}|~                  ",
"    ~j4....'k(                  ",
"      .....l'mn~        .op~    ",
"      q9$#]..[rs        .0t~    ",
"      uv-=*..w5qx....+^..#y~    ",
"      ~~~!)[w....+.....][)v~    ",
"          (_:..........#_n      ",
"          ~!z..........z!~      ",
"                                ",
"                                ",
"                                ",
"                                "};
