/* XPM */
static char*bg2[]={
"16 16 3 1",
"# c #ffa858",
"a c #ffff00",
". c None",
"................",
"..#.......##....",
"..####..###.....",
".....#..#.......",
"....#######.###.",
"....#aa#aa#.#...",
"#####aa#aa###...",
"....#######.....",
"....#######.....",
"....#a###a#.....",
"....##aaa##.....",
"...##.###.##....",
"..##.......##...",
".##.........##..",
".#..............",
"................"};
