/* XPM */
static char * bg2_xpm[] = {
"32 32 53 1",
" 	c None",
".	c #FFA858",
"+	c #FFA65A",
"@	c #FFA65B",
"#	c #FFA55B",
"$	c #FFA957",
"%	c #FFA759",
"&	c #FFA35D",
"*	c #FFA15F",
"=	c #FFA060",
"-	c #FFA25E",
";	c #FFAB55",
">	c #FFB64A",
",	c #FFBB45",
"'	c #FFBA45",
")	c #FFB54B",
"!	c #FFAA56",
"~	c #FFDE22",
"{	c #FFF40C",
"]	c #FFF20D",
"^	c #FFDC23",
"/	c #FFB14F",
"(	c #FFDD22",
"_	c #FFDD23",
":	c #FFFF00",
"<	c #FFF20E",
"[	c #FFDF20",
"}	c #FFF40B",
"|	c #FFBB44",
"1	c #FFA25F",
"2	c #FFA061",
"3	c #FFA45C",
"4	c #FFAC54",
"5	c #FFB947",
"6	c #FFB848",
"7	c #FFE817",
"8	c #FFB44C",
"9	c #FF9C64",
"0	c #FFB748",
"a	c #FFE51A",
"b	c #FFEC13",
"c	c #FFC937",
"d	c #FFAA55",
"e	c #FFB34D",
"f	c #FFC739",
"g	c #FFE818",
"h	c #FFF807",
"i	c #FFF50A",
"j	c #FF9B65",
"k	c #FFE41B",
"l	c #FFF609",
"m	c #FFF30C",
"n	c #FFB946",
"                                ",
"                                ",
"    ..              ....        ",
"    ..              ....        ",
"    ........    ......          ",
"    ........    ......          ",
"          ..    ..              ",
"          +@    +#              ",
"        $%&*=-%%&*=-+$  ......  ",
"        %;>,')!!>,');+  ......  ",
"        -)~{]^//({]_)-  ..      ",
"        =']::<))<::]'=  ..      ",
".......@*,{::<))<::{,*#...      ",
".......+&>[}}~//~}}[>&+...      ",
"        %;>||>!!>||>;%          ",
"        $+12*&%%&*21+$          ",
"        $+*=3%..%3=*+$          ",
"        +455;3##3;554+          ",
"        *67789==98776*          ",
"        *0abc6''6cba0*          ",
"        +defghiihgfed+          ",
"        .#j8klmmlk8j#.          ",
"      ...%  n,,,,n  %...        ",
"      ....  ======  ....        ",
"    ....              ....      ",
"    ....              ....      ",
"  ....                  ....    ",
"  ....                  ....    ",
"  ..                            ",
"  ..                            ",
"                                ",
"                                "};
