/* XPM */
static char * bg8r2_xpm[] = {
"32 32 2 1",
" 	c None",
".	c #FFFFC0",
"                                ",
"                                ",
"                  ..            ",
"                  ..            ",
"                    ..          ",
"                    ..          ",
"      ......          ..        ",
"      ......          ..        ",
"    ..      ..        ..        ",
"    ..      ..        ..        ",
"  ..          ..      ..        ",
"  ..          ..      ..        ",
"..          ..  ..  ..          ",
"..          ..  ..  ..          ",
"          ..      ..            ",
"          ..      ..            ",
"        ..  ..  ..          ..  ",
"        ..  ..  ..          ..  ",
"      ..      ..          ..    ",
"      ..      ..          ..    ",
"      ..        ..      ..      ",
"      ..        ..      ..      ",
"      ..          ......        ",
"      ..          ......        ",
"        ..                      ",
"        ..                      ",
"          ..                    ",
"          ..                    ",
"            ..                  ",
"            ..                  ",
"                                ",
"                                "};
