/* XPM */
static char * bomb2_xpm[] = {
"32 32 63 1",
" 	c None",
".	c #FFFF00",
"+	c #0000FF",
"@	c #FDFD02",
"#	c #FBFB04",
"$	c #FEFE01",
"%	c #0B0BF4",
"&	c #0202FD",
"*	c #C2C23D",
"=	c #CBCB34",
"-	c #0404FB",
";	c #1F1FE0",
">	c #2828D7",
",	c #1414D8",
"'	c #1414D9",
")	c #5A5A54",
"!	c #545461",
"~	c #484876",
"{	c #535361",
"]	c #5A5A55",
"^	c #585857",
"/	c #585858",
"(	c #BEBE41",
"_	c #585859",
":	c #595956",
"<	c #5D5D4E",
"[	c #585854",
"}	c #565657",
"|	c #565656",
"1	c #595957",
"2	c #595954",
"3	c #545453",
"4	c #535353",
"5	c #525252",
"6	c #515151",
"7	c #575757",
"8	c #5B5B5B",
"9	c #656565",
"0	c #696969",
"a	c #676767",
"b	c #666666",
"c	c #545454",
"d	c #8A8A8A",
"e	c #9A9A9A",
"f	c #949494",
"g	c #929292",
"h	c #939393",
"i	c #868686",
"j	c #505052",
"k	c #646464",
"l	c #898989",
"m	c #9E9E9E",
"n	c #A5A5A5",
"o	c #A9A9A9",
"p	c #ACACAC",
"q	c #5A5A5A",
"r	c #616161",
"s	c #767676",
"t	c #9B9B9B",
"u	c #575759",
"v	c #505050",
"w	c #5F5F5F",
"x	c #838383",
"                      ..      ..",
"                      ..      ..",
"            ++++++        ..    ",
"            ++++++        ..    ",
"          ++      ++  .@  ..    ",
"          ++      ++  #.  .$    ",
"          ++        +%  ..  $.  ",
"          ++        &+  *=  ..  ",
"          ++          +-;>      ",
"          ,'          +-;>      ",
"        )!~~{]^/        (=  ..  ",
"        _:<<[}}|        ..  $.  ",
"      ///1]2344456    ..  .$    ",
"      ////7890abb9    ..  ..    ",
"    /////7c9defghi9j          ..",
"    /////7cklmnophb5          ..",
"  ////////7qrstpogb4|u          ",
"  /////////|vwxtnfa4|/          ",
"  /////////7|/wsme04|/          ",
"  ///////////|vrld9c7/          ",
"  ///////////7|qk987//          ",
"  /////////////7cc7///          ",
"  //////////////77////          ",
"  ////////////////////          ",
"    ////////////////            ",
"    ////////////////            ",
"      ////////////              ",
"      ////////////              ",
"        ////////                ",
"        ////////                ",
"                                ",
"                                "};
