/* XPM */
static char*bomb1[]={
"16 16 5 1",
"c c #a0a0a0",
"a c #ffff00",
"# c #0000ff",
". c None",
"b c #585858",
"................",
"......###...a...",
".....#...#...aa.",
".....#....#.a...",
".....#.....##.a.",
"....bbbb.....a..",
"...bbbbbb.....a.",
"..bbbbcccb......",
".bbbbbbccbb.....",
".bbbbbbbcbb.....",
".bbbbbbbbbb.....",
".bbbbbbbbbb.....",
"..bbbbbbbb......",
"...bbbbbb.......",
"....bbbb........",
"................"};
