/* XPM */
static char*bomb2[]={
"16 16 5 1",
"c c #a0a0a0",
"# c #ffff00",
"a c #0000ff",
". c None",
"b c #585858",
"...........#...#",
"......aaa....#..",
".....a...a.#.#..",
".....a....a.#.#.",
".....a.....aa...",
"....bbbb....#.#.",
"...bbbbbb..#.#..",
"..bbbbcccb.....#",
".bbbbbbccbb.....",
".bbbbbbbcbb.....",
".bbbbbbbbbb.....",
".bbbbbbbbbb.....",
"..bbbbbbbb......",
"...bbbbbb.......",
"....bbbb........",
"................"};
