/* XPM */
static char * bomb1_xpm[] = {
"32 32 58 1",
" 	c None",
".	c #0000FF",
"+	c #FFFF00",
"@	c #C4C43B",
"#	c #CCCC33",
"$	c #0E0EF1",
"%	c #2D2DD2",
"&	c #2F2FD0",
"*	c #1414D8",
"=	c #1414D9",
"-	c #0202FD",
";	c #5A5A54",
">	c #545461",
",	c #484876",
"'	c #535361",
")	c #5A5A55",
"!	c #585857",
"~	c #585858",
"{	c #F0F00F",
"]	c #585859",
"^	c #595956",
"/	c #5D5D4E",
"(	c #585854",
"_	c #565657",
":	c #565656",
"<	c #FDFD02",
"[	c #595957",
"}	c #595954",
"|	c #545453",
"1	c #535353",
"2	c #525252",
"3	c #515151",
"4	c #575757",
"5	c #5B5B5B",
"6	c #656565",
"7	c #696969",
"8	c #676767",
"9	c #666666",
"0	c #545454",
"a	c #8A8A8A",
"b	c #9A9A9A",
"c	c #949494",
"d	c #929292",
"e	c #939393",
"f	c #868686",
"g	c #646464",
"h	c #898989",
"i	c #9E9E9E",
"j	c #A5A5A5",
"k	c #A9A9A9",
"l	c #ACACAC",
"m	c #5A5A5A",
"n	c #616161",
"o	c #767676",
"p	c #9B9B9B",
"q	c #505050",
"r	c #5F5F5F",
"s	c #838383",
"                                ",
"                                ",
"            ......      ++      ",
"            ......      ++      ",
"          ..      ..      ++++  ",
"          ..      ..      ++++  ",
"          ..        ..  ++      ",
"          ..        ..  @#      ",
"          ..          .$%&  ++  ",
"          *=          -...  ++  ",
"        ;>,,')!~          {+    ",
"        ]^//(__:          +<    ",
"      ~~~[)}|11123          ++  ",
"      ~~~~45678996          ++  ",
"    ~~~~~406abcdef63            ",
"    ~~~~~40ghijkle92            ",
"  ~~~~~~~~4mnoplkd91:~          ",
"  ~~~~~~~~~:qrspjc81:~          ",
"  ~~~~~~~~~4:~roib71:~          ",
"  ~~~~~~~~~~~:qnha604~          ",
"  ~~~~~~~~~~~4:mg654~~          ",
"  ~~~~~~~~~~~~~4004~~~          ",
"  ~~~~~~~~~~~~~~44~~~~          ",
"  ~~~~~~~~~~~~~~~~~~~~          ",
"    ~~~~~~~~~~~~~~~~            ",
"    ~~~~~~~~~~~~~~~~            ",
"      ~~~~~~~~~~~~              ",
"      ~~~~~~~~~~~~              ",
"        ~~~~~~~~                ",
"        ~~~~~~~~                ",
"                                ",
"                                "};
