/* XPM */
static char*power1[]={
"16 16 4 1",
"# c #c0c0c0",
"b c #ffff00",
"a c #ffffc0",
". c None",
".....#####......",
"...##.aaaa##....",
"..#.aa....aa#...",
".#.a........a#..",
".#a....bb....a#.",
"#.a....bb....a#.",
"#a.....bb.....a#",
"#a..bbbbbbbb..a#",
"#a..bbbbbbbb..a#",
"#a.....bb.....a#",
".#a....bb....a.#",
".#a....bb....a#.",
"..#a........a.#.",
"...#aa....aa.#..",
"....##aaaa.##...",
"......#####....."};
