/* XPM */
static char * bonus2_xpm[] = {
"32 32 37 1",
" 	c None",
".	c #C0C0C0",
"+	c #BFBFC0",
"@	c #BDBDC0",
"#	c #BBBBC0",
"$	c #BCBCC0",
"%	c #C2C2C0",
"&	c #CBCBC0",
"*	c #CFCFC0",
"=	c #CECEC0",
"-	c #CDCDC0",
";	c #B6B6C0",
">	c #F1F1C0",
",	c #F4F4C0",
"'	c #F3F3C0",
")	c #F6F6C0",
"!	c #EAEAC0",
"~	c #C9C9C0",
"{	c #B5B5C0",
"]	c #B9B9C0",
"^	c #BABAC0",
"/	c #CACAC0",
"(	c #D0D0C0",
"_	c #FFFFC0",
":	c #D6D6C0",
"<	c #CCCCC0",
"[	c #EFEFC0",
"}	c #F5F5C0",
"|	c #FDFDC0",
"1	c #E8E8C0",
"2	c #C8C8C0",
"3	c #B3B3C0",
"4	c #C1C1C0",
"5	c #FFFEC0",
"6	c #FEFEC0",
"7	c #E9E9C0",
"8	c #FF00FF",
"          .+@##$$$$#            ",
"          $%&*=====-            ",
"      .+$;  >,''',)!~{]^        ",
"      @%/(  _______):/<<        ",
"    .@  [}|_        ''}123      ",
"    @4  ___5        ___}:~      ",
"  .@  6_                )7~3    ",
"  +%  __                _):2    ",
"  $/[_        8888        }1<^  ",
"  ;(}_        8888        _}<]  ",
".$  |_        8888        _'/{  ",
"+%  _5        8888        _':~  ",
"@&>_          8888          )!-#",
"#*,_          8888          _)=$",
"#='_    8888888888888888    _,=$",
"$='_    8888888888888888    _'=$",
"$='_    8888888888888888    _'=$",
"$=,_    8888888888888888    _'=#",
"$=)_          8888          _,*#",
"#-!)          8888          _>&@",
"  ~:'_        8888        5_  %+",
"  {/'_        8888        _|  $.",
"  ]<}_        8888        _}(;  ",
"  ^<1}        8888        _[/$  ",
"    2:)_                __  %+  ",
"    3~7)                _6  @.  ",
"      ~:}___        5___  4@    ",
"      321}''        _|}[  @.    ",
"        <</:)_______  (/%@      ",
"        ^]{~!),''',>  ;$+.      ",
"            -=====*&%$          ",
"            #$$$$##@+.          "};
