/* XPM */
static char*dbg1[]={
"16 16 6 1",
"b c #008000",
"c c #000000",
". c None",
"a c #00c000",
"d c #c000c0",
"# c #ff0000",
".......#........",
"...........#....",
".#...abbbba.....",
"..#.ababbbab.###",
"..##bbba##b##b..",
"..a#ab#bb#baab..",
".cd#########bab.",
"acca##b#########",
"aaaaa##bbb##aabb",
".bbbba######bab.",
"..aabbbbbb##bba.",
"..aab#aabb###aa.",
"..aa##....###a#.",
"...a#....##.#a#.",
"..###a......aa##",
"..##...........#"};
