/* XPM */
static char * dbg12_xpm[] = {
"32 32 273 2",
"  	c None",
". 	c #FF0000",
"+ 	c #FE0000",
"@ 	c #E50E0E",
"# 	c #734A4A",
"$ 	c #3F6565",
"% 	c #476161",
"& 	c #4F5D5D",
"* 	c #565959",
"= 	c #595757",
"- 	c #FD0101",
"; 	c #EA0B0B",
"> 	c #C81D1D",
", 	c #913A3A",
"' 	c #784747",
") 	c #7F4444",
"! 	c #754949",
"~ 	c #5C5656",
"{ 	c #FE0101",
"] 	c #8D3C3C",
"^ 	c #D01919",
"/ 	c #F40606",
"( 	c #F60505",
"_ 	c #6C4E4E",
": 	c #3D6666",
"< 	c #396868",
"[ 	c #E80C0C",
"} 	c #E40E0E",
"| 	c #794646",
"1 	c #4B5F5F",
"2 	c #FA0303",
"3 	c #316C6C",
"4 	c #675050",
"5 	c #C32020",
"6 	c #F20707",
"7 	c #F00808",
"8 	c #CF1919",
"9 	c #903B3B",
"0 	c #6F4C4C",
"a 	c #6C4D4D",
"b 	c #963737",
"c 	c #ED0A0A",
"d 	c #824242",
"e 	c #456262",
"f 	c #E30F0F",
"g 	c #774848",
"h 	c #336B6B",
"i 	c #406565",
"j 	c #515C5C",
"k 	c #6A4F4F",
"l 	c #883F3F",
"m 	c #DA1313",
"n 	c #E20F0F",
"o 	c #FB0202",
"p 	c #973737",
"q 	c #774747",
"r 	c #704B4B",
"s 	c #6B4E4E",
"t 	c #665050",
"u 	c #EC0A0A",
"v 	c #F70404",
"w 	c #DF1111",
"x 	c #DB1313",
"y 	c #D91414",
"z 	c #E01010",
"A 	c #7E4444",
"B 	c #F90303",
"C 	c #EB0B0B",
"D 	c #D71515",
"E 	c #E11010",
"F 	c #864040",
"G 	c #873F3F",
"H 	c #834141",
"I 	c #E21010",
"J 	c #DE1111",
"K 	c #814242",
"L 	c #844141",
"M 	c #DE1212",
"N 	c #E40F0F",
"O 	c #E00F0F",
"P 	c #F60000",
"Q 	c #8C3E3E",
"R 	c #8B3939",
"S 	c #E00202",
"T 	c #D81414",
"U 	c #E01111",
"V 	c #D91313",
"W 	c #614F4F",
"X 	c #605F5F",
"Y 	c #D64444",
"Z 	c #FF3737",
"` 	c #FF3A3A",
" .	c #FF3636",
"..	c #814343",
"+.	c #DD1212",
"@.	c #E00B0B",
"#.	c #634343",
"$.	c #608181",
"%.	c #D5C6C6",
"&.	c #FFEAEA",
"*.	c #FFEDED",
"=.	c #FFB1B1",
"-.	c #FF2222",
";.	c #7F4343",
">.	c #C01C1C",
",.	c #833232",
"'.	c #8F6868",
").	c #E5BEBE",
"!.	c #FFE9E9",
"~.	c #FFE8E8",
"{.	c #FFB0B0",
"].	c #FF4E4E",
"^.	c #744949",
"/.	c #C22020",
"(.	c #854040",
"_.	c #794545",
":.	c #C01D1D",
"<.	c #EE1515",
"[.	c #FF2C2C",
"}.	c #FF3030",
"|.	c #FF2020",
"1.	c #FE4B4B",
"2.	c #FEA8A8",
"3.	c #FFD7D7",
"4.	c #366A6A",
"5.	c #6E4D4D",
"6.	c #804343",
"7.	c #854141",
"8.	c #EB0C0C",
"9.	c #E40000",
"0.	c #DD0505",
"a.	c #F61010",
"b.	c #FF5E5E",
"c.	c #FFE7E7",
"d.	c #F6FFFF",
"e.	c #346B6B",
"f.	c #6D4D4D",
"g.	c #DA1414",
"h.	c #E40808",
"i.	c #832D2D",
"j.	c #816868",
"k.	c #DEB8B8",
"l.	c #FFEEEE",
"m.	c #FFFFFF",
"n.	c #E0E8E8",
"o.	c #7E8080",
"p.	c #454444",
"q.	c #7A4646",
"r.	c #953737",
"s.	c #E20A0A",
"t.	c #DD0D0D",
"u.	c #813333",
"v.	c #816D6D",
"w.	c #DEBABA",
"x.	c #D8E1E1",
"y.	c #737A7A",
"z.	c #474D4D",
"A.	c #EC0606",
"B.	c #FA0000",
"C.	c #FF0101",
"D.	c #F60404",
"E.	c #DE0F0F",
"F.	c #DE1414",
"G.	c #F61414",
"H.	c #FF5D5D",
"I.	c #FFEFEF",
"J.	c #D9FCFC",
"K.	c #6F8787",
"L.	c #425050",
"M.	c #515555",
"N.	c #F90202",
"O.	c #EB0707",
"P.	c #EC1616",
"Q.	c #FA3030",
"R.	c #FF2B2B",
"S.	c #FF0606",
"T.	c #FF1313",
"U.	c #FF4F4F",
"V.	c #FFB5B5",
"W.	c #E5BABA",
"X.	c #9A6262",
"Y.	c #6C4040",
"Z.	c #5C5252",
"`.	c #555A5A",
" +	c #773636",
".+	c #956464",
"++	c #E2BDBD",
"@+	c #FFA7A7",
"#+	c #FF1D1D",
"$+	c #FF2E2E",
"%+	c #FFB6B6",
"&+	c #FFC6C6",
"*+	c #FB1F1F",
"=+	c #EF0F0F",
"-+	c #C01E1E",
";+	c #724949",
">+	c #335252",
",+	c #6F8484",
"'+	c #D7F8F8",
")+	c #FFF2F2",
"!+	c #FF6969",
"~+	c #FF1919",
"{+	c #FF0404",
"]+	c #FF3333",
"^+	c #FFBDBD",
"/+	c #FFB7B7",
"(+	c #FE2222",
"_+	c #DE1313",
":+	c #744A4A",
"<+	c #4C5E5E",
"[+	c #424C4C",
"}+	c #757B7B",
"|+	c #D9E3E3",
"1+	c #FF9D9D",
"2+	c #FF2424",
"3+	c #FF0E0E",
"4+	c #FF2D2D",
"5+	c #FF0808",
"6+	c #5D5656",
"7+	c #4A4A4A",
"8+	c #797979",
"9+	c #DEDDDD",
"0+	c #F6DCDC",
"a+	c #DE4040",
"b+	c #DE0505",
"c+	c #F62A2A",
"d+	c #FF0C0C",
"e+	c #4E5D5D",
"f+	c #575959",
"g+	c #545353",
"h+	c #4B4B4B",
"i+	c #7C7C7C",
"j+	c #E7E6E6",
"k+	c #DDD8D8",
"l+	c #815959",
"m+	c #814E4E",
"n+	c #FFA6A6",
"o+	c #FF2828",
"p+	c #585858",
"q+	c #555555",
"r+	c #4F4F4F",
"s+	c #727272",
"t+	c #BDBDBD",
"u+	c #EEEEEE",
"v+	c #E1E4E4",
"w+	c #829191",
"x+	c #829A9A",
"y+	c #DFFFFF",
"z+	c #FF3D3D",
"A+	c #575757",
"B+	c #565656",
"C+	c #5C5C5C",
"D+	c #686868",
"E+	c #959595",
"F+	c #E5E5E5",
"G+	c #E2E6E6",
"H+	c #DFE6E6",
"I+	c #F7FFFF",
"J+	c #FFF9F9",
"K+	c #595959",
"L+	c #505050",
"M+	c #3C3C3C",
"N+	c #747474",
"O+	c #DFDFDF",
"P+	c #F50404",
"Q+	c #F5F5F5",
"R+	c #D8E0E0",
"S+	c #747A7A",
"T+	c #564444",
"U+	c #FEFEFE",
"V+	c #DADADA",
"W+	c #787777",
"X+	c #464B4B",
"                        . . + . . @ # $ % & * =                 ",
"                        . . . - ; > , ' ) ! ~ &                 ",
"                        { .     ! ] ^ / ( > _ : < # [ } | 1     ",
"                        . 2     3 4 5 6 7 8 9 0 a b c ; d e     ",
"                        . f g h i j k # _ l > f m n 2 o         ",
"                        . } p # ' q r s t , u . . . . v         ",
". .                     . 2 u n w x y x z u - . . . . z A e     ",
". .                     . B [ C . . . . C [ B . . . . D ! 1     ",
". . . .                 . E l F n . . n F G E .                 ",
". . . .                 . z H d I . . J K L E .                 ",
". . . . . .         . . . ( M E . . . ( M w v . . . . .         ",
". . . . . .         . . . . . . N O P . . . . { . . . .         ",
"    . .     . .     . . . . . N Q R S . . .                     ",
"    . .     . .     T U ( . . V W X Y Z `  .                    ",
"                . @ ..d +.. . @.#.$.%.&.*.=.-..                 ",
"                [ > ;.L n . C >.,.'.).!.~.{.].-.                ",
"                ^.] /.C . n (._.:.<.[.}.|.1.2.3.                ",
"                4.5.E . . +.6.7.8.. 9.0.a.b.c.d.                ",
"                e.f.g.. . ( J n . h.i.j.k.l.m.n.o.p.            ",
"                q.r.s.. . . . . . t.u.v.w.l.m.x.y.z.            ",
"        . . . B 8.A.B.. . C.. . . D.E.F.G.H.I.J.K.L.M.=         ",
"        . . . N.O.P.Q.R.S.. . C.{ . . . T.U.V.W.X.Y.Z.`.        ",
"        . .      +.+++@+#+. . C.C.. . $+%+&+H.*+=+-+;+1         ",
"        . .     >+,+'+)+!+~+{+. . . . ]+^+/+(+. . _+:+<+        ",
"                [+}+|+m.&.1+2+. . + . 3+}.4+5+.     6+`.        ",
"                7+8+9+m.m.0+a+b+c+[.d+. . . . .     e+=         ",
"            f+g+h+i+j+m.m.k+l+m+k.n+o+.     . .                 ",
"            p+q+r+s+t+u+m.v+w+x+y+~.z+.     . +                 ",
"        p+p+p+A+B+C+D+E+F+m.G+H+I+J+        . {                 ",
"        p+p+p+p+K+L+M+N+O+m.m.m.m.m.        P+.                 ",
"                        Q+m.m.m.m.m.m.R+S+T+                    ",
"                        m.U+m.m.m.m.m.V+W+X+                    "};
