/* XPM */
static char * dbg10_xpm[] = {
"32 32 43 1",
" 	c None",
".	c #FF0000",
"+	c #FF00FF",
"@	c #FF00FD",
"#	c #FF00CB",
"$	c #FF00D8",
"%	c #FF00F4",
"&	c #FF0026",
"*	c #FF0060",
"=	c #FF00D5",
"-	c #FF0018",
";	c #FF00B7",
">	c #FF0001",
",	c #FF00FE",
"'	c #FF003E",
")	c #FF0030",
"!	c #FF000F",
"~	c #FF00D3",
"{	c #FF00C6",
"]	c #FF002E",
"^	c #FF0031",
"/	c #FF0021",
"(	c #FF00A3",
"_	c #FF00D2",
":	c #FF00CA",
"<	c #FF00C8",
"[	c #FF0034",
"}	c #FF0023",
"|	c #FF005B",
"1	c #FF00E1",
"2	c #FF0032",
"3	c #FF00B2",
"4	c #FF00DF",
"5	c #FF00F8",
"6	c #FF00A5",
"7	c #FF00F9",
"8	c #FF0006",
"9	c #FF001E",
"0	c #FF0068",
"a	c #FF00DE",
"b	c #FF0002",
"c	c #FF0024",
"d	c #FF002C",
"                                ",
"                                ",
"    ..........          +++@++  ",
"    ..........          #$%+++  ",
"    ........            &*=+++  ",
"    ........            .-;+++  ",
"  ..........        ......  ++  ",
"  ..........        ....>.  +,  ",
"  ..........  ......    ..      ",
"  ....>.....  ......    .>      ",
"  ....  ...>......        >.    ",
"  ....  ')!.......        ..    ",
"        ~{    ......        ....",
"        ++    ......        ....",
"      ++    ..    ....    ..  ..",
"      ++    ..    ....    ..  ..",
"    ++++  ........  ..    ..    ",
"    ++++  ........  >.    .>    ",
"          ....        ....      ",
"          >...        ]^)^      ",
"          ....    .../(_:<      ",
"          ....    [^}|1+++      ",
"        ....    .234:_5+++      ",
"        ....    .&67+++,++      ",
"        ..      .890a+++++      ",
"        ..      b..c{+++++      ",
"        ....      .d{+++++      ",
"        ....      .){+++++      ",
"                        ++      ",
"                        ++      ",
"                                ",
"                                "};
