/* XPM */
static char*dbg10[]={
"16 16 3 1",
"a c #ff00ff",
". c None",
"# c #ff0000",
"................",
"..#####.....aaa.",
"..####......#aa.",
".#####....###.a.",
".#####.###..#...",
".##.#####....#..",
"....a..###....##",
"...a..#..##..#.#",
"..aa.####.#..#..",
".....##....##...",
".....##..##aa...",
"....##..#aaaa...",
"....#...##aaa...",
"....##...#aaa...",
"............a...",
"................"};
