/* XPM */
static char * dbg15_xpm[] = {
"32 32 77 1",
" 	c None",
".	c #0000FF",
"+	c #0200FD",
"@	c #0E00F1",
"#	c #FF0000",
"$	c #D0002F",
"%	c #2F00D0",
"&	c #4000BF",
"*	c #3100CE",
"=	c #2E00D1",
"-	c #3B00C4",
";	c #E1001E",
">	c #A5005A",
",	c #2C00D3",
"'	c #F60009",
")	c #E0001F",
"!	c #D1002E",
"~	c #C60039",
"{	c #CF0030",
"]	c #F2000D",
"^	c #5D00A2",
"/	c #2200DD",
"(	c #0800F7",
"_	c #FE0001",
":	c #FB0004",
"<	c #DE0021",
"[	c #C90036",
"}	c #2300DC",
"|	c #5600A9",
"1	c #5500AA",
"2	c #D80027",
"3	c #C70038",
"4	c #2100DE",
"5	c #0100FE",
"6	c #D70028",
"7	c #9F0060",
"8	c #1200ED",
"9	c #C3003C",
"0	c #D60029",
"a	c #2700D8",
"b	c #3300CC",
"c	c #0500FA",
"d	c #5300AC",
"e	c #2000DF",
"f	c #F4000B",
"g	c #CD0032",
"h	c #DA0025",
"i	c #9E0061",
"j	c #1A00E5",
"k	c #E5001A",
"l	c #62009D",
"m	c #2500DA",
"n	c #3200CD",
"o	c #2800D7",
"p	c #0A00F5",
"q	c #FA0005",
"r	c #CC0033",
"s	c #CA0035",
"t	c #FD0002",
"u	c #D3002C",
"v	c #2600D9",
"w	c #5400AB",
"x	c #CE0031",
"y	c #C80037",
"z	c #D2002D",
"A	c #3C00C3",
"B	c #3000CF",
"C	c #CB0034",
"D	c #F3000C",
"E	c #2900D6",
"F	c #0C00F3",
"G	c #BC0043",
"H	c #F80007",
"I	c #3E00C1",
"J	c #E4001B",
"K	c #F90006",
"L	c #4200BD",
"                                ",
"                                ",
"                    .+          ",
"                    @.          ",
"        ....      #$%.          ",
"        &*=-      ;>,.          ",
"    ###')!~{]####$^/(.          ",
"    _##:<;###_###[}...          ",
"      #;|12#  ###34....+5...    ",
"      67889#  ###0^abac.....    ",
"    #[de    #####f0ghij....+    ",
"    #0%.    ####_####klmnop.    ",
"    ##    ###########q2r2ia.    ",
"    s!    ##########t####ub.    ",
"    vwx#####  ######  ###y%.    ",
"    .v3#####  ######  ###zA.    ",
"..5..Bs#######  ####  ###'      ",
".....bC#######  ####  ###D      ",
"..      ##########  ##    ...+  ",
"..      _#########  ##    BEF.  ",
"          ######    ##    sG    ",
"          #####_    ##    ##    ",
"              #__#####    ##    ",
"              H#######    ##    ",
"          ...IJ##_######        ",
"          ...aiJK#######        ",
"        .....paL        ##  ##  ",
"        ...55...        ##  ##  ",
"            5...              ##",
"            ....              ##",
"            ..                  ",
"            ..                  "};
