/* XPM */
static char * dbg1_xpm[] = {
"32 32 375 2",
"  	c None",
". 	c #FF0000",
"+ 	c #FD0100",
"@ 	c #F80700",
"# 	c #00CD00",
"$ 	c #00B700",
"% 	c #018A00",
"& 	c #007700",
"* 	c #008000",
"= 	c #008400",
"- 	c #008100",
"; 	c #017E00",
"> 	c #007B00",
", 	c #008F00",
"' 	c #14B800",
") 	c #00B800",
"! 	c #00AD00",
"~ 	c #009700",
"{ 	c #008800",
"] 	c #007E00",
"^ 	c #008200",
"/ 	c #009000",
"( 	c #00B500",
"_ 	c #00C700",
": 	c #00D800",
"< 	c #01B700",
"[ 	c #009500",
"} 	c #00B100",
"| 	c #018800",
"1 	c #007A00",
"2 	c #008500",
"3 	c #009600",
"4 	c #00BB00",
"5 	c #00BF00",
"6 	c #009D00",
"7 	c #009200",
"8 	c #FE0100",
"9 	c #06B300",
"0 	c #00A900",
"a 	c #00B000",
"b 	c #009C00",
"c 	c #0C8200",
"d 	c #2F6B00",
"e 	c #3E5F00",
"f 	c #3A5F00",
"g 	c #287800",
"h 	c #06A900",
"i 	c #08A700",
"j 	c #287500",
"k 	c #425900",
"l 	c #D41500",
"m 	c #D51500",
"n 	c #F20600",
"o 	c #BD2400",
"p 	c #297500",
"q 	c #008E00",
"r 	c #00A400",
"s 	c #00BD00",
"t 	c #2F9800",
"u 	c #B23300",
"v 	c #EE0400",
"w 	c #E20C00",
"x 	c #9C3500",
"y 	c #197F00",
"z 	c #1E7B00",
"A 	c #A62C00",
"B 	c #F70000",
"C 	c #DE0C00",
"D 	c #585300",
"E 	c #356600",
"F 	c #C33000",
"G 	c #D72000",
"H 	c #D11800",
"I 	c #346E00",
"J 	c #008B00",
"K 	c #077900",
"L 	c #2C6200",
"M 	c #277500",
"N 	c #00B300",
"O 	c #22A000",
"P 	c #A53A00",
"Q 	c #F90000",
"R 	c #D71300",
"S 	c #246900",
"T 	c #137500",
"U 	c #A43800",
"V 	c #EA1B00",
"W 	c #E41D00",
"X 	c #9F3A00",
"Y 	c #1C7300",
"Z 	c #009400",
"` 	c #13B900",
" .	c #568100",
"..	c #E21700",
"+.	c #D81C01",
"@.	c #2C9700",
"#.	c #00C400",
"$.	c #00A000",
"%.	c #206B00",
"&.	c #AE2500",
"*.	c #AC2B00",
"=.	c #1C7E00",
"-.	c #009A00",
";.	c #078000",
">.	c #5F4F00",
",.	c #ED0900",
"'.	c #DB1100",
").	c #286700",
"!.	c #14A200",
"~.	c #31A400",
"{.	c #3B9E00",
"].	c #2C9300",
"^.	c #078300",
"/.	c #007D00",
"(.	c #05AC2D",
"_.	c #4C8424",
":.	c #E0160A",
"<.	c #EB1200",
"[.	c #647C00",
"}.	c #20A000",
"|.	c #1F7D00",
"1.	c #674800",
"2.	c #F90200",
"3.	c #694800",
"4.	c #1B6F00",
"5.	c #117700",
"6.	c #525700",
"7.	c #E01000",
"8.	c #E60B00",
"9.	c #644A00",
"0.	c #237A00",
"a.	c #259A00",
"b.	c #14B200",
"c.	c #00C300",
"d.	c #008D00",
"e.	c #000000",
"f.	c #210C2A",
"g.	c #7B2893",
"h.	c #C2218E",
"i.	c #FF0026",
"j.	c #DC1D00",
"k.	c #C52A00",
"l.	c #C42100",
"m.	c #DC1000",
"n.	c #DD1000",
"o.	c #C31D00",
"p.	c #C11F00",
"q.	c #D21700",
"r.	c #F70400",
"s.	c #F90300",
"t.	c #CC1D00",
"u.	c #D52100",
"v.	c #984200",
"w.	c #148200",
"x.	c #00AB00",
"y.	c #00BE00",
"z.	c #00B900",
"A.	c #009800",
"B.	c #000600",
"C.	c #1E0022",
"D.	c #7E008C",
"E.	c #B90091",
"F.	c #C31F26",
"G.	c #DD1F00",
"H.	c #CF1800",
"I.	c #D01700",
"J.	c #E50600",
"K.	c #654300",
"L.	c #2B7200",
"M.	c #359300",
"N.	c #389200",
"O.	c #347100",
"P.	c #405C00",
"Q.	c #00D300",
"R.	c #001500",
"S.	c #08000A",
"T.	c #220025",
"U.	c #2B1426",
"V.	c #23820A",
"W.	c #638200",
"X.	c #EA1400",
"Y.	c #D01800",
"Z.	c #3E6100",
"`.	c #445E00",
" +	c #FD0000",
".+	c #E50700",
"++	c #DA1000",
"@+	c #DD1900",
"#+	c #DB1B00",
"$+	c #D61700",
"%+	c #E20E00",
"&+	c #00CA00",
"*+	c #00A300",
"=+	c #014A01",
"-+	c #001900",
";+	c #004E00",
">+	c #19BA01",
",+	c #9A5100",
"'+	c #EC1100",
")+	c #D71200",
"!+	c #465C00",
"~+	c #336600",
"{+	c #9F3000",
"]+	c #D11700",
"^+	c #C91B00",
"/+	c #C41E00",
"(+	c #F30600",
"_+	c #E41A00",
":+	c #DB2100",
"<+	c #DC1C00",
"[+	c #DE1700",
"}+	c #DF1200",
"|+	c #D91200",
"1+	c #CE1900",
"2+	c #00C200",
"3+	c #00A500",
"4+	c #00A700",
"5+	c #18B300",
"6+	c #677700",
"7+	c #EB1100",
"8+	c #E50B00",
"9+	c #9F3100",
"0+	c #415F00",
"a+	c #167500",
"b+	c #1E7100",
"c+	c #1D7200",
"d+	c #127700",
"e+	c #4F5800",
"f+	c #627C00",
"g+	c #2CA500",
"h+	c #359D00",
"i+	c #3A8A00",
"j+	c #3A6D00",
"k+	c #396000",
"l+	c #366400",
"m+	c #00C000",
"n+	c #00BC00",
"o+	c #01B300",
"p+	c #00C800",
"q+	c #18A400",
"r+	c #994B00",
"s+	c #F01000",
"t+	c #EC0900",
"u+	c #5A5200",
"v+	c #177400",
"w+	c #226F00",
"x+	c #236F00",
"y+	c #197400",
"z+	c #545600",
"A+	c #D31600",
"B+	c #C82700",
"C+	c #269800",
"D+	c #00D600",
"E+	c #00C100",
"F+	c #008300",
"G+	c #008C00",
"H+	c #009300",
"I+	c #008900",
"J+	c #008A00",
"K+	c #009900",
"L+	c #18A700",
"M+	c #677B00",
"N+	c #EF1400",
"O+	c #E90A00",
"P+	c #D61500",
"Q+	c #D61400",
"R+	c #DF1000",
"S+	c #CA1C00",
"T+	c #2F7000",
"U+	c #00C600",
"V+	c #007900",
"W+	c #008600",
"X+	c #018400",
"Y+	c #027900",
"Z+	c #14A600",
"`+	c #9B3E00",
" @	c #DF0B00",
".@	c #DF0D00",
"+@	c #DE0F00",
"@@	c #DE1000",
"#@	c #DC1200",
"$@	c #DB1200",
"%@	c #E40E00",
"&@	c #F80300",
"*@	c #CA1800",
"=@	c #2F6100",
"-@	c #00AE00",
";@	c #01A600",
">@	c #028700",
",@	c #009100",
"'@	c #236E00",
")@	c #3A5D00",
"!@	c #3A6200",
"~@	c #2C6A00",
"{@	c #624F00",
"]@	c #D71400",
"^@	c #C71C00",
"/@	c #246C00",
"(@	c #019200",
"_@	c #00C900",
":@	c #077600",
"<@	c #2D6300",
"[@	c #296A00",
"}@	c #009B00",
"|@	c #256E00",
"1@	c #614F00",
"2@	c #1B7300",
"3@	c #067F00",
"4@	c #00CF00",
"5@	c #01C500",
"6@	c #1F6A00",
"7@	c #AD2200",
"8@	c #AE3300",
"9@	c #279600",
"0@	c #00AC00",
"a@	c #2D6A00",
"b@	c #E40A00",
"c@	c #299100",
"d@	c #00D200",
"e@	c #05B000",
"f@	c #198000",
"g@	c #6B4500",
"h@	c #F50000",
"i@	c #F31100",
"j@	c #499000",
"k@	c #00DA00",
"l@	c #00D100",
"m@	c #018E00",
"n@	c #396300",
"o@	c #D41600",
"p@	c #D92100",
"q@	c #349E00",
"r@	c #24A600",
"s@	c #389500",
"t@	c #00CB00",
"u@	c #289F00",
"v@	c #9E3E00",
"w@	c #E70700",
"x@	c #FD0400",
"y@	c #CB2900",
"z@	c #27A500",
"A@	c #1BAD00",
"B@	c #9F4900",
"C@	c #00D400",
"D@	c #339A00",
"E@	c #CB2700",
"F@	c #23A600",
"G@	c #2BA000",
"H@	c #D71E00",
"I@	c #00E200",
"J@	c #28A200",
"K@	c #29A100",
"L@	c #27A200",
"M@	c #CE2500",
"N@	c #2E9D00",
"O@	c #5D7A00",
"P@	c #D81D00",
"Q@	c #D61F00",
"R@	c #9C4B00",
"S@	c #1BAC00",
"T@	c #2AA000",
"U@	c #CA2800",
"V@	c #F70600",
"W@	c #D22200",
"X@	c #D32100",
"Y@	c #379700",
"Z@	c #00DC00",
"`@	c #329A00",
" #	c #22A600",
".#	c #00C500",
"+#	c #329B00",
"@#	c #C02F00",
"##	c #2C9F00",
"$#	c #349900",
"%#	c #FE0000",
"                            . .                                 ",
"                            . .                                 ",
"                                            . +                 ",
"                                            @ .                 ",
"    . .             # $ % & * = - ; > , $ '                     ",
"    . .             ) ! ~ { * ] ^ ^ ] / ( _                     ",
"        . .     : < [ [ } ! | 1 2 { 2 3 4 5 6 7     . . . 8 . . ",
"        . .     9 0 2 2 a $ b c d e f g h i j k     l m n . . . ",
"        . . . o p q ^ ^ / r s t u v w x y z A B . C D E         ",
"        F G . H I 3 J K L M N O P Q . R S T U V W X Y Z         ",
"        `  ...+.@.#.$.%.&.*.=.-.;.>.,.'.).~ !.~.{.].^./.        ",
"        (._.:.<.[.}.|.1.2.2.3.4.5.6.7.8.9.0.a.b.c.4 b d.        ",
"    e.f.g.h.i.. j.k.l.m.. . n.o.p.q.r.s.R t.u.v.w.x.y.z.A.{     ",
"    B.C.D.E.F.G.. . . . H.I.. . . . . . . . . J.K.L.M.N.O.P.    ",
"Q.d.R.S.T.U.V.W.X.. . Y.Z.`.7.. . . . . . . .  +.+++@+#+$+%+. . ",
"&+*+=+-+-+;+z.>+,+'+. )+!+~+{+]+^+/+p.]+(+. . @ _+:+<+[+}+|+1+^+",
"2+z.3+-.-.4+c._ 5+6+7+. 8+9+0+a+b+c+d+e+q.. . G f+g+h+i+j+k+l+E ",
"m+m+5 5 m+n+o+$ p+q+r+s+. t+u+v+w+x+y+z+A+. . B+C+Q.D+E+3 F+{ G+",
"    H+, q G+I+J+, K+L+M+N+. O+A+P+Q+l R+r.. . S+T+0 U+s q V+    ",
"    & ] W+J+J+X+Y+d.E+Z+`+ @.@+@@@#@$@%@&@. . *@=@H+! ! [ J+    ",
"        -@N ( ;@>@^ A.,@'@)@)@f !@E ~@{@]@. . ^@/@/ { (@x.$     ",
"        U+U+_@) H+:@<@[@G+}@K+Z G+J 7 |@^@. . ]@1@2@3@K+y.4@    ",
"        2+c.5@z.b 6@7@8@9@2+y.0@d.^ J+a@^@. . 2.b@X c@2+# d@    ",
"        m+2+U+e@f@g@h@i@j@k@l@$ m@* q n@o@. . . . p@q@_@r@s@    ",
"        m+c.t@u@v@w@. x@                n . . . . y@z@A@B@@+    ",
"        U+t@C@D@p@. . .                 . 8 8 . . E@F@G@H@.     ",
"            I@J@y@.                 . . . 8     . H@K@L@M@.     ",
"            N@O@P@.                 . . . .     Q@R@S@T@U@.     ",
"        . V@W@P@. X@Y@Z@                        `@ #.#+#E@. . . ",
"        8 . . . . @###4@                        d@d@l@$#U@. . . ",
"        %#. . .                                             . . ",
"        . . . %#                                            %#. "};
