/* XPM */
static char*dbg12[]={
"16 16 4 1",
". c None",
"a c #585858",
"b c #ffffff",
"# c #ff0000",
"......###aaa....",
"......#.a##aa#a.",
"......#aaaa###..",
"#.....########a.",
"##....#a##a#....",
"###..#########..",
".#.#.###a##.....",
"....#a##abb#....",
"....a##a###b....",
"....a####abba...",
"..#########baa..",
"..#.ab####b##a..",
"....abb#####.a..",
"...aabbab#.#....",
"..aaaabbb..#....",
"......bbbba....."};
