/* XPM */
static char*dbg15[]={
"16 16 3 1",
"# c #0000ff",
". c None",
"a c #ff0000",
"................",
"..........#.....",
"....##...a#.....",
"..aaaaaaa##.....",
"...a#a.aa#####..",
"..a#..aaaaa###..",
"..a..aaaaaaaa#..",
"..#aaa.aaa.aa#..",
"###aaaa.aa.aa...",
"#...aaaaa.a..##.",
".....aaa..a..a..",
".......aaaa..a..",
".....##aaaaa....",
"....####....a.a.",
"......##.......a",
"......#........."};
