/* XPM */
static char*dbg2[]={
"16 16 5 1",
"# c #ffa858",
"c c #ffff00",
". c None",
"b c #c00000",
"a c #ff0000",
"................",
"..#.......##..a.",
"..####..###...a.",
"...aa#..#....aa.",
"....a#b#bbb.aa#.",
"....#acbbb#bb...",
"#####cabbbb#b...",
"....bbbbaabbb...",
"....#aabbbb.b...",
".a..#aaa#caab...",
".aaaaacabb#baaa.",
"...##.ba#bb#..aa",
"..##..bbbb.##...",
".##....aa...##..",
".#......a.......",
"................"};
