/* XPM */
static char * dbg2_xpm[] = {
"32 32 266 2",
"  	c None",
". 	c #FFA858",
"+ 	c #FF0000",
"@ 	c #FFA958",
"# 	c #FFA758",
"$ 	c #FFAA59",
"% 	c #FFB35E",
"& 	c #FFB961",
"* 	c #FFB861",
"= 	c #FFB45E",
"- 	c #FFAB59",
"; 	c #FFA757",
"> 	c #FFAC5A",
", 	c #FF9F54",
"' 	c #FF8B49",
") 	c #FF8345",
"! 	c #FF8545",
"~ 	c #FF8F4B",
"{ 	c #FFA255",
"] 	c #FFAD5B",
"^ 	c #FF2916",
"/ 	c #FF1F10",
"( 	c #FF1B0E",
"_ 	c #FF4223",
": 	c #FFB760",
"< 	c #FFB65F",
"[ 	c #FF0201",
"} 	c #FF190D",
"| 	c #FF8A48",
"1 	c #FBB15D",
"2 	c #F48C49",
"3 	c #EF7E42",
"4 	c #FF0704",
"5 	c #FF1D0F",
"6 	c #FF2915",
"7 	c #FF1A0E",
"8 	c #FF954D",
"9 	c #F29C54",
"0 	c #C61213",
"a 	c #C5050D",
"b 	c #F99551",
"c 	c #FCA153",
"d 	c #D84122",
"e 	c #C7130A",
"f 	c #C10201",
"g 	c #BB0000",
"h 	c #B90000",
"i 	c #B50000",
"j 	c #FF0100",
"k 	c #FF6D39",
"l 	c #FF944E",
"m 	c #FF1A0D",
"n 	c #FF351D",
"o 	c #FF7040",
"p 	c #F37539",
"q 	c #D3400A",
"r 	c #D2450C",
"s 	c #EE7F3C",
"t 	c #EB713D",
"u 	c #C8150C",
"v 	c #B80000",
"w 	c #BD0000",
"x 	c #C30905",
"y 	c #CB1E10",
"z 	c #CC2513",
"A 	c #F00000",
"B 	c #F60000",
"C 	c #FC0000",
"D 	c #FF954E",
"E 	c #FFC768",
"F 	c #FF914B",
"G 	c #FF6B3D",
"H 	c #FF1C1F",
"I 	c #FD360A",
"J 	c #F6BA01",
"K 	c #E9C203",
"L 	c #D65111",
"M 	c #C81011",
"N 	c #C10003",
"O 	c #BC0000",
"P 	c #CC2111",
"Q 	c #EE7A40",
"R 	c #EF7F43",
"S 	c #C91C0E",
"T 	c #BA0000",
"U 	c #C90000",
"V 	c #D20000",
"W 	c #FFC268",
"X 	c #FF9A4D",
"Y 	c #FF4010",
"Z 	c #FF4D00",
"` 	c #FFC700",
" .	c #F6BA00",
"..	c #CA2700",
"+.	c #B70000",
"@.	c #CB2011",
"#.	c #EE7C41",
"$.	c #F28546",
"%.	c #D83E21",
"&.	c #C7150B",
"*.	c #BF0503",
"=.	c #FFAB5C",
"-.	c #FFB266",
";.	c #FFC34D",
">.	c #FFDE12",
",.	c #FFBD00",
"'.	c #FF5F00",
").	c #F72200",
"!.	c #CD0500",
"~.	c #BE0503",
"{.	c #C8170C",
"].	c #D94222",
"^.	c #F28445",
"/.	c #EC763E",
"(.	c #CA1E10",
"_.	c #FFA959",
":.	c #FFAB5A",
"<.	c #FC9D55",
"[.	c #F3824D",
"}.	c #F09835",
"|.	c #F0DA0E",
"1.	c #F2B300",
"2.	c #F42000",
"3.	c #E60000",
"4.	c #BF0100",
"5.	c #CA0000",
"6.	c #D00000",
"7.	c #D00100",
"8.	c #C7170C",
"9.	c #ED793F",
"0.	c #CC1F10",
"a.	c #CB1B11",
"b.	c #C81C08",
"c.	c #C83602",
"d.	c #C92F00",
"e.	c #C90700",
"f.	c #C50000",
"g.	c #BE0000",
"h.	c #CB0000",
"i.	c #EB0000",
"j.	c #C30804",
"k.	c #BF0000",
"l.	c #C7170B",
"m.	c #C90F0A",
"n.	c #C80003",
"o.	c #C50100",
"p.	c #BD0100",
"q.	c #EA0000",
"r.	c #FA0000",
"s.	c #C10101",
"t.	c #F18E4A",
"u.	c #F16837",
"v.	c #F1180F",
"w.	c #F20000",
"x.	c #F40000",
"y.	c #E60100",
"z.	c #C60000",
"A.	c #C70000",
"B.	c #C00000",
"C.	c #FFC969",
"D.	c #F80000",
"E.	c #D80000",
"F.	c #C80805",
"G.	c #C91D11",
"H.	c #CA2E11",
"I.	c #CA3B05",
"J.	c #CA2E00",
"K.	c #CB0800",
"L.	c #D10000",
"M.	c #C20000",
"N.	c #FFCC6B",
"O.	c #FF2A15",
"P.	c #FE0000",
"Q.	c #F50000",
"R.	c #F21D11",
"S.	c #F46F42",
"T.	c #F5B142",
"U.	c #F5E212",
"V.	c #F4B200",
"W.	c #F22400",
"X.	c #F70000",
"Y.	c #F40101",
"Z.	c #FF8646",
"`.	c #FF6938",
" +	c #FF190F",
".+	c #FF0400",
"++	c #FF2F00",
"@+	c #FF0300",
"#+	c #FF1711",
"$+	c #F86A40",
"%+	c #F4AC40",
"&+	c #F5DD0F",
"*+	c #FABF00",
"=+	c #FF5010",
"-+	c #FF1011",
";+	c #F80003",
">+	c #E90000",
",+	c #D40000",
"'+	c #CD0000",
")+	c #FF1209",
"!+	c #FF0F0A",
"~+	c #FF0003",
"{+	c #FF2E00",
"]+	c #FFBC00",
"^+	c #FFC000",
"/+	c #FF3000",
"(+	c #F50003",
"_+	c #D50E0C",
":+	c #C6200A",
"<+	c #C82E00",
"[+	c #DB5210",
"}+	c #FE8C42",
"|+	c #FB7741",
"1+	c #D4150C",
"2+	c #CE0000",
"3+	c #F80100",
"4+	c #FD0000",
"5+	c #FF0402",
"6+	c #FF2111",
"7+	c #FF100B",
"8+	c #FB3B00",
"9+	c #F3C800",
"0+	c #F6BC00",
"a+	c #F70003",
"b+	c #D6130C",
"c+	c #C20F0A",
"d+	c #C70F10",
"e+	c #E9753F",
"f+	c #EB8445",
"g+	c #CF3E20",
"h+	c #CF130A",
"i+	c #F50101",
"j+	c #FF7B40",
"k+	c #FF8044",
"l+	c #C93900",
"m+	c #D72C00",
"n+	c #F80300",
"o+	c #FF1C11",
"p+	c #FD7A40",
"q+	c #E97940",
"r+	c #C8180F",
"s+	c #C6120A",
"t+	c #D43B1F",
"u+	c #E9753D",
"v+	c #F58847",
"w+	c #FFB55F",
"x+	c #FFC567",
"y+	c #B40000",
"z+	c #E50000",
"A+	c #F72211",
"B+	c #F97F42",
"C+	c #EA7D42",
"D+	c #CB2111",
"E+	c #CE2413",
"F+	c #F8954E",
"G+	c #FFC266",
"H+	c #FFAF5C",
"I+	c #CA0905",
"J+	c #C82011",
"K+	c #C20804",
"L+	c #FFAE5B",
"M+	c #FFB05C",
"N+	c #C80100",
"O+	c #FFB25D",
"P+	c #EF0000",
"Q+	c #EE0000",
"                                                                ",
"                                                                ",
"        . .                             . . . .         + +     ",
"        . @                             . . . .         + +     ",
"        # $ % & * = - ;         . . . . . .             + +     ",
"        > , ' ) ! ~ { >         > > > ] ] ]             + +     ",
"            ^ / ( _ ~ :         % <                 [ + + +     ",
"            + + + } | 1         2 3                 + 4 5 6     ",
"                + 7 8 9 0 a b c d e f g h i     j + + 5 k l     ",
"                m n o p q r s t u v w x y z     A B C ^ D E     ",
"                F G H I J K L M N O O P Q R S T U V             ",
"                W X Y Z `  ...+.O w g @.#.$.%.&.*.h             ",
". . . . . . ; =.-.;.>.,.'.).!.h g g T ~.{.].^./.(.h             ",
". . . . . _.:.<.[.}.|.1.2.3.U 4.5.6.7.U g 8.9.Q 0.g             ",
"                a.b.c.d.e.f.g.h.i.C C i.U ~.(.0.j.k.            ",
"                l.m.n.U U o.p.U q.r.r.q.5.h v T k.s.            ",
"                t.u.v.w.x.y.o.g z.h.h.A.k.h     k.B.            ",
"                C.D 6 + + D.E.F.G.H.I.J.K.L.    M.w             ",
"    + +         N.D O.+ + P.Q.R.S.T.U.V.W.X.+ Y.A.i             ",
"    + +         Z.`. +.+++++@+#+$+%+&+*+=+-+;+>+,+'+            ",
"    + + j + + + )+!+~+{+]+^+/+(+_+:+<+[+}+|+1+2+>+3+4++ + +     ",
"    + + + 5+7 6+5 7+~+8+9+0+/+a+b+c+h d+e+f+g+h+i++ + + + +     ",
"            j+Z.Z.k+    l+m+n+o+p+q+r+w s+t+u+v+        + + + + ",
"            < % w+x+    y+z.z+A+B+C+D+h y+E+F+G+        + + + + ",
"        H+> > >         w B.z.I+D+J+K+w     ; L+] M+            ",
"        . . . .         k.M.N+5.U A.M.w     O+# . .             ",
"    . . . .                 P+w.w.Q+            . . . _.        ",
"    . . . .                 + + + +             . . . .         ",
"    . .                         + +                             ",
"    . .                         + +                             ",
"                                                                ",
"                                                                "};
