/* XPM */
static char*dbg3[]={
"16 16 4 1",
"a c #808080",
". c None",
"b c #585858",
"# c #ff0000",
"....###.........",
"..##...##...#...",
"..#......#..##..",
".#..a..#.a#a###.",
".#.aa###aa###a#.",
"#.a##bb#a###aaa#",
"#.a##b###aa#aaa#",
"##.###b######aa#",
"#####b###aa#####",
"aa#aa.aa########",
".aa##.aaaaaaa#a.",
".....#aaaaaaa#a.",
"......#a.#...#a.",
"#.###.#a#####aa.",
"###.#..#.#......",
"................"};
