/* XPM */
static char * dbg3_xpm[] = {
"32 32 207 2",
"  	c None",
". 	c #FF0000",
"+ 	c #FE0101",
"@ 	c #E71919",
"# 	c #E91717",
"$ 	c #F70808",
"% 	c #7F8181",
"& 	c #7E8282",
"* 	c #936D6D",
"= 	c #AE5252",
"- 	c #ED1212",
"; 	c #E81717",
"> 	c #877979",
", 	c #8D7373",
"' 	c #E41B1B",
") 	c #7B8585",
"! 	c #847D7D",
"~ 	c #FC0303",
"{ 	c #649D9D",
"] 	c #E91616",
"^ 	c #F10E0E",
"/ 	c #A95757",
"( 	c #A65A5A",
"_ 	c #EB1414",
": 	c #EC1414",
"< 	c #EA1515",
"[ 	c #6D9393",
"} 	c #738D8D",
"| 	c #6F9191",
"1 	c #907171",
"2 	c #E81D1D",
"3 	c #EA1414",
"4 	c #A15E5E",
"5 	c #6E9292",
"6 	c #689898",
"7 	c #906F6F",
"8 	c #E51B1B",
"9 	c #F20E0E",
"0 	c #AB5454",
"a 	c #FA0505",
"b 	c #956B6B",
"c 	c #976969",
"d 	c #946D6D",
"e 	c #A95353",
"f 	c #D22121",
"g 	c #E20C0C",
"h 	c #DC1212",
"i 	c #E50C0C",
"j 	c #E51C1C",
"k 	c #956C6C",
"l 	c #788888",
"m 	c #8C7474",
"n 	c #B44C4C",
"o 	c #EE1111",
"p 	c #F40B0B",
"q 	c #CA3636",
"r 	c #857B7B",
"s 	c #CD3232",
"t 	c #F00F0F",
"u 	c #7A8686",
"v 	c #D12F2F",
"w 	c #EB1515",
"x 	c #EE1616",
"y 	c #D02222",
"z 	c #933C3C",
"A 	c #704A4A",
"B 	c #684F4F",
"C 	c #903939",
"D 	c #EB0606",
"E 	c #EA1A1A",
"F 	c #8D7474",
"G 	c #B14F4F",
"H 	c #8E7272",
"I 	c #AD5353",
"J 	c #E71818",
"K 	c #996767",
"L 	c #E00D0D",
"M 	c #6C4C4C",
"N 	c #406565",
"O 	c #5B5656",
"P 	c #943737",
"Q 	c #EA0707",
"R 	c #F21111",
"S 	c #AC5555",
"T 	c #A35C5C",
"U 	c #D92626",
"V 	c #907070",
"W 	c #7C8484",
"X 	c #946C6C",
"Y 	c #986868",
"Z 	c #E31C1C",
"` 	c #D91313",
" .	c #635252",
"..	c #5A5757",
"+.	c #BF2222",
"@.	c #F60505",
"#.	c #FE0202",
"$.	c #F10F0F",
"%.	c #D32C2C",
"&.	c #A45C5C",
"*.	c #8B7575",
"=.	c #887878",
"-.	c #AA5555",
";.	c #F20D0D",
">.	c #926E6E",
",.	c #7B8686",
"'.	c #7D8383",
").	c #758C8C",
"!.	c #E51A1A",
"~.	c #728E8E",
"{.	c #E20F0F",
"].	c #913A3A",
"^.	c #893E3E",
"/.	c #CB1B1B",
"(.	c #F10707",
"_.	c #FB0202",
":.	c #AC5454",
"<.	c #897777",
"[.	c #8A7676",
"}.	c #F30C0C",
"|.	c #B34D4D",
"1.	c #808080",
"2.	c #976868",
"3.	c #F60909",
"4.	c #F80707",
"5.	c #FD0101",
"6.	c #CC1B1B",
"7.	c #804343",
"8.	c #864040",
"9.	c #DF1111",
"0.	c #FD0202",
"a.	c #6C9494",
"b.	c #6B9595",
"c.	c #F30606",
"d.	c #C91C1C",
"e.	c #7E4343",
"f.	c #863E3E",
"g.	c #E20E0E",
"h.	c #FB0404",
"i.	c #EF1010",
"j.	c #B04F4F",
"k.	c #AE5151",
"l.	c #E70909",
"m.	c #8F3A3A",
"n.	c #854040",
"o.	c #C61B1B",
"p.	c #F20202",
"q.	c #A95656",
"r.	c #AA5656",
"s.	c #E31D1D",
"t.	c #EC1313",
"u.	c #E31E1E",
"v.	c #C52A2A",
"w.	c #615656",
"x.	c #665353",
"y.	c #D22222",
"z.	c #F71212",
"A.	c #E91919",
"B.	c #EE1212",
"C.	c #AB5555",
"D.	c #966A6A",
"E.	c #897878",
"F.	c #8F7272",
"G.	c #8C6F6F",
"H.	c #996363",
"I.	c #9C6767",
"J.	c #F40C0C",
"K.	c #8F7171",
"L.	c #D22D2D",
"M.	c #DA2525",
"N.	c #956D6D",
"O.	c #768C8C",
"P.	c #758B8B",
"Q.	c #709090",
"R.	c #CE3131",
"S.	c #EA1616",
"T.	c #E81818",
"U.	c #817F7F",
"V.	c #D52A2A",
"W.	c #E61919",
"X.	c #778A8A",
"Y.	c #837D7D",
"Z.	c #9C6363",
"`.	c #9D6363",
" +	c #9C6464",
".+	c #9A6565",
"++	c #827E7E",
"@+	c #798787",
"#+	c #768A8A",
"$+	c #748C8C",
"%+	c #778989",
"&+	c #956A6A",
"*+	c #946B6B",
"=+	c #E11E1E",
"-+	c #916F6F",
";+	c #718F8F",
">+	c #B05050",
",+	c #8E7171",
"'+	c #847C7C",
")+	c #A15F5F",
"!+	c #F60A0A",
"~+	c #9B6464",
"{+	c #D02F2F",
"]+	c #E21D1D",
"^+	c #DE2121",
"/+	c #E61A1A",
"(+	c #A85858",
"                . . . . . .                                     ",
"                . . . . . .                                     ",
"        . . . .             . . . .             . .             ",
"        . . . .             . . . .             . .             ",
"        . .                         . .         . + . .         ",
"        . .                         @ #         $ . . .         ",
"    . .         % &         + .     * = - ; > , ' . . . . +     ",
"    . .         ) !         . ~     { * ] ^ / ( _ . : < ~ .     ",
"    + .     [ } | 1 2 . . . . 3 4 5 6 7 8 . ] _ . 9 / 0 ^ .     ",
"    . a     b c d e f g h i . j k l m n o . . . p q r > s t     ",
". .     u b v w x y z A B C D E F r v ~ . . . - G m & % H I J . ",
". .     [ K ; . . L M N O P Q R S T U o ' _ . 8 V [ ) W | X 8 . ",
". .     5 Y Z . . `  ...+.@.. #.$.%.&.*.=.-.;.< >.[ ,.'.).Y !.. ",
". .     ~.K J . . {.].^./.(._.. . ^ :.<.[.:.t }.|., 1.l } 2.8 . ",
". . . 3.    4.. . 5.@.6.7.8.9.. . + t ] ] t 0.+ }.s , a.b.* Z . ",
". . . .     . . . . c.d.e.f.g.. . h.i.] ] i.a . . ;.j.V V k.< . ",
". . . . . . . . . l.m.n.o.p.. . . # q.[.[.r.] . . ~ _ s.s.< a . ",
"Z s.s.t.+ + < u.E v.w.x.y.z.A.- . B.C.[.[.-.: . . . . . . . . + ",
"Y D.>.n a 4.:.E.F.G.    H.I.* G }.. J.; ; ^ . . . . . . . . . + ",
").~.| K.L.M.( H >.N.    O.P.Q., R.i.i.i.i.t.J ' Z _ ~ h.S.T.4.. ",
"    u U., q.V.] W.J     X.'.) Y.X Z.`.`.`. +.+c * G 9 i.k.D.    ",
"    U.) [ >.: . . .     ++W % & @+#+$+).X.%+%+$+5 &+t.< *+6     ",
"                    . =+-+;+W 1.% ) P.P.) & '.u P.K t.t.K ;+    ",
"                    . < >+,+Y.'.u '+c c '+@+) l Q.)+!+- ~+).    ",
"                        i.{+b ~.    ' ]+            . - Z.$+    ",
"                        . _ K P.    . .             o s X %+    ",
". .     . . . . . .     . W.K.r ^+. . . . . . . . ] :., Y.&     ",
". .     . . . . . .     . /+(+(+!.. . . . . . . . 8 >.[ ) U.    ",
". . . . . .     . .         T.J     . .                         ",
". . . . . .     . .         . .     . .                         ",
"                                                                ",
"                                                                "};
