/* XPM */
static char*dbg5[]={
"16 16 4 1",
"a c #c0c0ff",
". c None",
"b c #c00000",
"# c #ff0000",
"................",
"................",
"......#.........",
"......#.........",
".......#..##....",
"....############",
"....########....",
"....#####...a...",
"...bbba####bab..",
"...bbbbbbaaaabb.",
"...bbbbbbbbb....",
".....bbbb.......",
".......bb.......",
"................",
"................",
"................"};
