/* XPM */
static char * dbg5_xpm[] = {
"32 32 79 1",
" 	c None",
".	c #FF0000",
"+	c #FF0101",
"@	c #FC0E12",
"#	c #C2BCFA",
"$	c #BCCFFF",
"%	c #EF0000",
"&	c #F30000",
"*	c #F20000",
"=	c #F20A0D",
"-	c #F12632",
";	c #F52632",
">	c #FE0A0D",
",	c #BFBCFA",
"'	c #C0B9F6",
")	c #BF0000",
"!	c #C30000",
"~	c #CA0000",
"{	c #CE0000",
"]	c #CD0000",
"^	c #CC2632",
"/	c #C990C0",
"(	c #D890C0",
"_	c #F82632",
":	c #F70000",
"<	c #BA2936",
"[	c #BEAAE1",
"}	c #C0A9E0",
"|	c #C03141",
"1	c #C00000",
"2	c #BD0000",
"3	c #BB0000",
"4	c #BA2632",
"5	c #B890C0",
"6	c #C790C0",
"7	c #E72632",
"8	c #F60000",
"9	c #F2090C",
"0	c #F3212C",
"a	c #F42B3A",
"b	c #F72A37",
"c	c #E92531",
"d	c #CA1E29",
"e	c #BC4B63",
"f	c #BFAEE8",
"g	c #C09FD3",
"h	c #C02633",
"i	c #BE0000",
"j	c #BE0A0D",
"k	c #BE2632",
"l	c #C12632",
"m	c #CA0A0D",
"n	c #CD222D",
"o	c #CE82AD",
"p	c #CEAEE7",
"q	c #CFA6DD",
"r	c #CBA2D7",
"s	c #C3A1D5",
"t	c #BFAEE7",
"u	c #C0C8FF",
"v	c #C09ACC",
"w	c #C02733",
"x	c #C00101",
"y	c #BC0000",
"z	c #BC222D",
"A	c #BC82AD",
"B	c #BCAEE7",
"C	c #BBA6DD",
"D	c #BDA2D7",
"E	c #BFA1D6",
"F	c #C0ABE3",
"G	c #C0C6FF",
"H	c #C09BCE",
"I	c #C02734",
"J	c #BF090C",
"K	c #BF212C",
"L	c #BF2B3A",
"M	c #BF2A37",
"N	c #BF2835",
"                                ",
"                                ",
"                                ",
"                                ",
"            ..                  ",
"            ..                  ",
"            ..                  ",
"            ..                  ",
"              ..    ....        ",
"              ..    ....        ",
"        ........................",
"        ........................",
"        ..............+.        ",
"        ...............@        ",
"        ..+....+..      #$      ",
"        %&*=-;>...      ,'      ",
"      )!~{]^/(_......:]<[}|1    ",
"      1)23345678&90abcdefgh1    ",
"      11)iijklm{]nopqrstuvw111  ",
"      1111x11)y33zABCDEFGHI111  ",
"      11111111)iiJKLMNw|        ",
"      1111111111x1111111        ",
"          11111111              ",
"          11111111              ",
"              1111              ",
"              1111              ",
"                                ",
"                                ",
"                                ",
"                                ",
"                                ",
"                                "};
