/* XPM */
static char * dbg8_xpm[] = {
"32 32 91 1",
" 	c None",
".	c #0000FF",
"+	c #808080",
"@	c #84847C",
"#	c #00FF00",
"$	c #81817F",
"%	c #0100FE",
"&	c #8B8B75",
"*	c #65659B",
"=	c #1A1AE5",
"-	c #0100FD",
";	c #8C8C75",
">	c #66669A",
",	c #1B1BE5",
"'	c #0900F4",
")	c #1E00D7",
"!	c #8D0043",
"~	c #D00000",
"{	c #C50000",
"]	c #C00000",
"^	c #2700CB",
"/	c #980035",
"(	c #CD0000",
"_	c #2800CA",
":	c #990034",
"<	c #BF0000",
"[	c #C40000",
"}	c #2600CC",
"|	c #970037",
"1	c #D10000",
"2	c #B30000",
"3	c #B50000",
"4	c #C30000",
"5	c #A0A0A0",
"6	c #C10000",
"7	c #000000",
"8	c #1E0000",
"9	c #9A0000",
"0	c #CB0000",
"a	c #A4A49E",
"b	c #A6A79E",
"c	c #BF0001",
"d	c #C60000",
"e	c #1F0000",
"f	c #430000",
"g	c #9E0000",
"h	c #9F9FA1",
"i	c #A3A39E",
"j	c #D60000",
"k	c #A90000",
"l	c #A70000",
"m	c #BA0000",
"n	c #C20001",
"o	c #9898A5",
"p	c #B5000F",
"q	c #950038",
"r	c #990037",
"s	c #9F003B",
"t	c #A9002F",
"u	c #B9000D",
"v	c #ACAC99",
"w	c #8585B0",
"x	c #1D1DEE",
"y	c #0F01ED",
"z	c #1A00DC",
"A	c #1F00D7",
"B	c #2500D3",
"C	c #2E00C8",
"D	c #B1B196",
"E	c #8989AE",
"F	c #3E3EDA",
"G	c #1313F4",
"H	c #0504FB",
"I	c #2100D4",
"J	c #1600E2",
"K	c #C20000",
"L	c #B0B096",
"M	c #A2A29F",
"N	c #8989AD",
"O	c #7574BA",
"P	c #9A0032",
"Q	c #8F0041",
"R	c #A1A19F",
"S	c #7878B8",
"T	c #B9B992",
"U	c #D20000",
"V	c #D90000",
"W	c #1B1BEF",
"X	c #2525E9",
"Y	c #7E8585",
"Z	c #7E8484",
"                                ",
"                                ",
"                                ",
"                                ",
"              ..                ",
"              ..                ",
"    ++    +@  ..          ##    ",
"    ++    $@  ..          ##    ",
"    ++        ..                ",
"    +$        %.                ",
"      &*=.    -.                ",
"      ;>,.    .'                ",
"              .)!~{]            ",
"              .^/({]            ",
"              ._:~  <[  {<      ",
"              .}|1  [2  34      ",
"        55        6{  7890[]    ",
"        ab        cd  efg0[]    ",
"5555  hi    []  6c  jdklmn      ",
"5555  io    p[  ]6  qrstu4      ",
"5555  vwx..y        zABC  {]]]]]",
"5555  DEFGH.        IJ..  d]6K]]",
"  55  LMNO          PQ          ",
"  5R  SwRT          UV          ",
"      WX                    YZ  ",
"      ..                    ++  ",
"          $+        ZZ      ++  ",
"          ++        ++      ++  ",
"        $+          ++        ++",
"        ++          ++        ++",
"                                ",
"                                "};
