/* XPM */
static char*dbg8[]={
"16 16 7 1",
"a c #808080",
"d c #a0a0a0",
"b c #00ff00",
"e c #000000",
"# c #0000ff",
". c None",
"c c #c00000",
"................",
"................",
".......#........",
"..a..a.#.....b..",
"..a....#........",
"...a#..#........",
".......#cc......",
".......#c.c.c...",
"....d....c.ecc..",
"dd.d..c.c.ccc...",
"dd.d##....##.ccc",
".d.dd.....c.....",
"...#..........a.",
".....a....a...a.",
"....a.....a....a",
"................"};
