/* XPM */
static char * downbg5_xpm[] = {
"32 32 25 1",
" 	c None",
".	c #FF0000",
"+	c #808080",
"@	c #7F8181",
"#	c #FE0000",
"$	c #7D8383",
"%	c #F60000",
"&	c #DE0000",
"*	c #D30000",
"=	c #7B8585",
"-	c #DD0000",
";	c #7D0000",
">	c #4E0000",
",	c #7B0000",
"'	c #4A0000",
")	c #DC0000",
"!	c #D00000",
"~	c #7C8484",
"{	c #758B8B",
"]	c #788888",
"^	c #A25E5E",
"/	c #9B6565",
"(	c #FB0404",
"_	c #F10E0E",
":	c #ED1212",
"                                ",
"                                ",
"                                ",
"                                ",
"        ..    ..    ++  ++  ++  ",
"        ..    ..    ++  ++  ++  ",
"        ..    ..    ++  ++  ++  ",
"        ..    ..    @+  ++  ++  ",
"      ..#......#..  $+  ++  ++  ",
"      ...%&**&%...  =+  ++  ++  ",
"      ...-;>>;-...    ++++++    ",
"      ...-,'',-...    ++++++    ",
"      ...%)!!)%...      ++      ",
"      ..#......#..      ~$      ",
"        ........        {]      ",
"        ........        ^/      ",
"    ...................(_:      ",
"    ...................(_:      ",
"  ..    ........        ^/      ",
"  ..    ........        {]      ",
"        ........        ~$      ",
"        ........        ++      ",
"        ........        ++      ",
"        ........        ++      ",
"        ........        ++      ",
"        ........        ++      ",
"      ....    ....      ++      ",
"      ....    ....      ++      ",
"      ....    ....      ++      ",
"      ....    ....      ++      ",
"    ....        ....    ++      ",
"    ....        ....    ++      "};
