/* XPM */
static char*downbg5[]={
"16 16 4 1",
"a c #808080",
"b c #400000",
". c None",
"# c #ff0000",
"................",
"................",
"....#..#..a.a.a.",
"....#..#..a.a.a.",
"...######.a.a.a.",
"...##bb##..aaa..",
"...######...a...",
"....####....a...",
"..###########...",
".#..####....a...",
"....####....a...",
"....####....a...",
"....####....a...",
"...##..##...a...",
"...##..##...a...",
"..##....##..a..."};
