/* XPM */
static char*drabbit[]={
"16 16 5 1",
"# c #808080",
"b c #a0a0a0",
". c None",
"a c #ffffff",
"c c #ff0000",
"................",
"...........#....",
"..ab.......#c...",
"...bbc.....#aa..",
"................",
"................",
"................",
"...#...cc.......",
"..bcc..b..a.c...",
"..bc............",
".ac.............",
"..c.........b#..",
"....b.....##cb..",
"...bb........c..",
".a..b........bb.",
"................"};
