/* XPM */
static char * drabbit_xpm[] = {
"32 32 108 2",
"  	c None",
". 	c #817F7F",
"+ 	c #7D8383",
"@ 	c #7E8282",
"# 	c #867979",
"$ 	c #FFFFFF",
"% 	c #ECECEC",
"& 	c #B5B5B5",
"* 	c #979696",
"= 	c #778A8A",
"- 	c #966767",
"; 	c #DF1111",
"> 	c #FF0000",
", 	c #E8E8E8",
"' 	c #B1B1B1",
") 	c #999B9B",
"! 	c #748787",
"~ 	c #9B6F6F",
"{ 	c #E64141",
"] 	c #FF3A3A",
"^ 	c #A5A5A5",
"/ 	c #9DA2A2",
"( 	c #99AAAA",
"_ 	c #B57C7C",
": 	c #ED1E1E",
"< 	c #757979",
"[ 	c #998E8E",
"} 	c #E4B7B7",
"| 	c #FFD9D9",
"1 	c #FFF5F5",
"2 	c #9E9E9E",
"3 	c #9EA4A4",
"4 	c #9AABAB",
"5 	c #B57D7D",
"6 	c #ED1F1F",
"7 	c #757373",
"8 	c #989D9D",
"9 	c #E3F6F6",
"0 	c #FFFDFD",
"a 	c #758A8A",
"b 	c #728F8F",
"c 	c #FE0202",
"d 	c #976C6C",
"e 	c #9D6161",
"f 	c #EA2323",
"g 	c #EF1B1B",
"h 	c #FA0808",
"i 	c #98AFAF",
"j 	c #AF8282",
"k 	c #D53636",
"l 	c #EC1010",
"m 	c #FA0404",
"n 	c #B28181",
"o 	c #B87878",
"p 	c #94B2B2",
"q 	c #B28484",
"r 	c #F01E1E",
"s 	c #FE0101",
"t 	c #98ADAD",
"u 	c #95B2B2",
"v 	c #FFFEFE",
"w 	c #8EBABA",
"x 	c #B08787",
"y 	c #ED2121",
"z 	c #B38F8F",
"A 	c #BF6767",
"B 	c #EC1E1E",
"C 	c #FBCCCC",
"D 	c #EF4B4B",
"E 	c #EB0F0F",
"F 	c #FEFFFF",
"G 	c #FFC0C0",
"H 	c #FF2525",
"I 	c #FF0A0A",
"J 	c #9BB4B4",
"K 	c #92A4A4",
"L 	c #838787",
"M 	c #7B7979",
"N 	c #B57E7E",
"O 	c #AB8181",
"P 	c #8E8787",
"Q 	c #808B8B",
"R 	c #9FA1A1",
"S 	c #A0A0A0",
"T 	c #808080",
"U 	c #778888",
"V 	c #9D6565",
"W 	c #DF2828",
"X 	c #DF3737",
"Y 	c #A68888",
"Z 	c #8AB0B0",
"` 	c #788989",
" .	c #9B6262",
"..	c #F00505",
"+.	c #FC0D0D",
"@.	c #C76565",
"#.	c #B28888",
"$.	c #F51414",
"%.	c #F41414",
"&.	c #9F9F9F",
"*.	c #F21717",
"=.	c #EC2020",
"-.	c #B18484",
";.	c #A59898",
">.	c #97AFAF",
",.	c #99ABAB",
"'.	c #9EA3A3",
").	c #A19F9F",
"                                                                ",
"                                                                ",
"                                            . +                 ",
"                                            @ #                 ",
"        $ % & *                             = - ; >             ",
"        $ , ' )                             ! ~ { ]             ",
"            ^ / ( _ : >                     < [ } | 1 $         ",
"            2 3 4 5 6 >                     7 8 9 $ $ 0         ",
"                                                                ",
"                                                                ",
"                                                                ",
"                                                                ",
"                                                                ",
"                                                                ",
"            a b             > > > c                             ",
"            d e             f g h >                             ",
"        i j k l m >         n o         $ $     > >             ",
"        p q r > > s         t u         v $     > >             ",
"        w x y >                                                 ",
"        z A B >                                                 ",
"    $ C D E                                                     ",
"    F G H >                                                     ",
"        I >                                     J K L M         ",
"        > >                                     N O P Q         ",
"                R S                     T + U V W X Y Z         ",
"                S S                     T + `  ...+.@.#.        ",
"            R S S S                                 $.%.        ",
"            &.S S S                                 *.=.        ",
"    $ $         S S                                 5 -.;.3     ",
"    $ $         S S                                 >.,.'.).    ",
"                                                                ",
"                                                                "};
