/* XPM */
static char*dsheep[]={
"16 16 3 1",
"# c #808080",
". c None",
"a c #ffffff",
"................",
"...........#....",
"..a........#a...",
"...aa......#aa..",
"................",
"................",
"................",
"...#............",
"..a....a..a.....",
"..a.............",
".a..............",
".............#..",
"....a.....####..",
"...aa...........",
".a..a...........",
"................"};
