/* XPM */
static char * dsheep_xpm[] = {
"32 32 21 1",
" 	c None",
".	c #818181",
"+	c #7D7D7D",
"@	c #7E7E7E",
"#	c #868686",
"$	c #FFFFFF",
"%	c #777777",
"&	c #969696",
"*	c #DFDFDF",
"=	c #747474",
"-	c #9B9B9B",
";	c #E6E6E6",
">	c #757575",
",	c #999999",
"'	c #E4E4E4",
")	c #989898",
"!	c #E3E3E3",
"~	c #878787",
"{	c #F6F6F6",
"]	c #FEFEFE",
"^	c #808080",
"                                ",
"                                ",
"                      .+        ",
"                      @#        ",
"    $$                %&*$      ",
"    $$                =-;$      ",
"      $$$$            >,'$$$    ",
"      $$$$            >)!$$$    ",
"                                ",
"                                ",
"                                ",
"                                ",
"                                ",
"                                ",
"      +.                        ",
"      ~@                        ",
"    ${        $$    $$          ",
"    ]$        $$    $$          ",
"    $$                          ",
"    $$                          ",
"  $$                            ",
"  $$                            ",
"                          ^^    ",
"                          ^^    ",
"        $$          ^^^^^^^^    ",
"        $$          ^^^^^^^^    ",
"      $$$$                      ",
"      $$$$                      ",
"  $$    $$                      ",
"  $$    $$                      ",
"                                ",
"                                "};
