/* XPM */
static char*heart2[]={
"16 16 3 1",
"a c #ffc0c0",
". c None",
"# c #ff0000",
"................",
"...###....###...",
"..#####..#####..",
".###aa#####aa##.",
"###aaaa###aaaa##",
"#####aaa####aaa#",
"######aa#####aa#",
"################",
".##############.",
"..############..",
"...##########...",
"....########....",
".....######.....",
"......####......",
".......##.......",
"................"};
