/* XPM */
static char*heart1[]={
"16 16 3 1",
"a c #ffc0c0",
". c None",
"# c #ff0000",
"................",
"................",
"...###....###...",
"..#####..#####..",
".##aaa####aaa##.",
".####aa#####aa#.",
".#####a######a#.",
".##############.",
"..############..",
"...##########...",
"....########....",
".....######.....",
"......####......",
".......##.......",
"................",
"................"};
