/* XPM */
static char * heart1_xpm[] = {
"32 32 44 1",
" 	c None",
".	c #FF0000",
"+	c #FF0202",
"@	c #FF0808",
"#	c #FF2222",
"$	c #FF2F2F",
"%	c #FF2D2D",
"&	c #FF2C2C",
"*	c #FF2B2B",
"=	c #FF1D1D",
"-	c #FF0404",
";	c #FF2121",
">	c #FF8383",
",	c #FFB3B3",
"'	c #FFABAB",
")	c #FFA8A8",
"!	c #FF7575",
"~	c #FF1212",
"{	c #FF0101",
"]	c #FF8585",
"^	c #FFB1B1",
"/	c #FFA7A7",
"(	c #FFD5D5",
"_	c #FFB4B4",
":	c #FF4E4E",
"<	c #FF1313",
"[	c #FF0303",
"}	c #FF0909",
"|	c #FF2323",
"1	c #FF4F4F",
"2	c #FFD6D6",
"3	c #FF7373",
"4	c #FF1B1B",
"5	c #FFB5B5",
"6	c #FFD9D9",
"7	c #FF2929",
"8	c #FF5252",
"9	c #FFBFBF",
"0	c #FFAFAF",
"a	c #FF1717",
"b	c #FF8282",
"c	c #FF8686",
"d	c #FF2020",
"e	c #FF0505",
"                                ",
"                                ",
"                                ",
"                                ",
"      ......        ......      ",
"      ......        ......      ",
"    +........+    +........+    ",
"    .@#$%&*=-.    .@#$%&*=-.    ",
"  ...;>,'))!~..{...;>,'))!~..+  ",
"  ...#]^/,(_:<-....#]^/,(_:~[.  ",
"  ...}|*;1_2_!=....}|*;1_2_34.  ",
"  ..{....<356'&...{....<356/7.  ",
"  ........~89,$.........~890&.  ",
"  ......{..abc|.......{..abbd.  ",
"  .........e;#}..........e;;@.  ",
"  ........{....{........{....+  ",
"    ........................    ",
"    ........................    ",
"      ....................      ",
"      ....................      ",
"        ................        ",
"        ................        ",
"          ............          ",
"          ............          ",
"            ........            ",
"            ........            ",
"              ....              ",
"              ....              ",
"                                ",
"                                ",
"                                ",
"                                "};
