/* XPM */
static char * heart2_xpm[] = {
"32 32 50 1",
" 	c None",
".	c #FF0000",
"+	c #FF0101",
"@	c #FF0202",
"#	c #FF0404",
"$	c #FF1E1E",
"%	c #FF2B2B",
"&	c #FF1D1D",
"*	c #FF1313",
"=	c #FF7777",
"-	c #FFA9A9",
";	c #FF7676",
">	c #FF0505",
",	c #FF1717",
"'	c #FF5050",
")	c #FFB2B2",
"!	c #FFE1E1",
"~	c #FFDEDE",
"{	c #FFADAD",
"]	c #FF4C4C",
"^	c #FF1212",
"/	c #FF2121",
"(	c #FF8282",
"_	c #FFBBBB",
":	c #FFCECE",
"<	c #FFD3D3",
"[	c #FFCBCB",
"}	c #FFBFBF",
"|	c #FFAEAE",
"1	c #FF7373",
"2	c #FF2222",
"3	c #FF8686",
"4	c #FF9D9D",
"5	c #FFA1A1",
"6	c #FFCDCD",
"7	c #FFD8D8",
"8	c #FF0909",
"9	c #FF2323",
"0	c #FF2A2A",
"a	c #FF4949",
"b	c #FFACAC",
"c	c #FF7474",
"d	c #FFCFCF",
"e	c #FFDFDF",
"f	c #FFA8A8",
"g	c #FFE4E4",
"h	c #FF7A7A",
"i	c #FF1F1F",
"j	c #FF7979",
"k	c #FF0808",
"                                ",
"                                ",
"      ......        ......      ",
"      ......        ......      ",
"    ..+......@    ..+......@    ",
"    ...#$%%&#.    ...#$%%&#.    ",
"  ..+..*=--;*..+..+..*=--;*..@  ",
"  ...>,')!~{]^.....>,')!~{]^..  ",
"...../(_:<[}|1^..../(_:<[}|1^..+",
".....23|45_67{]*#..23|45_67|]*#.",
".....890&ab76}b=$..890&ab76}{;$.",
"....+....*c{}def%......*c{}def%.",
"..........^]begf%.......^]begf%.",
"........+..*=ffhi.....+..*=ffji.",
"...........#$%%ik........#$%%ik.",
"..........+......+......+......+",
"  ............................  ",
"  ............................  ",
"    ........................    ",
"    ........................    ",
"      ....................      ",
"      ....................      ",
"        ................        ",
"        ................        ",
"          ............          ",
"          ............          ",
"            ........            ",
"            ........            ",
"              ....              ",
"              ....              ",
"                                ",
"                                "};
