/* XPM */
static char * lbg1_xpm[] = {
"32 32 106 2",
"  	c None",
". 	c #007E00",
"+ 	c #008000",
"@ 	c #007C00",
"# 	c #008E00",
"$ 	c #00B400",
"% 	c #00C700",
"& 	c #008200",
"* 	c #007D00",
"= 	c #007A00",
"- 	c #008D00",
"; 	c #00B500",
"> 	c #00C400",
", 	c #00D000",
"' 	c #008900",
") 	c #007800",
"! 	c #007600",
"~ 	c #008C00",
"{ 	c #00BA00",
"] 	c #00BD00",
"^ 	c #009200",
"/ 	c #00AE00",
"( 	c #009700",
"_ 	c #008B00",
": 	c #009600",
"< 	c #00AF00",
"[ 	c #00A900",
"} 	c #008800",
"| 	c #008300",
"1 	c #00BB00",
"2 	c #00B900",
"3 	c #00B700",
"4 	c #00AB00",
"5 	c #008500",
"6 	c #008700",
"7 	c #00B300",
"8 	c #00B800",
"9 	c #007700",
"0 	c #008600",
"a 	c #00AA00",
"b 	c #00B600",
"c 	c #009C00",
"d 	c #007900",
"e 	c #01BF01",
"f 	c #00C300",
"g 	c #00CE00",
"h 	c #00D200",
"i 	c #00D100",
"j 	c #01CF01",
"k 	c #008A00",
"l 	c #008100",
"m 	c #00A800",
"n 	c #00C000",
"o 	c #00C800",
"p 	c #007500",
"q 	c #08B808",
"r 	c #20A020",
"s 	c #2C942C",
"t 	c #2A962A",
"u 	c #289928",
"v 	c #00AD00",
"w 	c #009300",
"x 	c #009400",
"y 	c #00CB00",
"z 	c #219F21",
"A 	c #823E82",
"B 	c #B10FB1",
"C 	c #AF11AF",
"D 	c #883988",
"E 	c #299B29",
"F 	c #00C200",
"G 	c #00AC00",
"H 	c #00CC00",
"I 	c #229E22",
"J 	c #853B85",
"K 	c #B60AB6",
"L 	c #B709B7",
"M 	c #833F83",
"N 	c #20A520",
"O 	c #00BC00",
"P 	c #007400",
"Q 	c #007300",
"R 	c #007B00",
"S 	c #09B709",
"T 	c #239D23",
"U 	c #309030",
"V 	c #229F22",
"W 	c #09BC09",
"X 	c #008F00",
"Y 	c #00C600",
"Z 	c #01B501",
"` 	c #009900",
" .	c #009A00",
"..	c #007F00",
"+.	c #00C100",
"@.	c #00C500",
"#.	c #00BE00",
"$.	c #00A600",
"%.	c #009B00",
"&.	c #00BF00",
"*.	c #00A700",
"=.	c #009500",
"-.	c #00B100",
";.	c #008400",
">.	c #00CA00",
",.	c #00B200",
"                                                                ",
"                                                                ",
"                                                                ",
"                                                                ",
"                            . + + . @ # $ %                     ",
"                            & . . * = - ; >                     ",
"                        , $ ' ) = = ! ~ { ] ^ !                 ",
"                        $ / ( ~ # - _ : < [ } .                 ",
"                    * | ' ( < 1 2 3 3 4 : 5 = 6 7 8 # =         ",
"                    | @ 9 0 a { b 1 % b } ) 5 c ] b ~ d         ",
"e f g h i h     j ; ' 9 ) * 6 k 0 ( 1 ; 0 l m n o ; k p         ",
"f q r s t u     8 v ( ~ # # _ } 0 : { { ( w / { 8 a x '         ",
"y z A B C D E n ( x / 1 2 3 b b ; 2 F > ] / ( k k : / G - =     ",
"H I J K L M N O ' l m 1 2 8 8 8 8 3 $ ; { a 0 P Q _ { { # R     ",
"f S T U U V W ; } ) 5 ~ # X X X X # # - ~ 6 * 9 p k 8 2 # R . + ",
"e f y g g H Y Z ` k k 5 * d = = = = d * 5 _ # # _  .{ 3 # @ ..+ ",
"n +.f @.@.> +.#.{ 3 b $.5 ! d = = d ! 5 $.3 8 8 3 1 f $ - @ ..+ ",
"n n n n n n +.] 8 1 % O  ._ - # # - _  .O % O b b 1 > $ ~ = . + ",
"                _ ` 1 % O b 3 8 8 3 b O % O  .' ' %.&.8 _ !     ",
"                d 5 $.b 3 3 b b b b 3 3 3 *.6 ! p 0 [ v =.k     ",
"            o -.' . } - # # # # # # # # - ' & @ = @ & w 4 3     ",
"            @.$ X = = = = = = = = = = = = R . ;.~ ~ 0 =.2 >.    ",
"        n F @.,.~ R                             ,.$ -.; #.f     ",
"        n +.f $ - !                             % @.@.f +.n     ",
"        n n +.O                                     F +.n n     ",
"        n n n +.                                    n n n n     ",
"            n n +.F                                 n n n n     ",
"            n n n n                                 n n n n     ",
"            n n n n n n                         n n n n         ",
"            n n n n n n                         n n n n         ",
"                                                                ",
"                                                                "};
