/* XPM */
static char*lbg12[]={
"16 16 4 1",
"a c #00ff00",
". c None",
"# c #585858",
"b c #ffffff",
"....####........",
".####a##........",
"...######.......",
".########.......",
"....######......",
".....#####......",
".....bb####.....",
"....bbb#####....",
"....bbb#####....",
"...#bb###b##....",
"..##bb###bb#....",
"..##bbb##bb#....",
"..#..bb##bb#....",
"......bb#bb##...",
".......bbb####..",
".....#bbbb......"};
