/* XPM */
static char * lbg12_xpm[] = {
"32 32 103 2",
"  	c None",
". 	c #575957",
"+ 	c #595659",
"@ 	c #5D4E5D",
"# 	c #595559",
"$ 	c #585958",
"% 	c #585858",
"& 	c #5A555A",
"* 	c #546054",
"= 	c #477847",
"- 	c #477947",
"; 	c #536153",
"> 	c #585758",
", 	c #5A545A",
"' 	c #5E4D5E",
") 	c #16D516",
"! 	c #16D616",
"~ 	c #575757",
"{ 	c #555555",
"] 	c #545454",
"^ 	c #4D4D4D",
"/ 	c #4C4C4C",
"( 	c #4B4B4B",
"_ 	c #4F4F4F",
": 	c #565656",
"< 	c #595959",
"[ 	c #7A7A7A",
"} 	c #7B7B7B",
"| 	c #7C7C7C",
"1 	c #737373",
"2 	c #5F5F5F",
"3 	c #DDDDDD",
"4 	c #E0E0E0",
"5 	c #E6E6E6",
"6 	c #C2C2C2",
"7 	c #FFFFFF",
"8 	c #FEFEFE",
"9 	c #E7E7E7",
"0 	c #7D7D7D",
"a 	c #4E4E4E",
"b 	c #F6F6F6",
"c 	c #FBFBFB",
"d 	c #EDEDED",
"e 	c #C0C0C0",
"f 	c #727272",
"g 	c #525252",
"h 	c #606060",
"i 	c #767676",
"j 	c #757575",
"k 	c #5C5C5C",
"l 	c #454545",
"m 	c #7E7E7E",
"n 	c #E5E5E5",
"o 	c #979797",
"p 	c #6A6A6A",
"q 	c #CCCCCC",
"r 	c #C9C9C9",
"s 	c #6C6C6C",
"t 	c #535353",
"u 	c #D9D9D9",
"v 	c #DADADA",
"w 	c #3F3F3F",
"x 	c #515151",
"y 	c #808080",
"z 	c #F1F1F1",
"A 	c #9E9E9E",
"B 	c #686868",
"C 	c #5B5B5B",
"D 	c #797979",
"E 	c #DCDCDC",
"F 	c #E3E3E3",
"G 	c #F2F2F2",
"H 	c #BDBDBD",
"I 	c #707070",
"J 	c #E4E4E4",
"K 	c #484848",
"L 	c #494949",
"M 	c #444444",
"N 	c #474747",
"O 	c #787878",
"P 	c #DEDEDE",
"Q 	c #3E3E3E",
"R 	c #464646",
"S 	c #999999",
"T 	c #656565",
"U 	c #747474",
"V 	c #DBDBDB",
"W 	c #4A4A4A",
"X 	c #FCFCFC",
"Y 	c #EFEFEF",
"Z 	c #B9B9B9",
"` 	c #666666",
" .	c #D6D6D6",
"..	c #EBEBEB",
"+.	c #8F8F8F",
"@.	c #8C8C8C",
"#.	c #EEEEEE",
"$.	c #959595",
"%.	c #DFDFDF",
"&.	c #3C3C3C",
"*.	c #505050",
"=.	c #D8D8D8",
"-.	c #F5F5F5",
"                . + @ @ # $ % %                                 ",
"                & * = - ; # > %                                 ",
"    % % % % % , ' = ) ! - @ & %                                 ",
"    % % % % % & @ - ! ! - @ & %                                 ",
"            % > # ; - - ; # > % % %                             ",
"            % % $ # @ @ # $ % % % %                             ",
"    % % % % % % % > & & > % % % % %                             ",
"    % % % % % % % % % % % % % % % %                             ",
"                % % % % % % % % % % % %                         ",
"                % ~ { ] ] { ~ % % % % %                         ",
"                    ^ / ( _ : < % % % %                         ",
"                    [ } | 1 2 : ~ % % %                         ",
"                    3 4 5 6 1 _ { % % % % %                     ",
"                    7 7 7 5 | ( ] % % % % %                     ",
"                7 7 7 7 7 4 } / ] % % % % % % %                 ",
"                7 7 7 7 7 4 } / ] ~ { { ~ % % %                 ",
"                7 8 8 7 7 9 0 / { { a a { < % %                 ",
"                b 7 7 c d e f a g h i j k g : %                 ",
"            l m 4 7 7 n o p k g a i q r s l t <                 ",
"            ( i u 7 7 v s w x { / y z c A B C {                 ",
"        % ] / D E 7 7 v s w x { / | F 7 G H I /                 ",
"        % ] ^ [ 3 7 7 n o p k g ( [ E 7 7 J [ K                 ",
"        % ] / [ 3 7 7 c d e f ( L [ 3 7 7 3 D L                 ",
"        % { ^ [ 3 7 7 7 7 5 D M N [ 3 7 7 v O L                 ",
"        % ~         7 7 7 P I Q R } 3 7 7 v O L                 ",
"        % %         7 7 7 5 S T ^ U V 7 7 P D W                 ",
"                        7 X Y Z k `  .7 7 9 | ( t %             ",
"                        7 7 7 ..+.@.F 7 #.H f _ { %             ",
"                            7 c F n 7 n $.B k : ~ % % %         ",
"                            7 7 7 7 7 %.U &.*.< % % % %         ",
"                    W i =.7 7 7 7 7 7 -.                        ",
"                    L O v 7 7 7 7 7 8 7                         "};
