/* XPM */
static char*lbg1[]={
"16 16 4 1",
"# c #008000",
". c None",
"a c #00c000",
"b c #c000c0",
"................",
"................",
".......###a.....",
"......a###a#....",
".....##aaa##a#..",
"aaa.a####a#aa#..",
"abba#aaaaaa##a#.",
"aaaa#########a##",
"aaaaaa####aaaa##",
"....#aaaaaa##a#.",
"...a##########a.",
"..aa#.......aaa.",
"..aa.........aa.",
"...aa........aa.",
"...aaa......aa..",
"................"};
