/* XPM */
static char * lbg3a_xpm[] = {
"32 32 94 2",
"  	c None",
". 	c #808080",
"+ 	c #83837D",
"@ 	c #83837E",
"# 	c #7F7F81",
"$ 	c #82827E",
"% 	c #888878",
"& 	c #888879",
"* 	c #858580",
"= 	c #848486",
"- 	c #818181",
"; 	c #7A7A86",
"> 	c #686899",
", 	c #666697",
"' 	c #747480",
") 	c #787874",
"! 	c #7F7F7F",
"~ 	c #2323E1",
"{ 	c #1A1AD8",
"] 	c #4F4F80",
"^ 	c #646454",
"/ 	c #595953",
"( 	c #626262",
"_ 	c #7C7C7C",
": 	c #858585",
"< 	c #68689A",
"[ 	c #2323E3",
"} 	c #1717D7",
"| 	c #444477",
"1 	c #5A5A4A",
"2 	c #575752",
"3 	c #5E5E5E",
"4 	c #717171",
"5 	c #7E7E7E",
"6 	c #818180",
"7 	c #7A7A88",
"8 	c #6A6A9C",
"9 	c #5F5F91",
"0 	c #595966",
"a 	c #565652",
"b 	c #575756",
"c 	c #595959",
"d 	c #5C5C5C",
"e 	c #676767",
"f 	c #7A7A7A",
"g 	c #828282",
"h 	c #868686",
"i 	c #7B7B7D",
"j 	c #81817D",
"k 	c #8A8A7A",
"l 	c #808070",
"m 	c #62625E",
"n 	c #555556",
"o 	c #575758",
"p 	c #565656",
"q 	c #525252",
"r 	c #5D5D5D",
"s 	c #777777",
"t 	c #838383",
"u 	c #767676",
"v 	c #9E9E9E",
"w 	c #EAEAEA",
"x 	c #FFFFFF",
"y 	c #707071",
"z 	c #7B7B7A",
"A 	c #84847E",
"B 	c #7B7B76",
"C 	c #616160",
"D 	c #555555",
"E 	c #575757",
"F 	c #797979",
"G 	c #979797",
"H 	c #E4E4E4",
"I 	c #A4A4A4",
"J 	c #898989",
"K 	c #5F5F5F",
"L 	c #585858",
"M 	c #FAFAFA",
"N 	c #D8D8D8",
"O 	c #999999",
"P 	c #707070",
"Q 	c #545454",
"R 	c #FBFBFB",
"S 	c #D7D7D7",
"T 	c #989898",
"U 	c #5B5B5B",
"V 	c #686868",
"W 	c #7B7B7B",
"X 	c #A7A7A7",
"Y 	c #959595",
"Z 	c #757575",
"` 	c #747474",
" .	c #848484",
"..	c #7D7D7D",
"                                                                ",
"                                                                ",
"                                                                ",
"                                                                ",
"                                                                ",
"                                                                ",
"                . .                 . . . . . . . . . .         ",
"                + @                 . . . . . . . . . .         ",
"            # $ % & * =     - . . . . . . . . . . . . . . .     ",
"            $ ; > , ' )     ! - . . . . . . . . . . . . . .     ",
"        . + % > ~ { ] ^ / ( _ : - . . . . . . . . . . . . . . . ",
"        ! $ & < [ } | 1 2 3 4 _ ! - . . . . . . . . . . . . . . ",
"        5 6 $ 7 8 9 0 a b c d e f g - . . . . . . . . . . . . . ",
"        h f i j k l m n o p q r s t - . . . . . . . . . . . . . ",
"u v w x     y z A B C D E p q r s t - . . . . . . . . . . . . . ",
"F G H x     I G J u K D p L d e f g - . . . . . . . . . . . . . ",
"5 :     x x M N O P r Q q d P _ ! - . . . . . . . . . . . . . . ",
"- f     x x R S T 4 3 p U V _ : - . . . . . . . . . . . . . . . ",
". ! W :     X Y h _     Z f ! - . . . . . . . . . . . . . . . . ",
". . - 5     ` F 5 g      .g - . . . . . . . . . . . . . . . . . ",
"    . ! .._ ....        - - . . . . . . . . . . . . . . . .     ",
"    . . . . . .         . . . . . . . . . . . . . . . . . .     ",
"                        . . . . . . . . . . . . . . . . . .     ",
"                        . . . . . . . . . . . . . . . . . .     ",
"                        . . . .                     . . . .     ",
"                        . . . .                     . . . .     ",
"                        . . . .                     . . . .     ",
"                        . . . .                     . . . .     ",
"                                                                ",
"                                                                ",
"                                                                ",
"                                                                "};
