/* XPM */
static char*lbg3[]={
"16 16 5 1",
"# c #808080",
"a c #0000ff",
". c None",
"b c #585858",
"c c #ffffff",
"................",
"................",
"................",
"....#....#####..",
"...###.########.",
"..##abb#########",
"..###bbb########",
"#c.##bbb########",
"#.cc#bb#########",
"##.##.##########",
".###..#########.",
"......#########.",
"......##.....##.",
"......##.....##.",
"................",
"................"};
