/* XPM */
static char * lbg3b_xpm[] = {
"40 40 70 1",
" 	c None",
".	c #DCDCDC",
"+	c #DCDDDD",
"@	c #DCDBDB",
"#	c #DBE0E0",
"$	c #D9ECEC",
"%	c #DDDDDD",
"&	c #DED1D1",
"*	c #E2B3B3",
"=	c #585858",
"-	c #575757",
";	c #F53D3D",
">	c #F63A3A",
",	c #E3B1B1",
"'	c #DAE9E9",
")	c #F63737",
"!	c #595959",
"~	c #535353",
"{	c #E2E2E2",
"]	c #565656",
"^	c #5B5B5B",
"/	c #E0E0E0",
"(	c #DBDFDF",
"_	c #555555",
":	c #515151",
"<	c #6D6D6D",
"[	c #BBBBBB",
"}	c #E7E7E7",
"|	c #DFDFDF",
"1	c #4B4B4B",
"2	c #717171",
"3	c #C1C1C1",
"4	c #E6E6E6",
"5	c #434343",
"6	c #6A6A6A",
"7	c #BDBDBD",
"8	c #E8E8E8",
"9	c #E5E5E5",
"0	c #6B6B6B",
"a	c #8A8A8A",
"b	c #CACACA",
"c	c #E1E1E1",
"d	c #BFBFBF",
"e	c #C0C0C0",
"f	c #B8B8B8",
"g	c #4E4E4E",
"h	c #AFAFAF",
"i	c #D2D2D2",
"j	c #D1D1D1",
"k	c #8B8B8B",
"l	c #707070",
"m	c #DEDEDE",
"n	c #4F4F4F",
"o	c #747474",
"p	c #CBCBCB",
"q	c #ECECEC",
"r	c #D3D3D3",
"s	c #A7A7A7",
"t	c #656565",
"u	c #464646",
"v	c #494949",
"w	c #4A4A4A",
"x	c #797979",
"y	c #C6C6C6",
"z	c #E4E4E4",
"A	c #7C7C7C",
"B	c #525252",
"C	c #D6D6D6",
"D	c #DBDBDB",
"E	c #545454",
"                                        ",
"                                        ",
"        ........................        ",
"        ........................        ",
"          ....                ........  ",
"          ....                ........  ",
"                                    ..  ",
"                                    ..  ",
"                        ..............  ",
"                        ..............  ",
"                    ..................  ",
"                    ..................  ",
"      ....  ....  ....................  ",
"      ....  ....  ....................  ",
"      ....  ....  ....................  ",
"      ...+  +...  ....................  ",
"      ..@#$$#@........................  ",
"      %+#&**&#+.......................  ",
"  =-    $*;>,'#...................  ..  ",
"  =-    $*>),'#...................  ..  ",
"  !~  {+#&,,&#+...................  ..  ",
"  ]^  /.@#''(@....................  ..  ",
"=_:<[}|..+##+...................        ",
"=~1234{|||/|%...................        ",
"  5678}498    ..      ....              ",
"  0abcbdef    %.      ....              ",
"g2hi8jk0l6~079m.    ....                ",
"nopqrstuvwvxyz|.    ....                ",
"    A0^B    Cm      ..                  ",
"    1:]!    cD      ..                  ",
"    E_  =-                              ",
"    ==  ==                              ",
"    ==    =-                            ",
"    ==    ==                            ",
"    ==                                  ",
"    ==                                  ",
"                                        ",
"                                        ",
"                                        ",
"                                        "};
