/* XPM */
static char*lbg3b[]={
"20 20 4 1",
". c None",
"a c #585858",
"# c #dcdcdc",
"b c #ff0000",
"....................",
"....############....",
".....##........####.",
"..................#.",
"............#######.",
"..........#########.",
"...##.##.##########.",
"...##.##.##########.",
"...################.",
".a..#b###########.#.",
".a.##############.#.",
"aa##############....",
".a###..#...##.......",
"a##aaa##..##........",
"..aa..#...#.........",
"..a.a...............",
"..a..a..............",
"..a.................",
"....................",
"...................."};
