/* XPM */
static char * lbg5_xpm[] = {
"32 32 118 2",
"  	c None",
". 	c #008000",
"+ 	c #008300",
"@ 	c #007F02",
"# 	c #008200",
"$ 	c #008700",
"% 	c #008900",
"& 	c #007E00",
"* 	c #007909",
"= 	c #006B28",
"- 	c #006439",
"; 	c #006339",
"> 	c #006C28",
", 	c #007B09",
"' 	c #007100",
") 	c #007900",
"! 	c #006528",
"~ 	c #002EA0",
"{ 	c #0111DF",
"] 	c #0010DF",
"^ 	c #00319D",
"/ 	c #006D26",
"( 	c #3B9D00",
"_ 	c #2F9B00",
": 	c #36A400",
"< 	c #297839",
"[ 	c #0B16DF",
"} 	c #0000FF",
"| 	c #0013D9",
"1 	c #006535",
"2 	c #008C00",
"3 	c #FFFF00",
"4 	c #F2F800",
"5 	c #D1E800",
"6 	c #C9E700",
"7 	c #D7F500",
"8 	c #A2B439",
"9 	c #2925DE",
"0 	c #FEFF00",
"a 	c #D9D729",
"b 	c #374AA2",
"c 	c #0007DE",
"d 	c #000DDE",
"e 	c #00319E",
"f 	c #006D27",
"g 	c #D0E10B",
"h 	c #358529",
"i 	c #005A39",
"j 	c #006139",
"k 	c #007B0A",
"l 	c #FFC900",
"m 	c #FFC800",
"n 	c #FFC600",
"o 	c #FFC400",
"p 	c #FFC100",
"q 	c #FFD400",
"r 	c #FFFE01",
"s 	c #D0EE00",
"t 	c #35A300",
"u 	c #008100",
"v 	c #FF2700",
"w 	c #FF2600",
"x 	c #FF2300",
"y 	c #FF1C00",
"z 	c #FE1200",
"A 	c #FF5400",
"B 	c #FFE300",
"C 	c #DBFD00",
"D 	c #38A300",
"E 	c #007A00",
"F 	c #008001",
"G 	c #FF2200",
"H 	c #FF1800",
"I 	c #FE4E00",
"J 	c #E5C500",
"K 	c #9EDE00",
"L 	c #289900",
"M 	c #FEC900",
"N 	c #FFCB00",
"O 	c #FFD100",
"P 	c #E6C400",
"Q 	c #65A600",
"R 	c #1A9100",
"S 	c #058400",
"T 	c #007F00",
"U 	c #007B00",
"V 	c #F9FF00",
"W 	c #E4FF00",
"X 	c #9CDC00",
"Y 	c #1A9000",
"Z 	c #007000",
"` 	c #018100",
" .	c #008B00",
"..	c #43A900",
"+.	c #269700",
"@.	c #007C00",
"#.	c #007700",
"$.	c #00AE00",
"%.	c #00AF00",
"&.	c #007400",
"*.	c #007D00",
"=.	c #008F00",
"-.	c #009800",
";.	c #00B300",
">.	c #008800",
",.	c #00AB00",
"'.	c #00BD00",
").	c #00BC00",
"!.	c #00B000",
"~.	c #009000",
"{.	c #008E00",
"].	c #009700",
"^.	c #007800",
"/.	c #00AC00",
"(.	c #00BB00",
"_.	c #00B900",
":.	c #00B800",
"<.	c #00BA00",
"                                                                ",
"                                                                ",
"                    . . . .                                     ",
"                    + + + +                                     ",
"                @ # $ % % $ # @                                 ",
"                & * = - ; > , #                                 ",
"            ' ) & ! ~ { ] ^ / %                                 ",
"            ( _ : < [ } } | 1 2                                 ",
"        3 4 5 6 7 8 9 } } | 1 2                                 ",
"        0 3 3 3 3 a b c d e f %                                 ",
"3 3 3 3 3 3 3 3 3 g h i j > k #                                 ",
"l l l m n o p q r s t u $ $ # @                                 ",
"v v v w x y z A B C D E . # u F                                 ",
"v v v v v G H I J K L ) & . . .                                 ",
"l l l l M N O P Q R S & T . . . . . . . . . . . . T U U T . . . ",
"3 3 3 3 3 V W X Y Z U ` . . . . . . . . . . T & & #  .2 + T . . ",
"            ..+.S U T . . . . . . . . . . T @.E #.% $.%.2 @.T . ",
"            &.) & ` . . T & & & & & & & *.#  .=.2 -.;.%.2 @.& . ",
"            @.& T . . T @.U U @.@.@.@.E #.>.,.'.).!.-.>.# T     ",
"            . . . . T + 2 ~.=.{.{.{.{.{.2 ].%.).'.,.$ ^.*.u     ",
"            . . . T @. ./.(._.:.:.:.:.:.<.%.].2 =. .u *.        ",
"            . . . T @. ./.(._.:.:.:.:._.).,.>.#.E @.T u         ",
"                . . T + 2 ~.=.{.{.{.{.=.~. .# *.& T             ",
"                . . . T *.U U U U U U U U *.T . . .             ",
"                    . . T & & & & & & & & T . .                 ",
"                    . . . . . . . . . . . . . .                 ",
"                            . . . . . .                         ",
"                            . . . . . .                         ",
"                                                                ",
"                                                                ",
"                                                                ",
"                                                                "};
