/* XPM */
static char * lbg8_xpm[] = {
"32 32 111 2",
"  	c None",
". 	c #808080",
"+ 	c #7F7F7F",
"@ 	c #7D7D7D",
"# 	c #7E7E7E",
"$ 	c #BE0000",
"% 	c #C40000",
"& 	c #CE0000",
"* 	c #898789",
"= 	c #868686",
"- 	c #C30000",
"; 	c #B70000",
"> 	c #9D0000",
", 	c #C50000",
"' 	c #B197B1",
") 	c #A998A9",
"! 	c #9D999D",
"~ 	c #989A98",
"{ 	c #C00000",
"] 	c #CC0000",
"^ 	c #9C0000",
"/ 	c #340000",
"( 	c #330000",
"_ 	c #9B0000",
": 	c #CF0000",
"< 	c #D30000",
"[ 	c #7DB47D",
"} 	c #85B185",
"| 	c #9AA69A",
"1 	c #A5A0A5",
"2 	c #C70000",
"3 	c #9A0000",
"4 	c #2F0000",
"5 	c #300000",
"6 	c #C20000",
"7 	c #A00000",
"8 	c #9E0000",
"9 	c #B096B0",
"0 	c #7DB57D",
"a 	c #28E728",
"b 	c #2CE52C",
"c 	c #82B382",
"d 	c #AB9AAA",
"e 	c #A49DA3",
"f 	c #9EA9A9",
"g 	c #BF0000",
"h 	c #C60000",
"i 	c #B50000",
"j 	c #AB9AAB",
"k 	c #84B184",
"l 	c #27E827",
"m 	c #80B380",
"n 	c #A99BAA",
"o 	c #A3A0A5",
"p 	c #A19C9C",
"q 	c #D10000",
"r 	c #D40000",
"s 	c #D00000",
"t 	c #990000",
"u 	c #A0A0A0",
"v 	c #A19FA1",
"w 	c #A39EA3",
"x 	c #98A598",
"y 	c #81B281",
"z 	c #A2A1A5",
"A 	c #9FA8A9",
"B 	c #A58686",
"C 	c #B82828",
"D 	c #CD0000",
"E 	c #310000",
"F 	c #9FA09F",
"G 	c #AA9AAA",
"H 	c #9EA4A3",
"I 	c #9DACAC",
"J 	c #A77E7E",
"K 	c #BA1F1F",
"L 	c #B60000",
"M 	c #C10000",
"N 	c #9FA4A4",
"O 	c #9EACAB",
"P 	c #A77F7F",
"Q 	c #BA2020",
"R 	c #9EABAB",
"S 	c #A68080",
"T 	c #B92121",
"U 	c #C40101",
"V 	c #9D0101",
"W 	c #BA0000",
"X 	c #C80000",
"Y 	c #B70101",
"Z 	c #C00101",
"` 	c #BC1C1C",
" .	c #B41616",
"..	c #B31919",
"+.	c #BC0808",
"@.	c #CA0707",
"#.	c #B81717",
"$.	c #B31717",
"%.	c #BB0707",
"&.	c #B41717",
"*.	c #BD0707",
"=.	c #8E6464",
"-.	c #8E6565",
";.	c #906363",
">.	c #8E6363",
",.	c #8F6363",
"'.	c #7A8D8D",
").	c #798E8E",
"!.	c #7B8A8A",
"~.	c #7E8383",
"{.	c #7E8484",
"                                                                ",
"                                                                ",
"                                                                ",
"                                                                ",
"                                                                ",
"                                                                ",
"        . .         . .                                         ",
"        . .         . .                                         ",
"        . .     . .                                             ",
"        . .     . .                                             ",
"            . .                                                 ",
"            + +                                                 ",
"            @ #                 $ % & & % $                     ",
"            * =                 - ; > > ; ,                     ",
"        ' ) ! ~             { % ] ^ / ( _ : < : % $             ",
"        [ } | 1             % 2 ] 3 4 5 > 6 7 8 ; -             ",
"    9 0 a b c d e f     g - ] ] h i 3 8 6 8 ( / ^ ] % {         ",
"    j k b l m n o p     % ; ^ 3 i 2 q r s t 4 5 8 : % {         ",
"u v w x y m x z A B C 2 D ^ E 4 t s r q 2 i t > 6 : % g { {     ",
"u u F w G G w H I J K h ] 3 4 E > 6 8 3 i 2 s 6 > t L - M {     ",
"u u u v w w v N O P Q - % L 3 8 6 > E 5 3 q r 8 E 4 3 ] % { { { ",
"u u u u u u u N R S T 6 M % ] : & 3 ( ( ^ q s _ ( ( _ ] , M { { ",
"    u u u u u N R S T - % , , U % L V > W X , Y > > Y % , % M Z ",
"    u u u u u N R P ` {  ...+.M g % s @.#.$.%., : : , %.&.&.*.M ",
"                        =.-.            ;.>.            >.,.    ",
"                        '.).            !.!.            !.!.    ",
"                    ~.{.                ~.~.            ~.~.    ",
"                    . .                 . .             . .     ",
"                . .                     . .                 . . ",
"                . .                     . .                 . . ",
"                                                                ",
"                                                                "};
