/* XPM */
static char*lbg8[]={
"16 16 6 1",
"# c #808080",
"b c #a0a0a0",
"d c #00ff00",
"c c #000000",
". c None",
"a c #c00000",
"................",
"................",
"................",
"..#..#..........",
"..#.#...........",
"...#............",
"...#....aaa.....",
"..bb...aacaaa...",
".bdbb.aaaaacaa..",
"bbbbbaacaaaaaaa.",
"bbbbbaaaacaacaaa",
".bbbbaaaaaaaaaaa",
"......#...#...#.",
".....#....#...#.",
"....#.....#....#",
"................"};
