/* XPM */
static char * lrabbit_xpm[] = {
"32 32 52 1",
" 	c None",
".	c #A0A0A0",
"+	c #9FA1A1",
"@	c #A19F9F",
"#	c #9EA3A3",
"$	c #99ACAC",
"%	c #A09F9F",
"&	c #A49999",
"*	c #B18383",
"=	c #B28282",
"-	c #A59898",
";	c #9FA2A2",
">	c #A0A1A1",
",	c #9EA4A4",
"'	c #9AAAAA",
")	c #E52B2B",
"!	c #E62A2A",
"~	c #B38181",
"{	c #9E9E9E",
"]	c #9DA1A1",
"^	c #9AA9A9",
"/	c #E82828",
"(	c #E72828",
"_	c #999999",
":	c #9A9B9B",
"<	c #B5B5B5",
"[	c #B0AFAF",
"}	c #A5A3A3",
"|	c #F2F2F2",
"1	c #DDDDDD",
"2	c #B1B1B1",
"3	c #9A9C9C",
"4	c #9CA1A1",
"5	c #FFFFFF",
"6	c #B6B6B6",
"7	c #EFEFEF",
"8	c #EDEDED",
"9	c #9D9D9D",
"0	c #9F9F9F",
"a	c #9B9B9B",
"b	c #979797",
"c	c #A4A4A4",
"d	c #AFAFAF",
"e	c #B9B9B9",
"f	c #DBDBDB",
"g	c #F5F5F5",
"h	c #FCFCFC",
"i	c #F3F3F3",
"j	c #FEFEFE",
"k	c #FDFDFD",
"l	c #AEAEAE",
"m	c #A1A1A1",
"                  ....          ",
"                  ....          ",
"                ........        ",
"                ........        ",
"              ........          ",
"              +.......          ",
"          @#$$#%..              ",
"          #&*=-;>.              ",
"        .,'=)!~'#.              ",
"        {]^~/(~'#.              ",
"        _:]-~~-;>.              ",
"        <[}]^'#%..              ",
"        |1234#+.....            ",
"        5|6_{.......            ",
"        57<_{...........        ",
"        58<_{...........        ",
"              ............      ",
"              ............      ",
"              ................  ",
"              ..............{9  ",
"        ...................0ab  ",
"        ..................0cde  ",
"        ..    ...........{adfgh5",
"        ..    ...........{_<i55j",
"                .........{_<i55j",
"                .........{adfgk5",
"                  ........0cle  ",
"                  ........m{ab  ",
"                            {9  ",
"                            ..  ",
"                        ....    ",
"                        ....    "};
