/* XPM */
static char * lsheep_xpm[] = {
"32 32 41 1",
" 	c None",
".	c #FFFFFF",
"+	c #FEFEFE",
"@	c #F7F7F7",
"#	c #E1E1E1",
"$	c #E0E0E0",
"%	c #DFDFDF",
"&	c #858585",
"*	c #848484",
"=	c #DEDEDE",
"-	c #818181",
";	c #F6F6F6",
">	c #FAFAFA",
",	c #E8E8E8",
"'	c #DADADA",
")	c #C1C1C1",
"!	c #7A7A7A",
"~	c #7E7E7E",
"{	c #747474",
"]	c #717171",
"^	c #8A8A8A",
"/	c #C2C2C2",
"(	c #454545",
"_	c #383838",
":	c #797979",
"<	c #EBEBEB",
"[	c #E9E9E9",
"}	c #F9F9F9",
"|	c #F8F8F8",
"1	c #E7E7E7",
"2	c #EAEAEA",
"3	c #AAAAAA",
"4	c #939393",
"5	c #AFAFAF",
"6	c #DDDDDD",
"7	c #888888",
"8	c #676767",
"9	c #8F8F8F",
"0	c #828282",
"a	c #7F7F7F",
"b	c #808080",
"                                ",
"                                ",
"                                ",
"                                ",
"                  ........      ",
"                  ........      ",
"    +....+..    ............    ",
"    .@#$@...    ............    ",
"  ...%&*%.....................  ",
"  ...=--=.....................  ",
"  ...;==;.....................  ",
"  ..+....+....................  ",
"....+....+......................",
".....>%=;.......................",
"+....,*-=.....................  ",
".;$'#)!*%.....................  ",
"  ~{]^/,>.....................  ",
"  ((_:<..+....................  ",
"      >.....  +....+....+....+  ",
"      .+....  .>[[}......|12>.  ",
"              .<332.  ..  45<.  ",
"              .6776.  ..  896.  ",
"                00        :*    ",
"                ~~        -~    ",
"                aa        ba    ",
"                bb        bb    ",
"                bb        bb    ",
"                bb        bb    ",
"              bbbb      bbbb    ",
"              bbbb      bbbb    ",
"                                ",
"                                "};
