/* XPM */
static char * power2_xpm[] = {
"32 32 86 1",
" 	c None",
".	c #FFFF00",
"+	c #FFFF01",
"@	c #FFFFC7",
"#	c #FFFFC0",
"$	c #FFFFC5",
"%	c #FFFF07",
"&	c #FFFFC6",
"*	c #FFFFC1",
"=	c #FFFFC4",
"-	c #FFFFCE",
";	c #FFFF26",
">	c #FFFF96",
",	c #FFFFD3",
"'	c #FFFFEC",
")	c #FFFF9C",
"!	c #FFFF24",
"~	c #FFFF23",
"{	c #FFFF1F",
"]	c #FFFF97",
"^	c #FFFFD4",
"/	c #FFFF7C",
"(	c #FFFF7D",
"_	c #FFFF20",
":	c #FFFF21",
"<	c #FFFFDE",
"[	c #FFFFEB",
"}	c #FFFF2E",
"|	c #FFFF9E",
"1	c #FFFFCD",
"2	c #FEFF00",
"3	c #F9FF00",
"4	c #DFFF00",
"5	c #38FF00",
"6	c #00FF00",
"7	c #48FF00",
"8	c #E6FF00",
"9	c #A2FF00",
"0	c #2AFF00",
"a	c #2BFF00",
"b	c #A3FF00",
"c	c #DEFF00",
"d	c #0BFF00",
"e	c #0CFF00",
"f	c #34FF00",
"g	c #02FF00",
"h	c #01FF00",
"i	c #27FF00",
"j	c #C0FF00",
"k	c #DAFF00",
"l	c #FFFFD0",
"m	c #FFFF91",
"n	c #FFFF90",
"o	c #FFFF0A",
"p	c #FFFF1E",
"q	c #FFFFD6",
"r	c #FFFF22",
"s	c #FFFF09",
"t	c #FFFF94",
"u	c #FFFFEE",
"v	c #FFFF9D",
"w	c #FFFF25",
"x	c #FFFF0D",
"y	c #FFFF2B",
"z	c #FFFF06",
"A	c #FFFF79",
"B	c #FFFFA2",
"C	c #FFFF9F",
"D	c #FFFFD2",
"E	c #FFFFC9",
"F	c #FFFF9A",
"G	c #FFFFE3",
"H	c #FFFFDB",
"I	c #FFFF31",
"J	c #FFFF29",
"K	c #FFFF2A",
"L	c #FFFF1C",
"M	c #FFFFD1",
"N	c #FFFFCB",
"O	c #FFFFBB",
"P	c #FFFFA3",
"Q	c #FFFF78",
"R	c #FFFFBF",
"S	c #FFFFC3",
"T	c #FFFFD8",
"U	c #FFFFE4",
"        ..                      ",
"        ..                      ",
"        +.  @######$  .+......  ",
"        .%  &####*=-  %.......  ",
"....+....;>,        ')!.        ",
".....%~{.~]^        )/{.        ",
"      )(_.        .%~{.:]<      ",
"      [)!.        +....}|-      ",
"    @1  %.        ..      *#    ",
"    #$  .+        ..      ##    ",
"    #$  ..        .2      ##    ",
"    #@  ..        3.      ##    ",
"  ##    ..2..456678.        ##  ",
"  ##    +..389066abc        ##  ",
"  ##        7ad66eaf        ##  ",
"  ##        666gg666        ##  ",
"  ##        666gh66ij.      ##  ",
"  $$        50d66667k.      ##  ",
"  ll        49a666  3.      ##  ",
"  mn        .87666  .2      *#  ",
".o:p...+    .3      ..    q-    ",
"+...rrs.    2.      ..    t|    ",
"    )/:.    ..      ..+...:}    ",
"    uvw.    ..      ...%!{..    ",
"      x......+..        )/{.    ",
"      .s_yy:z...        [)~.    ",
"      .{ABvt  .....yCDE1  %.    ",
"      .:FGqH  IJKL.pmM$@  .+    ",
"      .o    NOP)BQL.      ..    ",
"      +.    RS1TUFr.      ..    ",
"      ..          o.      ..    ",
"      ..          .+      ..    "};
