/* XPM */
static char * power1_xpm[] = {
"32 32 3 1",
" 	c None",
".	c #FFFFC0",
"+	c #00FF00",
"                                ",
"                                ",
"            ........            ",
"            ........            ",
"        ....        ....        ",
"        ....        ....        ",
"      ..                ..      ",
"      ..                ..      ",
"    ..                    ..    ",
"    ..                    ..    ",
"    ..                    ..    ",
"    ..                    ..    ",
"  ..          ++++          ..  ",
"  ..          ++++          ..  ",
"  ..        ++++++++        ..  ",
"  ..        ++++++++        ..  ",
"  ..        ++++++++        ..  ",
"  ..        ++++++++        ..  ",
"  ..          ++++          ..  ",
"  ..          ++++          ..  ",
"    ..                    ..    ",
"    ..                    ..    ",
"    ..                    ..    ",
"    ..                    ..    ",
"      ..                ..      ",
"      ..                ..      ",
"        ....        ....        ",
"        ....        ....        ",
"            ........            ",
"            ........            ",
"                                ",
"                                "};
