/* XPM */
static char*power2[]={
"16 16 4 1",
"b c #00ff00",
"# c #ffff00",
"a c #ffffc0",
". c None",
"....#...........",
"....#.aaaa.####.",
"#####a....a#....",
"...a#....###a...",
"..a.#....#...a..",
"..a.#....#...a..",
".a..###bb#....a.",
".a....bbbb....a.",
".a....bbbb#...a.",
".a....#bb.#...a.",
"####..#...#..a..",
"..a#..#...####..",
"...#####....a#..",
"...#aa.###aa.#..",
"...#..aaa#...#..",
"...#.....#...#.."};
