/* XPM */
static char*power1[]={
"16 16 3 1",
"a c #00ff00",
"# c #ffffc0",
". c None",
"................",
"......####......",
"....##....##....",
"...#........#...",
"..#..........#..",
"..#..........#..",
".#.....aa.....#.",
".#....aaaa....#.",
".#....aaaa....#.",
".#.....aa.....#.",
"..#..........#..",
"..#..........#..",
"...#........#...",
"....##....##....",
"......####......",
"................"};
