/* XPM */
static char * rbg12_xpm[] = {
"32 32 103 2",
"  	c None",
". 	c #585858",
"+ 	c #585958",
"@ 	c #595559",
"# 	c #5D4E5D",
"$ 	c #595659",
"% 	c #575957",
"& 	c #585758",
"* 	c #536153",
"= 	c #477947",
"- 	c #477847",
"; 	c #546054",
"> 	c #5A555A",
", 	c #16D616",
"' 	c #16D516",
") 	c #5E4D5E",
"! 	c #5A545A",
"~ 	c #575757",
"{ 	c #555555",
"] 	c #545454",
"^ 	c #595959",
"/ 	c #565656",
"( 	c #4F4F4F",
"_ 	c #4B4B4B",
": 	c #4C4C4C",
"< 	c #4D4D4D",
"[ 	c #5F5F5F",
"} 	c #737373",
"| 	c #7C7C7C",
"1 	c #7B7B7B",
"2 	c #7A7A7A",
"3 	c #C2C2C2",
"4 	c #E6E6E6",
"5 	c #E0E0E0",
"6 	c #DDDDDD",
"7 	c #FFFFFF",
"8 	c #4E4E4E",
"9 	c #7D7D7D",
"0 	c #E7E7E7",
"a 	c #FEFEFE",
"b 	c #525252",
"c 	c #5C5C5C",
"d 	c #757575",
"e 	c #767676",
"f 	c #606060",
"g 	c #727272",
"h 	c #C0C0C0",
"i 	c #EDEDED",
"j 	c #FBFBFB",
"k 	c #F6F6F6",
"l 	c #535353",
"m 	c #454545",
"n 	c #6C6C6C",
"o 	c #C9C9C9",
"p 	c #CCCCCC",
"q 	c #6A6A6A",
"r 	c #979797",
"s 	c #E5E5E5",
"t 	c #7E7E7E",
"u 	c #5B5B5B",
"v 	c #686868",
"w 	c #9E9E9E",
"x 	c #F1F1F1",
"y 	c #808080",
"z 	c #515151",
"A 	c #3F3F3F",
"B 	c #DADADA",
"C 	c #D9D9D9",
"D 	c #707070",
"E 	c #BDBDBD",
"F 	c #F2F2F2",
"G 	c #E3E3E3",
"H 	c #DCDCDC",
"I 	c #797979",
"J 	c #484848",
"K 	c #E4E4E4",
"L 	c #494949",
"M 	c #787878",
"N 	c #474747",
"O 	c #444444",
"P 	c #464646",
"Q 	c #3E3E3E",
"R 	c #DEDEDE",
"S 	c #4A4A4A",
"T 	c #DBDBDB",
"U 	c #747474",
"V 	c #656565",
"W 	c #999999",
"X 	c #D6D6D6",
"Y 	c #666666",
"Z 	c #B9B9B9",
"` 	c #EFEFEF",
" .	c #FCFCFC",
"..	c #EEEEEE",
"+.	c #8C8C8C",
"@.	c #8F8F8F",
"#.	c #EBEBEB",
"$.	c #959595",
"%.	c #505050",
"&.	c #3C3C3C",
"*.	c #DFDFDF",
"=.	c #F5F5F5",
"-.	c #D8D8D8",
"                                . . + @ # # $ %                 ",
"                                . & @ * = - ; >                 ",
"                                . > # = , ' - ) ! . . . . .     ",
"                                . > # = , , = # > . . . . .     ",
"                            . . . & @ * = = * @ & .             ",
"                            . . . . + @ # # @ + . .             ",
"                            . . . . . & > > & . . . . . . .     ",
"                            . . . . . . . . . . . . . . . .     ",
"                        . . . . . . . . . . . .                 ",
"                        . . . . . ~ { ] ] { ~ .                 ",
"                        . . . . ^ / ( _ : <                     ",
"                        . . . ~ / [ } | 1 2                     ",
"                    . . . . . { ( } 3 4 5 6                     ",
"                    . . . . . ] _ | 4 7 7 7                     ",
"                . . . . . . . ] : 1 5 7 7 7 7 7                 ",
"                . . . ~ { { ~ ] : 1 5 7 7 7 7 7                 ",
"                . . ^ { 8 8 { { : 9 0 7 7 a a 7                 ",
"                . / b c d e f b 8 g h i j 7 7 k                 ",
"                ^ l m n o p e 8 b c q r s 7 7 5 t m             ",
"                { u v w j x y : { z A n B 7 7 C e _             ",
"                : D E F 7 G | : { z A n B 7 7 H I : ] .         ",
"                J 2 K 7 7 H 2 _ b c q r s 7 7 6 2 < ] .         ",
"                L I 6 7 7 6 2 L _ g h i j 7 7 6 2 : ] .         ",
"                L M B 7 7 6 2 N O I 4 7 7 7 7 6 2 < { .         ",
"                L M B 7 7 6 1 P Q D R 7 7 7         ~ .         ",
"                S I R 7 7 T U < V W 4 7 7 7         . .         ",
"            . l _ | 0 7 7 X Y c Z `  .7                         ",
"            . { ( g E ..7 G +.@.#.7 7 7                         ",
"        . . . ~ / c v $.s 7 s G j 7                             ",
"        . . . . ^ %.&.U *.7 7 7 7 7                             ",
"                        =.7 7 7 7 7 7 -.e S                     ",
"                        7 a 7 7 7 7 7 B M L                     "};
