/* XPM */
static char*rbg1[]={
"16 16 4 1",
"a c #008000",
". c None",
"# c #00c000",
"b c #c000c0",
"................",
"................",
".....#aaa.......",
"....a#aaa#......",
"..a#aa###aa.....",
"..a##a#aaaa#.###",
".a#aa######a#bb#",
"aa#aaaaaaaaa####",
"aa####aaaa######",
".a#aa######a....",
".#aaa#aaaaaa#...",
".###.......a##..",
".##.........##..",
".##........##...",
"..##......###...",
"................"};
