/* XPM */
static char * rbg1_xpm[] = {
"32 32 104 2",
"  	c None",
". 	c #00C700",
"+ 	c #00B400",
"@ 	c #008E00",
"# 	c #007C00",
"$ 	c #007E00",
"% 	c #008000",
"& 	c #00C400",
"* 	c #00B500",
"= 	c #008D00",
"- 	c #007A00",
"; 	c #007D00",
"> 	c #008200",
", 	c #007600",
"' 	c #009200",
") 	c #00BD00",
"! 	c #00BA00",
"~ 	c #008C00",
"{ 	c #007800",
"] 	c #008900",
"^ 	c #00D000",
"/ 	c #008800",
"( 	c #00A900",
"_ 	c #00AF00",
": 	c #009600",
"< 	c #008B00",
"[ 	c #009700",
"} 	c #00AE00",
"| 	c #00B800",
"1 	c #00B300",
"2 	c #008700",
"3 	c #008500",
"4 	c #00AB00",
"5 	c #00B700",
"6 	c #00B900",
"7 	c #00BB00",
"8 	c #008300",
"9 	c #007900",
"0 	c #00B600",
"a 	c #009C00",
"b 	c #00AA00",
"c 	c #008600",
"d 	c #007700",
"e 	c #007500",
"f 	c #008A00",
"g 	c #00C800",
"h 	c #00C000",
"i 	c #00A800",
"j 	c #008100",
"k 	c #01CF01",
"l 	c #00D200",
"m 	c #00D100",
"n 	c #00CE00",
"o 	c #00C300",
"p 	c #01BF01",
"q 	c #009400",
"r 	c #009300",
"s 	c #00AD00",
"t 	c #289928",
"u 	c #2A962A",
"v 	c #2C942C",
"w 	c #20A020",
"x 	c #08B808",
"y 	c #00AC00",
"z 	c #00C200",
"A 	c #299B29",
"B 	c #883988",
"C 	c #AF11AF",
"D 	c #B10FB1",
"E 	c #823E82",
"F 	c #219F21",
"G 	c #00CB00",
"H 	c #007B00",
"I 	c #007300",
"J 	c #007400",
"K 	c #00BC00",
"L 	c #20A520",
"M 	c #833F83",
"N 	c #B709B7",
"O 	c #B60AB6",
"P 	c #853B85",
"Q 	c #229E22",
"R 	c #00CC00",
"S 	c #008F00",
"T 	c #09BC09",
"U 	c #229F22",
"V 	c #309030",
"W 	c #239D23",
"X 	c #09B709",
"Y 	c #007F00",
"Z 	c #009A00",
"` 	c #009900",
" .	c #01B501",
"..	c #00C600",
"+.	c #00A600",
"@.	c #00BE00",
"#.	c #00C100",
"$.	c #00C500",
"%.	c #00BF00",
"&.	c #009B00",
"*.	c #009500",
"=.	c #00B100",
"-.	c #00CA00",
";.	c #00B200",
"                                                                ",
"                                                                ",
"                                                                ",
"                                                                ",
"                    . + @ # $ % % $                             ",
"                    & * = - ; $ $ >                             ",
"                , ' ) ! ~ , - - { ] + ^                         ",
"                $ / ( _ : < = @ ~ [ } +                         ",
"        - @ | 1 2 - 3 : 4 5 5 6 7 _ [ ] 8 ;                     ",
"        9 ~ 0 ) a 3 { / 0 . 7 0 ! b c d # 8                     ",
"        e f * g h i j c * 7 [ c f 2 ; { d ] * k     l m l n o p ",
"        ] q b | ! } r [ ! ! : c / < @ @ ~ [ s |     t u v w x o ",
"    - = y } : f f [ } ) & z 6 * 0 0 5 6 7 } q [ h A B C D E F G ",
"    H @ ! ! < I J c b ! * + 5 | | | | 6 7 i j ] K L M N O P Q R ",
"% $ H @ 6 | f e d ; 2 ~ = @ @ S S S S @ ~ 3 { / * T U V V W X o ",
"% Y # @ 5 ! Z < @ @ < 3 ; 9 - - - - 9 ; 3 f f `  ...R n n G o p ",
"% Y # = + o 7 5 | | 5 +.3 , 9 - - 9 , 3 +.0 5 ! @.#.& $.$.o #.h ",
"% $ - ~ + & 7 0 0 7 ..! Z < = @ @ = < Z K . 7 | ) #.h h h h h h ",
"    , < | %.&.f f ` | o 7 5 5 | | 5 0 K . 7 ` <                 ",
"    f *.s ( c e e f 1 o ! 0 0 0 0 0 5 5 0 +.3 9                 ",
"    5 4 r > # { 9 = 0 ! ` f ~ @ @ @ @ @ = / $ ] =.g             ",
"    -.6 *.c ~ < Y @ | 0 f e 9 - - - - - - - - S + $.            ",
"    o @.* =.+ =.                            H ~ ;.$.z h         ",
"    h #.o $.$.g                             , = + o #.h         ",
"    h h #.z                                     K #.h h         ",
"    h h h h                                     #.h h h         ",
"    h h h h                                 z #.h h             ",
"    h h h h                                 h h h h             ",
"        h h h h                         h h h h h h             ",
"        h h h h                         h h h h h h             ",
"                                                                ",
"                                                                "};
