/* XPM */
static char*rbg3b[]={
"20 20 4 1",
". c None",
"b c #585858",
"# c #dcdcdc",
"a c #ff0000",
"....................",
"....############....",
".####........##.....",
".#..................",
".#######............",
".#########..........",
".##########.##.##...",
".##########.##.##...",
".################...",
".#.###########a#..b.",
".#.##############.b.",
"....##############bb",
".......##...#..###b.",
"........##..##bbb##b",
".........#...#..bb..",
"...............b.b..",
"..............b..b..",
".................b..",
"....................",
"...................."};
