/* XPM */
static char * rbg3a_xpm[] = {
"32 32 94 2",
"  	c None",
". 	c #808080",
"+ 	c #83837E",
"@ 	c #83837D",
"# 	c #818181",
"$ 	c #848486",
"% 	c #858580",
"& 	c #888879",
"* 	c #888878",
"= 	c #82827E",
"- 	c #7F7F81",
"; 	c #7F7F7F",
"> 	c #787874",
", 	c #747480",
"' 	c #666697",
") 	c #686899",
"! 	c #7A7A86",
"~ 	c #858585",
"{ 	c #7C7C7C",
"] 	c #626262",
"^ 	c #595953",
"/ 	c #646454",
"( 	c #4F4F80",
"_ 	c #1A1AD8",
": 	c #2323E1",
"< 	c #717171",
"[ 	c #5E5E5E",
"} 	c #575752",
"| 	c #5A5A4A",
"1 	c #444477",
"2 	c #1717D7",
"3 	c #2323E3",
"4 	c #68689A",
"5 	c #828282",
"6 	c #7A7A7A",
"7 	c #676767",
"8 	c #5C5C5C",
"9 	c #595959",
"0 	c #575756",
"a 	c #565652",
"b 	c #595966",
"c 	c #5F5F91",
"d 	c #6A6A9C",
"e 	c #7A7A88",
"f 	c #818180",
"g 	c #7E7E7E",
"h 	c #838383",
"i 	c #777777",
"j 	c #5D5D5D",
"k 	c #525252",
"l 	c #565656",
"m 	c #575758",
"n 	c #555556",
"o 	c #62625E",
"p 	c #808070",
"q 	c #8A8A7A",
"r 	c #81817D",
"s 	c #7B7B7D",
"t 	c #868686",
"u 	c #575757",
"v 	c #555555",
"w 	c #616160",
"x 	c #7B7B76",
"y 	c #84847E",
"z 	c #7B7B7A",
"A 	c #707071",
"B 	c #FFFFFF",
"C 	c #EAEAEA",
"D 	c #9E9E9E",
"E 	c #767676",
"F 	c #585858",
"G 	c #5F5F5F",
"H 	c #898989",
"I 	c #979797",
"J 	c #A4A4A4",
"K 	c #E4E4E4",
"L 	c #797979",
"M 	c #707070",
"N 	c #545454",
"O 	c #999999",
"P 	c #D8D8D8",
"Q 	c #FAFAFA",
"R 	c #686868",
"S 	c #5B5B5B",
"T 	c #989898",
"U 	c #D7D7D7",
"V 	c #FBFBFB",
"W 	c #757575",
"X 	c #959595",
"Y 	c #A7A7A7",
"Z 	c #7B7B7B",
"` 	c #848484",
" .	c #747474",
"..	c #7D7D7D",
"                                                                ",
"                                                                ",
"                                                                ",
"                                                                ",
"                                                                ",
"                                                                ",
"        . . . . . . . . . .                 . .                 ",
"        . . . . . . . . . .                 + @                 ",
"    . . . . . . . . . . . . . . . #     $ % & * = -             ",
"    . . . . . . . . . . . . . . # ;     > , ' ) ! =             ",
". . . . . . . . . . . . . . . # ~ { ] ^ / ( _ : ) * @ .         ",
". . . . . . . . . . . . . . # ; { < [ } | 1 2 3 4 & = ;         ",
". . . . . . . . . . . . . # 5 6 7 8 9 0 a b c d e = f g         ",
". . . . . . . . . . . . . # h i j k l m n o p q r s 6 t         ",
". . . . . . . . . . . . . # h i j k l u v w x y z A     B C D E ",
". . . . . . . . . . . . . # 5 6 7 8 F l v G E H I J     B K I L ",
". . . . . . . . . . . . . . # ; { M 8 k N j M O P Q B B     ~ g ",
". . . . . . . . . . . . . . . # ~ { R S l [ < T U V B B     6 # ",
". . . . . . . . . . . . . . . . # ; 6 W     { t X Y     ~ Z ; . ",
". . . . . . . . . . . . . . . . . # 5 `     5 g L  .    g # . . ",
"    . . . . . . . . . . . . . . . . # #         ....{ ..; .     ",
"    . . . . . . . . . . . . . . . . . .         . . . . . .     ",
"    . . . . . . . . . . . . . . . . . .                         ",
"    . . . . . . . . . . . . . . . . . .                         ",
"    . . . .                     . . . .                         ",
"    . . . .                     . . . .                         ",
"    . . . .                     . . . .                         ",
"    . . . .                     . . . .                         ",
"                                                                ",
"                                                                ",
"                                                                ",
"                                                                "};
