/* XPM */
static char * rbg3b_xpm[] = {
"40 40 70 1",
" 	c None",
".	c #DCDCDC",
"+	c #DCDDDD",
"@	c #DCDBDB",
"#	c #DBE0E0",
"$	c #D9ECEC",
"%	c #DED1D1",
"&	c #E2B3B3",
"*	c #DDDDDD",
"=	c #DAE9E9",
"-	c #E3B1B1",
";	c #F63A3A",
">	c #F53D3D",
",	c #575757",
"'	c #585858",
")	c #F63737",
"!	c #E2E2E2",
"~	c #535353",
"{	c #595959",
"]	c #DBDFDF",
"^	c #E0E0E0",
"/	c #5B5B5B",
"(	c #565656",
"_	c #DFDFDF",
":	c #E7E7E7",
"<	c #BBBBBB",
"[	c #6D6D6D",
"}	c #515151",
"|	c #555555",
"1	c #E6E6E6",
"2	c #C1C1C1",
"3	c #717171",
"4	c #4B4B4B",
"5	c #E8E8E8",
"6	c #E5E5E5",
"7	c #BDBDBD",
"8	c #6A6A6A",
"9	c #434343",
"0	c #B8B8B8",
"a	c #C0C0C0",
"b	c #BFBFBF",
"c	c #CACACA",
"d	c #E1E1E1",
"e	c #8A8A8A",
"f	c #6B6B6B",
"g	c #DEDEDE",
"h	c #707070",
"i	c #8B8B8B",
"j	c #D1D1D1",
"k	c #D2D2D2",
"l	c #AFAFAF",
"m	c #4E4E4E",
"n	c #E4E4E4",
"o	c #C6C6C6",
"p	c #797979",
"q	c #494949",
"r	c #4A4A4A",
"s	c #464646",
"t	c #656565",
"u	c #A7A7A7",
"v	c #D3D3D3",
"w	c #ECECEC",
"x	c #CBCBCB",
"y	c #747474",
"z	c #4F4F4F",
"A	c #D6D6D6",
"B	c #525252",
"C	c #7C7C7C",
"D	c #DBDBDB",
"E	c #545454",
"                                        ",
"                                        ",
"        ........................        ",
"        ........................        ",
"  ........                ....          ",
"  ........                ....          ",
"  ..                                    ",
"  ..                                    ",
"  ..............                        ",
"  ..............                        ",
"  ..................                    ",
"  ..................                    ",
"  ....................  ....  ....      ",
"  ....................  ....  ....      ",
"  ....................  ....  ....      ",
"  ....................  ...+  +...      ",
"  ........................@#$$#@..      ",
"  .......................+#%&&%#+*      ",
"  ..  ...................#=-;>&$    ,'  ",
"  ..  ...................#=-);&$    ,'  ",
"  ..  ...................+#%--%#+!  ~{  ",
"  ..  ....................@]==#@.^  /(  ",
"        ...................+##+.._:<[}|'",
"        ...................*_^___!1234~'",
"              ....      ..    561:5789  ",
"              ....      .*    0abcdcef  ",
"                ....    .g67f~8hfij5kl3m",
"                ....    ._nopqrqstuvwxyz",
"                  ..      gA    B/fC    ",
"                  ..      Dd    {(}4    ",
"                              ,'  |E    ",
"                              ''  ''    ",
"                            ,'    ''    ",
"                            ''    ''    ",
"                                  ''    ",
"                                  ''    ",
"                                        ",
"                                        ",
"                                        ",
"                                        "};
