/* XPM */
static char*rbg3[]={
"16 16 5 1",
"# c #808080",
"b c #0000ff",
". c None",
"a c #585858",
"c c #ffffff",
"................",
"................",
"................",
"..#####....#....",
".########.###...",
"#########aab##..",
"########aaa###..",
"########aaa##.c#",
"#########aa#cc.#",
"##########.##.##",
".#########..###.",
".#########......",
".##.....##......",
".##.....##......",
"................",
"................"};
