/* XPM */
static char * rbg5_xpm[] = {
"32 32 118 2",
"  	c None",
". 	c #008000",
"+ 	c #008300",
"@ 	c #007F02",
"# 	c #008200",
"$ 	c #008700",
"% 	c #008900",
"& 	c #007B09",
"* 	c #006C28",
"= 	c #006339",
"- 	c #006439",
"; 	c #006B28",
"> 	c #007909",
", 	c #007E00",
"' 	c #006D26",
") 	c #00319D",
"! 	c #0010DF",
"~ 	c #0111DF",
"{ 	c #002EA0",
"] 	c #006528",
"^ 	c #007900",
"/ 	c #007100",
"( 	c #008C00",
"_ 	c #006535",
": 	c #0013D9",
"< 	c #0000FF",
"[ 	c #0B16DF",
"} 	c #297839",
"| 	c #36A400",
"1 	c #2F9B00",
"2 	c #3B9D00",
"3 	c #2925DE",
"4 	c #A2B439",
"5 	c #D7F500",
"6 	c #C9E700",
"7 	c #D1E800",
"8 	c #F2F800",
"9 	c #FFFF00",
"0 	c #006D27",
"a 	c #00319E",
"b 	c #000DDE",
"c 	c #0007DE",
"d 	c #374AA2",
"e 	c #D9D729",
"f 	c #FEFF00",
"g 	c #007B0A",
"h 	c #006139",
"i 	c #005A39",
"j 	c #358529",
"k 	c #D0E10B",
"l 	c #008100",
"m 	c #35A300",
"n 	c #D0EE00",
"o 	c #FFFE01",
"p 	c #FFD400",
"q 	c #FFC100",
"r 	c #FFC400",
"s 	c #FFC600",
"t 	c #FFC800",
"u 	c #FFC900",
"v 	c #008001",
"w 	c #007A00",
"x 	c #38A300",
"y 	c #DBFD00",
"z 	c #FFE300",
"A 	c #FF5400",
"B 	c #FE1200",
"C 	c #FF1C00",
"D 	c #FF2300",
"E 	c #FF2600",
"F 	c #FF2700",
"G 	c #289900",
"H 	c #9EDE00",
"I 	c #E5C500",
"J 	c #FE4E00",
"K 	c #FF1800",
"L 	c #FF2200",
"M 	c #007F00",
"N 	c #007B00",
"O 	c #058400",
"P 	c #1A9100",
"Q 	c #65A600",
"R 	c #E6C400",
"S 	c #FFD100",
"T 	c #FFCB00",
"U 	c #FEC900",
"V 	c #008B00",
"W 	c #018100",
"X 	c #007000",
"Y 	c #1A9000",
"Z 	c #9CDC00",
"` 	c #E4FF00",
" .	c #F9FF00",
"..	c #007C00",
"+.	c #00AF00",
"@.	c #00AE00",
"#.	c #007700",
"$.	c #269700",
"%.	c #43A900",
"&.	c #00B300",
"*.	c #009800",
"=.	c #008F00",
"-.	c #007D00",
";.	c #007400",
">.	c #008800",
",.	c #00B000",
"'.	c #00BC00",
").	c #00BD00",
"!.	c #00AB00",
"~.	c #007800",
"{.	c #009700",
"].	c #008E00",
"^.	c #009000",
"/.	c #00BA00",
"(.	c #00B800",
"_.	c #00B900",
":.	c #00BB00",
"<.	c #00AC00",
"                                                                ",
"                                                                ",
"                                    . . . .                     ",
"                                    + + + +                     ",
"                                @ # $ % % $ # @                 ",
"                                # & * = - ; > ,                 ",
"                                % ' ) ! ~ { ] , ^ /             ",
"                                ( _ : < < [ } | 1 2             ",
"                                ( _ : < < 3 4 5 6 7 8 9         ",
"                                % 0 a b c d e 9 9 9 9 f         ",
"                                # g * h i j k 9 9 9 9 9 9 9 9 9 ",
"                                @ # $ $ l m n o p q r s t u u u ",
"                                v l # . w x y z A B C D E F F F ",
"                                . . . , ^ G H I J K L F F F F F ",
". . . M N N M . . . . . . . . . . . . M , O P Q R S T U u u u u ",
". . M + ( V # , , M . . . . . . . . . . W N X Y Z `  .9 9 9 9 9 ",
". M ..( +.@.% #.w ..M . . . . . . . . . . M N O $.%.            ",
". , ..( +.&.*.( =.V # -., , , , , , , M . . W , ^ ;.            ",
"    M # >.*.,.'.).!.>.#.w ........N N ..M . . M , ..            ",
"    l -.~.$ !.).'.+.{.( ].].].].].=.^.( + M . . . .             ",
"        -.l V =.( {.+./.(.(.(.(.(._.:.<.V ..M . . .             ",
"        l M ..w #.>.!.'._.(.(.(.(._.:.<.V ..M . . .             ",
"            M , -.# V ^.=.].].].].=.^.( + M . .                 ",
"            . . . M -.N N N N N N N N -.M . . .                 ",
"                . . M , , , , , , , , M . .                     ",
"                . . . . . . . . . . . . . .                     ",
"                        . . . . . .                             ",
"                        . . . . . .                             ",
"                                                                ",
"                                                                ",
"                                                                ",
"                                                                "};
