/* XPM */
static char*rbg5[]={
"16 16 6 1",
"# c #008000",
"b c #ffff00",
"a c #0000ff",
". c None",
"d c #00c000",
"c c #ff0000",
"................",
".........##.....",
"........####....",
"........#aa##...",
"........#aabbb..",
"........###bbbbb",
"........###bcccc",
"############bbbb",
"##d##########...",
".##dd########...",
"..###ddddd###...",
"...#########....",
"....#######.....",
"......###.......",
"................",
"................"};
