/* XPM */
static char * rbg8_xpm[] = {
"32 32 109 2",
"  	c None",
". 	c #808080",
"+ 	c #7F7F7F",
"@ 	c #BE0000",
"# 	c #C40000",
"$ 	c #CE0000",
"% 	c #7E7E7E",
"& 	c #7D7D7D",
"* 	c #C50000",
"= 	c #B70000",
"- 	c #9D0000",
"; 	c #C30000",
"> 	c #868686",
", 	c #898789",
"' 	c #CF0000",
") 	c #D30000",
"! 	c #9B0000",
"~ 	c #330000",
"{ 	c #340000",
"] 	c #9C0000",
"^ 	c #CC0000",
"/ 	c #C00000",
"( 	c #989A98",
"_ 	c #9D999D",
": 	c #A998A9",
"< 	c #B197B1",
"[ 	c #9E0000",
"} 	c #A00000",
"| 	c #C20000",
"1 	c #300000",
"2 	c #2F0000",
"3 	c #9A0000",
"4 	c #C70000",
"5 	c #A5A0A5",
"6 	c #9AA69A",
"7 	c #85B185",
"8 	c #7DB47D",
"9 	c #B50000",
"0 	c #C60000",
"a 	c #BF0000",
"b 	c #9EA9A9",
"c 	c #A49DA3",
"d 	c #AB9AAA",
"e 	c #82B382",
"f 	c #2CE52C",
"g 	c #28E728",
"h 	c #7DB57D",
"i 	c #B096B0",
"j 	c #990000",
"k 	c #D00000",
"l 	c #D40000",
"m 	c #D10000",
"n 	c #A19C9C",
"o 	c #A3A0A5",
"p 	c #A99BAA",
"q 	c #80B380",
"r 	c #27E827",
"s 	c #84B184",
"t 	c #AB9AAB",
"u 	c #310000",
"v 	c #CD0000",
"w 	c #B82828",
"x 	c #A58686",
"y 	c #9FA8A9",
"z 	c #A2A1A5",
"A 	c #98A598",
"B 	c #81B281",
"C 	c #A39EA3",
"D 	c #A19FA1",
"E 	c #A0A0A0",
"F 	c #C10000",
"G 	c #B60000",
"H 	c #BA1F1F",
"I 	c #A77E7E",
"J 	c #9DACAC",
"K 	c #9EA4A3",
"L 	c #AA9AAA",
"M 	c #9FA09F",
"N 	c #BA2020",
"O 	c #A77F7F",
"P 	c #9EACAB",
"Q 	c #9FA4A4",
"R 	c #D20000",
"S 	c #B92121",
"T 	c #A67F7F",
"U 	c #9EABAB",
"V 	c #CA0000",
"W 	c #BD0000",
"X 	c #BA0505",
"Y 	c #AD1010",
"Z 	c #B90505",
"` 	c #AC1010",
" .	c #B01010",
"..	c #C80505",
"+.	c #AB1212",
"@.	c #AC0E0E",
"#.	c #BE1E1E",
"$.	c #A88080",
"%.	c #704444",
"&.	c #6F4444",
"*.	c #714444",
"=.	c #6E4545",
"-.	c #505F5F",
";.	c #4F5F5F",
">.	c #4D6161",
",.	c #4E6161",
"'.	c #555A5A",
").	c #555B5B",
"!.	c #585858",
"                                                                ",
"                                                                ",
"                                                                ",
"                                                                ",
"                                                                ",
"                                                                ",
"                                        . .         . .         ",
"                                        . .         . .         ",
"                                            . .     . .         ",
"                                            . .     . .         ",
"                                                . .             ",
"                                                + +             ",
"                    @ # $ $ # @                 % &             ",
"                    * = - - = ;                 > ,             ",
"            @ # ' ) ' ! ~ { ] ^ # /             ( _ : <         ",
"            ; = [ } | - 1 2 3 ^ 4 #             5 6 7 8         ",
"        / # ^ ] { ~ [ | [ 3 9 0 ^ ^ ; a     b c d e f g h i     ",
"        / # ' [ 1 2 j k l m 4 9 3 ] = #     n o p q r f s t     ",
"    / / a # ' | - j 9 4 m l k j 2 u ] v 4 w x y z A q B A C D E ",
"    / F ; G j - | k 4 9 3 [ | - u 2 3 ^ 0 H I J K C L L C M E E ",
"/ / / # ^ 3 2 u [ l m 3 1 u - | [ 3 G # ; N O P Q D C C D E E E ",
"/ F | 0 ^ ! ~ ~ ! k R - ~ ~ 3 $ ' ^ * | | S T U Q E E E E E E E ",
"/ | 0 4 # G - - G * V W [ ] G # # * 4 4 # S T U Q E E E E E     ",
"| X Y Y Z 0 ' ' 0 Z `  ...m # a | X +.@.@ #.$.U Q E E E E E     ",
"    %.%.            &.*.            =.&.                        ",
"    -.-.            ;.;.            >.,.                        ",
"    '.'.            '.'.                ).'.                    ",
"    !.!.            !.!.                !.!.                    ",
"!.!.                !.!.                    !.!.                ",
"!.!.                !.!.                    !.!.                ",
"                                                                ",
"                                                                "};
