/* XPM */
static char*rbg8[]={
"16 16 7 1",
"# c #808080",
"c c #a0a0a0",
"d c #00ff00",
"b c #000000",
". c None",
"a c #c00000",
"e c #585858",
"................",
"................",
"................",
"..........#..#..",
"...........#.#..",
"............#...",
".....aaa....#...",
"...aaabaa...cc..",
"..aabaaaaa.ccdc.",
".aaaaaaabaaccccc",
"aaabaabaaaaccccc",
"aaaaaaaaaaacccc.",
".e...e...e......",
".e...e....e.....",
"e....e.....e....",
"................"};
