/* XPM */
static char * rrabbit_xpm[] = {
"32 32 52 1",
" 	c None",
".	c #A0A0A0",
"+	c #9FA1A1",
"@	c #A09F9F",
"#	c #9EA3A3",
"$	c #99ACAC",
"%	c #A19F9F",
"&	c #A0A1A1",
"*	c #9FA2A2",
"=	c #A59898",
"-	c #B28282",
";	c #B18383",
">	c #A49999",
",	c #9AAAAA",
"'	c #B38181",
")	c #E62A2A",
"!	c #E52B2B",
"~	c #9EA4A4",
"{	c #E72828",
"]	c #E82828",
"^	c #9AA9A9",
"/	c #9DA1A1",
"(	c #9E9E9E",
"_	c #9A9B9B",
":	c #999999",
"<	c #A5A3A3",
"[	c #B0AFAF",
"}	c #B5B5B5",
"|	c #9CA1A1",
"1	c #9A9C9C",
"2	c #B1B1B1",
"3	c #DDDDDD",
"4	c #F2F2F2",
"5	c #B6B6B6",
"6	c #FFFFFF",
"7	c #EFEFEF",
"8	c #EDEDED",
"9	c #9F9F9F",
"0	c #A5A5A5",
"a	c #E8E8E8",
"b	c #B0B0B0",
"c	c #9B9B9B",
"d	c #FDFDFD",
"e	c #F5F5F5",
"f	c #DBDBDB",
"g	c #AFAFAF",
"h	c #B9B9B9",
"i	c #AEAEAE",
"j	c #A4A4A4",
"k	c #979797",
"l	c #A1A1A1",
"m	c #9D9D9D",
"          ....                  ",
"          ....                  ",
"        ........                ",
"        ........                ",
"          ........              ",
"          .......+              ",
"              ..@#$$#%          ",
"              .&*=-;>#          ",
"              .#,')!-,~.        ",
"              .#,'{]'^/(        ",
"              .&*=''=/_:        ",
"              ..@#,^/<[}        ",
"            .....+#|1234        ",
"            .......(:546        ",
"        ...........(:}76        ",
"        ...........(:}86        ",
"      ............              ",
"      ............              ",
"    ..............              ",
"    9.............              ",
"    (...................        ",
"    09..................        ",
"666abc(...........    ..        ",
"6667}:(...........    ..        ",
"6664}:(.........                ",
"6defgc(.........                ",
"  hij9........                  ",
"  kc(l........                  ",
"  m(                            ",
"  ..                            ",
"    ....                        ",
"    ....                        "};
