/* XPM */
static char*rrabbit[]={
"16 16 4 1",
"# c #a0a0a0",
". c None",
"b c #ffffff",
"a c #ff0000",
".....##.........",
"....####........",
".....####.......",
".......####.....",
".......##a##....",
".......#####....",
"......#####b....",
"....#######b....",
"...######.......",
"..#######.......",
"..##########....",
"bb#######..#....",
"bb######........",
".######.........",
".#..............",
"..##............"};
