/* XPM */
static char * rsheep_xpm[] = {
"32 32 40 1",
" 	c None",
".	c #FFFFFF",
"+	c #FEFEFE",
"@	c #F7F7F7",
"#	c #E0E0E0",
"$	c #E1E1E1",
"%	c #DFDFDF",
"&	c #848484",
"*	c #858585",
"=	c #DEDEDE",
"-	c #818181",
";	c #F6F6F6",
">	c #FAFAFA",
",	c #E8E8E8",
"'	c #7A7A7A",
")	c #C1C1C1",
"!	c #DADADA",
"~	c #C2C2C2",
"{	c #8A8A8A",
"]	c #717171",
"^	c #747474",
"/	c #7E7E7E",
"(	c #EBEBEB",
"_	c #797979",
":	c #383838",
"<	c #454545",
"[	c #EAEAEA",
"}	c #E7E7E7",
"|	c #F8F8F8",
"1	c #F9F9F9",
"2	c #E9E9E9",
"3	c #AFAFAF",
"4	c #939393",
"5	c #969696",
"6	c #DDDDDD",
"7	c #8F8F8F",
"8	c #676767",
"9	c #6B6B6B",
"0	c #7F7F7F",
"a	c #808080",
"                                ",
"                                ",
"                                ",
"                                ",
"      ........                  ",
"      ........                  ",
"    ............    ..+....+    ",
"    ............    ...@#$@.    ",
"  .....................%&*%...  ",
"  .....................=--=...  ",
"  .....................;==;...  ",
"  ....................+....+..  ",
"......................+....+....",
".......................;=%>.....",
"  .....................=-&,....+",
"  .....................%&')$!#;.",
"  .....................>,~{]^/  ",
"  ....................+..(_:<<  ",
"  +....+....+....+  .....>      ",
"  .>[}|......12,|.  ....+.      ",
"  .(34  ..  .(35                ",
"  .678  ..  .=79                ",
"    &_        &'                ",
"    /-        /-                ",
"    0a        0a                ",
"    aa        aa                ",
"    aa        aa                ",
"    aa        aa                ",
"    aaaa      aaaa              ",
"    aaaa      aaaa              ",
"                                ",
"                                "};
