/* XPM */
static char*rsheep[]={
"16 16 4 1",
"b c #808080",
". c None",
"a c #585858",
"# c #ffffff",
"................",
"................",
"...####.........",
"..######..####..",
".###########a##.",
".##############.",
"################",
".###########a###",
".############aa.",
".########.###...",
".#b.#.#b........",
"..b....b........",
"..b....b........",
"..b....b........",
"..bb...bb.......",
"................"};
