/* XPM */
static char*udbg10[]={
"16 16 2 1",
"# c #ff00ff",
". c None",
".......##.......",
"......####......",
".....######.....",
"....########....",
"...##########...",
"......####......",
"......####......",
"......####......",
"......####......",
"......####......",
"......####......",
"...##########...",
"....########....",
".....######.....",
"......####......",
".......##......."};
