/* XPM */
static char * ulrabbit_xpm[] = {
"32 32 146 2",
"  	c None",
". 	c #FFFFC5",
"+ 	c #F2F2BC",
"@ 	c #B7B7A8",
"# 	c #96969D",
"$ 	c #F4F4BC",
"% 	c #DDDDB4",
"& 	c #B0B0A6",
"* 	c #99999E",
"= 	c #B0B0A5",
"- 	c #DCDCB4",
"; 	c #F0F0BB",
"> 	c #FEFEC0",
", 	c #FFFFC1",
"' 	c #C3C3AC",
") 	c #ABABA4",
"! 	c #A2A2A1",
"~ 	c #9E9E9F",
"{ 	c #9F9FA0",
"] 	c #A3A3A1",
"^ 	c #AAAAA3",
"/ 	c #AEAEA5",
"( 	c #FFFFC2",
"_ 	c #FFFFC0",
": 	c #F6F6BD",
"< 	c #94949C",
"[ 	c #9D9D9F",
"} 	c #A0A0A0",
"| 	c #ACACA4",
"1 	c #AFAFA5",
"2 	c #BABAA9",
"3 	c #9B9B9E",
"4 	c #B1B1A6",
"5 	c #F1F1BB",
"6 	c #FDFDBF",
"7 	c #F2F1BB",
"8 	c #E9EABA",
"9 	c #94969D",
"0 	c #9F9F9F",
"a 	c #B6B6A8",
"b 	c #BAB9A8",
"c 	c #AFB3A8",
"d 	c #9CAFAD",
"e 	c #94A7AB",
"f 	c #9BA0A2",
"g 	c #9F9E9F",
"h 	c #A09FA0",
"i 	c #FCFCBF",
"j 	c #93989F",
"k 	c #A09397",
"l 	c #B08283",
"m 	c #B28383",
"n 	c #A59898",
"o 	c #9FA2A2",
"p 	c #A0A1A1",
"q 	c #999FA2",
"r 	c #97A7A9",
"s 	c #B17F81",
"t 	c #E52A2B",
"u 	c #E62A2A",
"v 	c #B38181",
"w 	c #9AAAAA",
"x 	c #9EA3A3",
"y 	c #99999C",
"z 	c #9DA2A1",
"A 	c #9AA9A9",
"B 	c #E82828",
"C 	c #E72828",
"D 	c #959597",
"E 	c #9A9C9C",
"F 	c #9DA1A1",
"G 	c #B3B3B5",
"H 	c #B0AFAF",
"I 	c #A5A3A3",
"J 	c #A09F9F",
"K 	c #F2F2F3",
"L 	c #DDDDDD",
"M 	c #B1B1B1",
"N 	c #9CA1A1",
"O 	c #9FA1A1",
"P 	c #FFFFFF",
"Q 	c #F2F2F2",
"R 	c #B6B6B6",
"S 	c #999999",
"T 	c #9E9E9E",
"U 	c #EFEFEF",
"V 	c #B5B5B5",
"W 	c #EDEDED",
"X 	c #9C9C9F",
"Y 	c #FFFFC4",
"Z 	c #EAEAB9",
"` 	c #EEEEBA",
" .	c #C2C2AB",
"..	c #A1A1A0",
"+.	c #9C9C9E",
"@.	c #93939A",
"#.	c #A9A9A1",
"$.	c #E7E7B6",
"%.	c #9A9A9E",
"&.	c #A1A1A1",
"*.	c #98989A",
"=.	c #9A9A98",
"-.	c #A4A4A4",
";.	c #AFAFAF",
">.	c #B7B7B9",
",.	c #FFFFC3",
"'.	c #E4E4B7",
").	c #9B9B9B",
"!.	c #DCDCDB",
"~.	c #F4F4F5",
"{.	c #FCFCFE",
"].	c #EFEFBB",
"^.	c #B6B6A7",
"/.	c #8F8F9A",
"(.	c #F3F3F3",
"_.	c #FEFEFF",
":.	c #FAFABE",
"<.	c #DBDBDC",
"[.	c #F5F5F2",
"}.	c #FDFDF3",
"|.	c #FFFFF3",
"1.	c #98989D",
"2.	c #A2A2A3",
"3.	c #AAAAAD",
"4.	c #C4C4BA",
"5.	c #F0F0C8",
"6.	c #FFFFCF",
"7.	c #B9B9A9",
"8.	c #B4B4A7",
"9.	c #9B9B9D",
"0.	c #919197",
"a.	c #ACAC9F",
"b.	c #EAEAB4",
"c.	c #FFFFBE",
"d.	c #ECECBA",
"e.	c #E9E9B9",
"f.	c #8E8E98",
"g.	c #ACACA3",
"h.	c #E9E9B7",
"i.	c #BFBFAB",
"j.	c #EBEBB9",
"k.	c #B5B5A7",
"l.	c #97979D",
"m.	c #E0E0B5",
"n.	c #EDEDBA",
"o.	c #FFFFC6",
"                                . + @ # # @ + .                 ",
"                                $ % & * * = - ;                 ",
"                        > , . $ ' ) ! ~ { ] ^ /                 ",
"                        ( _ : - ) < [ } { ] | 1                 ",
"                > _ ( .     2 1 ! [ { ~ 3 4 % 5                 ",
"                ( 6 7 8     9 3 0 } } ~ * a $ .                 ",
"            > ,     b c d e f g h }             _ _             ",
"            , i     j k l m n o p }             _ _             ",
"        _ ,     ! q r s t u v w x }                 _ _         ",
"        _ ,     y z A v B C v w x }                 _ _         ",
"        _ ,     D E F n v v n o p }                 _ _         ",
"        _ _     G H I F A w x J } }                 _ _         ",
"    _ _         K L M E N x O } } } } }                 _ _     ",
"    _ _         P Q R S T } } } } } } }                 _ _     ",
"    _ _         P U V S T } } } } } } } } } } }         _ _     ",
"    _ _         P W V S T } } } } } } } } } } }         , ,     ",
"    _ _                     } } } } } } } } } } } X     Y (     ",
"    _ _                     } } } } } } } } } } } ~     Z `     ",
"    _ _                     } } } } } } } } } } } } ~ ] )  .` ( ",
"    _ _                     } } } } } } } } } } } } ..+.@.#.$., ",
"        _ ,     %...} } } } } } } } } } } } } } } } &.T *.=.    ",
"        _ ,     ! { } } } } } } } } } } } } } } } } 0 -.;.>.    ",
"        _ , ,.'./ %.        } } } } } } } } } } } T ).;.!.~.{.P ",
"        _ , ( ].^./.        } } } } } } } } } } } T S V (.P P _.",
"            _ :.                } } } } } } } } } T S V (.P P _.",
"            > ,                 X [ ~ ~ ~ ~ } } } T ).;.<.[.}.|.",
"                , , _ _             1.%.* 3 { } } } 0 2.3.4.5.6.",
"                _ _ _ _             7.8.^.4 ] 3 { } &.9.0.a.b.c.",
"                        _ _ _ _ , 6 ; d.` e.            f.g.h., ",
"                        _ _ _ _ > , ( ,.,.Y             / i.j.( ",
"                                            Y ].k.l.l.8.m.5     ",
"                                            ,.n.k.l.l.k.5 o.    "};
