/* XPM */
static char*ulrabbit[]={
"16 16 5 1",
"a c #a0a0a0",
"# c #ffffc0",
". c None",
"c c #ffffff",
"b c #ff0000",
"........#aa#....",
"......##aaaa....",
"....##.aaaa#....",
"...#.aaaa...#...",
"..#.aabaa....#..",
"..#.aaaaa....#..",
".#..caaaaa....#.",
".#..caaaaaaa..#.",
".#.....aaaaaa.#.",
".#.....aaaaaaaa#",
"..#.aaaaaaaaaaa.",
"..##a..aaaaaaacc",
"...#....aaaaaacc",
"....##...aaaaaa#",
"......#####...a#",
"...........#aa#."};
