/* XPM */
static char * unkill1_xpm[] = {
"32 32 2 1",
" 	c None",
".	c #FFFFC0",
"                                ",
"                                ",
"            ........            ",
"            ........            ",
"        ....        ....        ",
"        ....        ....        ",
"      ..    ........    ..      ",
"      ..    ........    ..      ",
"    ..    ..        ..    ..    ",
"    ..    ..        ..    ..    ",
"    ..  ..    ....    ..  ..    ",
"    ..  ..    ....    ..  ..    ",
"  ..  ..    ..    ..    ..  ..  ",
"  ..  ..    ..    ..    ..  ..  ",
"  ..  ..  ..        ..  ..  ..  ",
"  ..  ..  ..        ..  ..  ..  ",
"  ..  ..  ..        ..  ..  ..  ",
"  ..  ..  ..        ..  ..  ..  ",
"  ..  ..    ..    ..    ..  ..  ",
"  ..  ..    ..    ..    ..  ..  ",
"    ..  ..    ....    ..  ..    ",
"    ..  ..    ....    ..  ..    ",
"    ..    ..        ..    ..    ",
"    ..    ..        ..    ..    ",
"      ..    ........    ..      ",
"      ..    ........    ..      ",
"        ....        ....        ",
"        ....        ....        ",
"            ........            ",
"            ........            ",
"                                ",
"                                "};
