/* XPM */
static char*unkill1[]={
"16 16 2 1",
"# c #ffffc0",
". c None",
"................",
"......####......",
"....##....##....",
"...#..####..#...",
"..#..#....#..#..",
"..#.#..##..#.#..",
".#.#..#..#..#.#.",
".#.#.#....#.#.#.",
".#.#.#....#.#.#.",
".#.#..#..#..#.#.",
"..#.#..##..#.#..",
"..#..#....#..#..",
"...#..####..#...",
"....##....##....",
"......####......",
"................"};
