/* XPM */
static char * upbg5_xpm[] = {
"32 32 16 1",
" 	c None",
".	c #FFFF00",
"+	c #FFFF02",
"@	c #FFFF08",
"#	c #FFFF0C",
"$	c #FFFF28",
"%	c #FFFF33",
"&	c #FFFF31",
"*	c #FFFF30",
"=	c #FFFFFE",
"-	c #FFFFFF",
";	c #FFFFF5",
">	c #FFFFBC",
",	c #FFFFC9",
"'	c #FFFFC8",
")	c #FFFFC7",
"        ................        ",
"        ................        ",
"      ..                ..      ",
"      ..                ..      ",
"        .++..........++.        ",
"        @..#$%&**&%$#..@        ",
"    =--;    >,'))',>    ;--=    ",
"    --=-    --------    -=--    ",
"  --------  --------  --------  ",
"  --------  --------  --------  ",
"  ----------------------------  ",
"  ----------------------------  ",
"  ----------------------------  ",
"  ----------------------------  ",
"  ----------  ----  ----------  ",
"  ----------  ----  ----------  ",
"  ----------  ----  ----------  ",
"  ----------  ----  ----------  ",
"  --------    ----    --------  ",
"  --------    ----    --------  ",
"  ------      ----      ------  ",
"  ------      ----      ------  ",
"    --      --------      --    ",
"    --      --------      --    ",
"          ------------          ",
"          ------------          ",
"      --------------------      ",
"      --------------------      ",
"      ----  --------  ----      ",
"      ----  --------  ----      ",
"                                ",
"                                "};
