/* XPM */
static char * urrabbit_xpm[] = {
"32 32 152 2",
"  	c None",
". 	c #FFFFC5",
"+ 	c #F2F2BC",
"@ 	c #B7B7A8",
"# 	c #96969D",
"$ 	c #F0F0BB",
"% 	c #DCDCB4",
"& 	c #B0B0A5",
"* 	c #99999E",
"= 	c #B0B0A6",
"- 	c #DDDDB4",
"; 	c #F4F4BC",
"> 	c #AEAEA5",
", 	c #AAAAA3",
"' 	c #A3A3A1",
") 	c #9F9FA0",
"! 	c #9E9E9F",
"~ 	c #A2A2A1",
"{ 	c #ABABA4",
"] 	c #C3C3AC",
"^ 	c #FFFFC1",
"/ 	c #FEFEC0",
"( 	c #AFAFA5",
"_ 	c #ACACA4",
": 	c #A0A0A0",
"< 	c #9D9D9F",
"[ 	c #94949C",
"} 	c #F6F6BD",
"| 	c #FFFFC0",
"1 	c #FFFFC2",
"2 	c #F1F1BB",
"3 	c #B1B1A6",
"4 	c #9B9B9E",
"5 	c #BABAA9",
"6 	c #B6B6A8",
"7 	c #9F9F9F",
"8 	c #94969D",
"9 	c #E9EABA",
"0 	c #F2F1BB",
"a 	c #FDFDBF",
"b 	c #A09FA0",
"c 	c #9F9E9F",
"d 	c #9BA0A2",
"e 	c #94A7AB",
"f 	c #9CAFAD",
"g 	c #AFB3A8",
"h 	c #BAB9A8",
"i 	c #A0A1A1",
"j 	c #9FA2A2",
"k 	c #A59898",
"l 	c #B28383",
"m 	c #B08283",
"n 	c #A09397",
"o 	c #93989F",
"p 	c #FCFCBF",
"q 	c #9EA3A3",
"r 	c #9AAAAA",
"s 	c #B38181",
"t 	c #E62A2A",
"u 	c #E52A2B",
"v 	c #B17F81",
"w 	c #97A7A9",
"x 	c #999FA2",
"y 	c #E72828",
"z 	c #E82828",
"A 	c #9AA9A9",
"B 	c #9DA2A1",
"C 	c #99999C",
"D 	c #9DA1A1",
"E 	c #9A9C9C",
"F 	c #959597",
"G 	c #A09F9F",
"H 	c #A5A3A3",
"I 	c #B0AFAF",
"J 	c #B3B3B5",
"K 	c #9FA1A1",
"L 	c #9CA1A1",
"M 	c #B1B1B1",
"N 	c #DDDDDD",
"O 	c #F2F2F3",
"P 	c #9E9E9E",
"Q 	c #999999",
"R 	c #B6B6B6",
"S 	c #F2F2F2",
"T 	c #FFFFFF",
"U 	c #B5B5B5",
"V 	c #EFEFEF",
"W 	c #EDEDED",
"X 	c #FFFFC4",
"Y 	c #9C9C9F",
"Z 	c #EEEEBA",
"` 	c #EAEAB9",
" .	c #C2C2AB",
"..	c #E7E7B6",
"+.	c #A9A9A1",
"@.	c #93939A",
"#.	c #9C9C9E",
"$.	c #A1A1A0",
"%.	c #9A9A98",
"&.	c #98989A",
"*.	c #A1A1A1",
"=.	c #A2A2A2",
"-.	c #A0A0A2",
";.	c #B7B7B9",
">.	c #AFAFAF",
",.	c #A4A4A4",
"'.	c #9B9B9A",
").	c #959598",
"!.	c #FCFCFE",
"~.	c #F4F4F5",
"{.	c #DCDCDB",
"].	c #9B9B9B",
"^.	c #888888",
"/.	c #818183",
"(.	c #FEFEFF",
"_.	c #F3F3F3",
":.	c #747478",
"<.	c #80807F",
"[.	c #F7F7BC",
"}.	c #FFFFF3",
"|.	c #FDFDF3",
"1.	c #F5F5F2",
"2.	c #DBDBDC",
"3.	c #FFFFCF",
"4.	c #F0F0C8",
"5.	c #C4C4BA",
"6.	c #AAAAAD",
"7.	c #A2A2A3",
"8.	c #9A9A9E",
"9.	c #98989D",
"0.	c #FFFFBE",
"a.	c #EAEAB4",
"b.	c #ACAC9F",
"c.	c #919197",
"d.	c #9B9B9D",
"e.	c #B6B6A7",
"f.	c #B4B4A7",
"g.	c #B9B9A9",
"h.	c #E9E9B7",
"i.	c #ACACA3",
"j.	c #8E8E98",
"k.	c #E9E9B9",
"l.	c #ECECBA",
"m.	c #EBEBB9",
"n.	c #BFBFAB",
"o.	c #FFFFC3",
"p.	c #E0E0B5",
"q.	c #97979D",
"r.	c #B5B5A7",
"s.	c #EFEFBB",
"t.	c #FFFFC6",
"u.	c #EDEDBA",
"                . + @ # # @ + .                                 ",
"                $ % & * * = - ;                                 ",
"                > , ' ) ! ~ { ] ; . ^ /                         ",
"                ( _ ' ) : < [ { % } | 1                         ",
"                2 - 3 4 ! ) < ~ ( 5     . 1 | /                 ",
"                . ; 6 * ! : : 7 4 8     9 0 a 1                 ",
"            | |             : b c d e f g h     ^ /             ",
"            | |             : i j k l m n o     p ^             ",
"        | |                 : q r s t u v w x ~     ^ |         ",
"        | |                 : q r s y z s A B C     ^ |         ",
"        | |                 : i j k s s k D E F     ^ |         ",
"        | |                 : : G q r A D H I J     | |         ",
"    | |                 : : : : : K q L E M N O         | |     ",
"    | |                 : : : : : : : P Q R S T         | |     ",
"    | |         : : : : : : : : : : : P Q U V T         | |     ",
"    ^ ^         : : : : : : : : : : : P Q U W T         | |     ",
"    1 X     Y : : : : : : : : : : :                     | |     ",
"    Z `     ! : : : : : : : : : : :                     | |     ",
"1 Z  .{ ' ! : : : : : : : : : : : :                     | |     ",
"^ ..+.@.#.$.: : : : : : : : : : : :                     | |     ",
"    %.&.P *.: : : : : : : : : : : : : : : *.=.-.    ^ |         ",
"    ;.>.,.7 : : : : : : : : : : : : : : *.P '.).    ^ |         ",
"T !.~.{.>.].P : : : : : : : : : : :         ^./.    1 |         ",
"(.T T _.U Q P : : : : : : : : : : :         :.<.    1 |         ",
"(.T T _.U Q P : : : : : : : : :                 [.^             ",
"}.|.1.2.>.].P : : : ! ! ! ! < Y                 ^ /             ",
"3.4.5.6.7.7 : : : ) 4 * 8.9.            | | ^ 1                 ",
"0.a.b.c.d.*.: ) 4 ' 3 e.f.g.            | | | |                 ",
"^ h.i.j.            k.Z l.$ a ^ | | | |                         ",
"1 m.n.>             X o.o.1 ^ / | | | |                         ",
"    2 p.f.q.q.r.s.X                                             ",
"    t.2 r.q.q.r.u.o.                                            "};
