/* XPM */
static char*urrabbit[]={
"16 16 6 1",
"d c #808080",
"a c #a0a0a0",
"# c #ffffc0",
". c None",
"c c #ffffff",
"b c #ff0000",
"....#aa#........",
"....aaaa##......",
"....#aaaa.##....",
"...#...aaaa.#...",
"..#....aabaa.#..",
"..#....aaaaa.#..",
".#....aaaaac..#.",
".#..aaaaaaac..#.",
".#.aaaaaa.....#.",
"#aaaaaaaa.....#.",
".aaaaaaaaaaa.#..",
"ccaaaaaaa..d.#..",
"ccaaaaaa....#...",
"#aaaaaa...##....",
"#a...#####......",
".#aa#..........."};
